<?xml version="1.0" standalone="no"?>
<!DOCTYPE svg PUBLIC "-//W3C//DTD SVG 20010904//EN"
 "http://www.w3.org/TR/2001/REC-SVG-20010904/DTD/svg10.dtd">
<svg version="1.0" xmlns="http://www.w3.org/2000/svg"
 width="700.000000pt" height="700.000000pt" viewBox="0 0 700.000000 700.000000"
 preserveAspectRatio="xMidYMid meet">
<metadata>
Created by potrace 1.11, written by Peter Selinger 2001-2013
</metadata>
<g transform="translate(0.000000,700.000000) scale(0.100000,-0.100000)"
fill="#000000" stroke="none">
<path d="M3245 6989 c-1009 -73 -1934 -580 -2546 -1395 -594 -791 -823 -1804
-629 -2784 107 -539 350 -1058 706 -1505 113 -141 388 -416 529 -529 461 -367
1002 -615 1558 -715 243 -44 363 -54 637 -54 279 -1 449 15 692 64 542 108
1057 350 1503 705 141 113 416 388 529 529 617 775 876 1730 735 2710 -77 532
-289 1062 -602 1503 -168 237 -443 531 -652 698 -710 567 -1570 838 -2460 773z
m759 -299 c99 -17 182 -32 184 -35 9 -9 -10 -117 -22 -121 -7 -3 -56 2 -109
10 -158 26 -153 28 -167 -50 -6 -37 -7 -70 -3 -74 4 -4 44 -13 88 -19 44 -7
97 -17 119 -22 l38 -10 -4 -55 c-3 -30 -8 -57 -11 -61 -4 -3 -61 2 -128 12
-68 10 -124 14 -128 9 -5 -5 -16 -57 -25 -116 -10 -59 -22 -123 -27 -141 l-9
-34 -51 8 c-82 13 -89 17 -84 47 3 15 28 173 56 352 28 178 53 328 55 332 3 4
15 6 27 3 12 -2 103 -18 201 -35z m-929 -18 c22 -11 53 -34 69 -51 l30 -31
-44 -45 c-24 -25 -48 -45 -53 -45 -5 0 -25 14 -44 30 -65 57 -183 31 -183 -40
0 -41 25 -55 154 -85 128 -30 151 -41 198 -93 74 -82 71 -210 -7 -287 -79 -79
-234 -104 -340 -54 -47 22 -135 98 -135 117 0 4 20 27 44 51 l45 44 36 -31
c80 -71 153 -89 213 -52 26 16 32 26 32 56 0 68 -18 81 -187 125 -148 38 -213
103 -213 213 0 122 121 211 275 203 45 -3 84 -11 110 -25z m-522 -89 c-2 -16
-17 -124 -33 -241 l-30 -214 55 -133 c30 -74 55 -138 55 -143 0 -5 -24 -18
-52 -30 -29 -11 -60 -23 -69 -27 -13 -5 -25 13 -57 87 -22 51 -49 114 -59 140
-16 41 -35 59 -174 165 -85 65 -173 133 -194 150 l-39 32 67 31 c37 16 73 30
81 30 8 0 67 -43 132 -96 83 -67 120 -91 124 -82 4 7 13 69 19 138 17 172 13
163 84 193 82 34 94 34 90 0z m2148 -80 c187 -60 301 -236 271 -415 -38 -219
-230 -365 -434 -328 -231 42 -378 249 -324 458 37 145 121 241 254 288 53 19
170 17 233 -3z m-2652 -571 c157 -87 286 -163 288 -168 1 -5 -27 -29 -64 -53
l-67 -44 -65 34 c-36 18 -74 37 -83 41 -12 5 -40 -9 -95 -48 -121 -87 -115
-76 -99 -169 16 -92 17 -90 -65 -146 -50 -34 -58 -37 -63 -21 -7 22 -123 699
-132 771 l-7 54 84 -46 c46 -25 212 -117 368 -205z m3356 163 c157 -129 195
-185 195 -284 -1 -61 -28 -118 -77 -162 -52 -47 -101 -63 -169 -56 l-53 5 -5
-31 c-3 -18 -10 -90 -15 -161 -6 -71 -12 -131 -15 -133 -8 -9 -136 98 -136
113 0 7 7 77 16 154 15 134 15 142 -2 161 -17 19 -18 19 -47 -8 -16 -16 -53
-58 -84 -95 -30 -38 -60 -68 -65 -68 -13 0 -108 79 -108 89 0 15 445 561 457
561 3 0 51 -38 108 -85z m-4008 -461 c81 -39 155 -112 193 -191 19 -38 24 -65
24 -128 1 -69 -4 -89 -30 -145 -17 -36 -67 -110 -111 -165 -130 -161 -79 -173
-391 89 -149 124 -273 229 -276 234 -3 5 22 42 55 83 212 261 344 316 536 223z
m-528 -690 c113 -59 254 -131 314 -162 59 -30 107 -59 107 -65 0 -16 -64 -127
-73 -127 -5 0 -45 20 -90 43 -45 24 -187 97 -314 162 -128 65 -233 121 -233
125 0 25 58 130 72 130 6 0 104 -48 217 -106z m2097 -46 c25 -43 35 -53 55
-51 223 18 357 -25 480 -154 189 -197 185 -503 -8 -696 -99 -99 -216 -147
-359 -147 -138 0 -276 59 -368 157 -53 56 -112 179 -126 263 -22 133 21 303
102 394 l39 46 -32 60 c-35 66 -35 66 26 101 22 12 63 35 90 50 28 16 55 29
60 29 6 0 25 -24 41 -52z m-2249 -317 c52 -26 98 -81 113 -137 7 -24 17 -44
22 -44 5 0 74 21 153 47 80 26 147 44 151 41 3 -4 -4 -41 -16 -82 -26 -86 -15
-79 -210 -136 -112 -33 -114 -34 -124 -66 -6 -19 4 -24 109 -58 64 -21 119
-44 122 -52 5 -15 -25 -122 -37 -129 -9 -6 -672 193 -684 205 -14 14 73 287
109 339 46 67 122 105 196 98 30 -3 74 -14 96 -26z m3219 -357 c60 -54 148
-133 194 -174 46 -41 91 -82 99 -91 9 -9 44 -41 77 -70 98 -87 475 -430 527
-480 43 -43 47 -50 47 -95 0 -55 -11 -76 -74 -142 l-41 -43 36 -32 c50 -45
116 -103 189 -167 85 -74 100 -89 100 -98 0 -9 -152 -188 -158 -185 -2 0 -78
67 -170 147 l-166 146 -44 -50 c-24 -28 -57 -57 -73 -65 -59 -31 -126 -11
-195 59 -16 17 -93 87 -169 156 -178 160 -299 273 -304 283 -2 5 -36 158 -76
340 l-72 332 23 41 c36 64 73 184 80 263 l7 72 26 -24 c14 -13 76 -68 137
-123z m-3544 -446 l-2 -138 28 0 c16 0 50 -3 75 -6 l46 -7 5 34 c3 19 8 78 12
132 l6 97 48 0 c81 0 78 5 72 -139 l-5 -129 114 -6 c63 -4 131 -9 153 -13 l39
-5 -5 -69 c-3 -39 -7 -72 -10 -74 -2 -3 -69 0 -149 5 -79 6 -211 15 -294 20
-82 6 -179 13 -214 16 l-64 6 7 164 c3 91 9 185 13 210 l6 45 61 -3 61 -3 -3
-137z m3182 25 c8 -38 74 -339 146 -671 l130 -603 -71 -282 c-39 -155 -77
-297 -85 -314 -26 -64 -119 -93 -175 -55 -28 18 -93 94 -229 268 -47 60 -92
116 -100 124 -70 74 -76 89 -124 310 -26 118 -57 258 -67 310 -11 52 -60 279
-109 504 -49 226 -88 411 -87 412 1 2 29 -10 62 -26 201 -98 466 -73 640 58
22 17 43 31 47 31 3 1 13 -29 22 -66z m2289 -1338 c20 -14 37 -29 37 -33 0 -4
-21 -43 -46 -87 -25 -44 -59 -103 -75 -132 l-29 -51 57 -31 c31 -17 60 -31 64
-31 5 0 40 54 79 120 39 66 76 120 82 120 14 0 98 -49 98 -57 0 -3 -30 -59
-66 -124 -36 -65 -64 -123 -62 -129 2 -6 36 -29 76 -51 l72 -40 33 53 c19 29
53 86 77 126 24 41 49 76 56 79 16 6 93 -34 100 -51 5 -12 -193 -366 -220
-393 -8 -8 -77 26 -281 141 -148 84 -289 164 -312 179 l-42 27 98 167 c148
255 136 244 204 198z m-279 -556 c49 -13 131 -90 146 -135 7 -19 10 -63 8 -99
-1 -35 -1 -66 2 -68 3 -3 66 -13 140 -21 145 -18 170 -23 170 -35 0 -4 -24
-34 -54 -67 l-53 -59 -152 26 c-131 22 -154 24 -171 12 -11 -8 -20 -20 -20
-26 0 -7 40 -48 90 -92 49 -44 89 -84 90 -88 0 -10 -90 -107 -100 -107 -9 0
-310 271 -439 396 l-95 90 114 118 c155 159 211 186 324 155z m-462 -486 c189
-299 212 -343 216 -411 6 -89 -15 -138 -88 -206 -77 -71 -150 -100 -237 -93
-97 7 -138 37 -214 154 -97 150 -229 366 -229 375 0 14 111 80 124 75 7 -3 46
-59 86 -124 189 -307 210 -333 277 -333 65 0 139 78 128 135 -3 17 -64 128
-135 247 -72 119 -130 219 -130 222 0 9 103 75 117 75 6 1 44 -52 85 -116z
m-651 -293 c9 -30 15 -58 13 -62 -2 -3 -40 -18 -84 -33 -44 -15 -82 -31 -85
-36 -5 -7 102 -398 145 -531 9 -27 7 -28 -43 -43 -107 -30 -89 -55 -180 253
-61 206 -84 272 -96 272 -9 0 -45 -9 -79 -20 -95 -30 -97 -29 -116 41 -10 33
-16 62 -14 64 10 10 487 154 503 152 14 -1 24 -16 36 -57z m-1553 -76 c103
-20 191 -40 195 -44 9 -8 -11 -118 -23 -125 -4 -3 -63 6 -130 20 -68 13 -127
22 -131 20 -9 -6 -29 -88 -29 -119 0 -18 6 -27 23 -31 50 -11 211 -45 215 -45
6 0 -6 -98 -13 -110 -9 -14 -37 -12 -154 10 -57 11 -106 18 -108 16 -3 -2 -16
-53 -29 -112 -39 -174 -42 -182 -62 -179 -114 23 -122 27 -117 48 4 20 132
613 143 665 2 12 11 22 18 22 8 0 99 -16 202 -36z m886 -60 c3 -9 6 -136 6
-282 0 -239 -2 -271 -19 -307 -23 -50 -84 -109 -135 -130 -52 -22 -161 -30
-213 -16 -64 17 -134 70 -163 121 -23 43 -25 55 -34 323 -5 152 -7 280 -4 283
3 3 37 8 76 11 l70 6 6 -44 c3 -24 7 -141 10 -260 5 -242 10 -264 70 -293 42
-20 67 -20 111 -2 68 29 70 38 68 338 l-2 268 73 0 c58 0 75 -3 80 -16z"/>
<path d="M4510 6359 c-76 -31 -140 -136 -140 -228 0 -73 9 -98 52 -146 42 -49
99 -75 166 -75 128 0 230 117 225 262 -3 109 -91 190 -212 195 -36 2 -77 -2
-91 -8z"/>
<path d="M1770 5926 c0 -29 32 -160 41 -170 8 -9 112 54 124 75 3 4 -23 24
-57 45 -35 21 -73 44 -85 52 -21 13 -23 12 -23 -2z"/>
<path d="M5298 5942 c-61 -67 -90 -112 -85 -126 4 -9 25 -29 48 -46 72 -52
156 -36 179 35 15 45 -7 92 -65 139 l-43 36 -34 -38z"/>
<path d="M1155 5501 c-44 -20 -150 -126 -140 -140 4 -8 262 -226 318 -270 16
-13 21 -12 43 15 108 130 117 229 27 325 -79 85 -164 109 -248 70z"/>
<path d="M3105 4473 c-114 -29 -128 -186 -20 -237 50 -24 99 -14 142 29 28 28
33 40 33 83 0 58 -25 97 -76 118 -34 14 -45 15 -79 7z"/>
<path d="M558 4432 c-30 -18 -69 -89 -71 -131 -2 -23 5 -27 92 -54 106 -33
102 -35 121 52 14 69 4 103 -42 131 -40 24 -64 25 -100 2z"/>
<path d="M5465 1756 c-16 -7 -50 -32 -75 -55 l-45 -41 75 -70 c41 -38 78 -70
82 -70 13 0 88 101 94 126 9 35 -14 83 -50 105 -36 22 -41 22 -81 5z"/>
</g>
</svg>
