<svg id="bold" enable-background="new 0 0 24 24" height="512" viewBox="0 0 24 24" width="512" xmlns="http://www.w3.org/2000/svg"><path d="m7.75 19h-5c-.414 0-.75-.336-.75-.75s.336-.75.75-.75h5c.414 0 .75.336.75.75s-.336.75-.75.75z"/><path d="m21.58 19h-13.5c-.376 0-.693-.278-.743-.651l-2.33-17.5c-.028-.214.036-.431.179-.593s.348-.256.564-.256h13.5c.376 0 .693.278.743.651l2.33 17.5c.028.214-.036.431-.179.593s-.348.256-.564.256z"/><path d="m8.08 20c-.186 0-.364-.035-.534-.09l.461 3.44c.05.377.372.65.742.65.033 0 .066-.002.101-.007.41-.055.699-.432.644-.843l-.423-3.15z"/><path d="m21.58 20h-.522l.449 3.35c.05.377.372.65.742.65.033 0 .066-.002.101-.007.41-.055.699-.432.644-.843l-.461-3.441c-.283.184-.61.291-.953.291z"/><path d="m4.415 3.977-3.403 19.142c-.072.408.199.797.607.87.044.007.088.011.132.011.356 0 .673-.255.737-.619l2.579-14.504z"/></svg>