<?xml version="1.0" encoding="iso-8859-1"?>
<!-- Generator: Adobe Illustrator 19.0.0, SVG Export Plug-In . SVG Version: 6.00 Build 0)  -->
<svg version="1.1" id="Capa_1" xmlns="http://www.w3.org/2000/svg" xmlns:xlink="http://www.w3.org/1999/xlink" x="0px" y="0px"
	 viewBox="0 0 512 512" style="enable-background:new 0 0 512 512;" xml:space="preserve">
<g>
	<g>
		<ellipse cx="256" cy="45" rx="150" ry="45"/>
	</g>
</g>
<g>
	<g>
		<path d="M413.031,323.204l-7.178,71.785C405.004,432.063,354.54,452,256,452c-56.016,0-150-7.793-150-60l-6.606-68.945
			C36.458,342.336,0,372.225,0,407c0,68.203,132.382,105,256,105s256-36.797,256-105C512,372.307,475.686,342.488,413.031,323.204z"
			/>
	</g>
</g>
<g>
	<g>
		<path d="M256,362c-44.172,0-86.287-8.652-125.14-23.846L136,392c0,16.538,53.833,30,120,30c25.681,0,119.357-4.329,120-30
			l5.394-53.939C342.472,353.319,300.269,362,256,362z"/>
	</g>
</g>
<g>
	<g>
		<path d="M256,120c-21.332,0-102.847-1.957-148.493-28.53l20.129,212.903C166.894,321.982,210.264,332,256,332
			c45.903,0,89.414-10.1,128.784-27.83l21.159-213.582C360.603,117.991,277.563,120,256,120z"/>
	</g>
</g>
<g>
</g>
<g>
</g>
<g>
</g>
<g>
</g>
<g>
</g>
<g>
</g>
<g>
</g>
<g>
</g>
<g>
</g>
<g>
</g>
<g>
</g>
<g>
</g>
<g>
</g>
<g>
</g>
<g>
</g>
</svg>
