<svg id="Layer_1" enable-background="new 0 0 513.625 513.625" height="512" viewBox="0 0 513.625 513.625" width="512" xmlns="http://www.w3.org/2000/svg"><g><path d="m386.628 237.427c-.257 6.846-2.511 13.69-6.968 19.646 2.642 2.652 4.278 6.306 4.278 10.336v31.634c0 5.523 4.477 10 10 10s10-4.477 10-10v-31.634c0-12.792-6.972-23.979-17.31-29.982z"/><path d="m334.65 266.664c-.029 1.374-.015 167.865-.019 236.958 0 5.523 4.477 10 10 10s10-4.477 10-10v-232.671c-6.757.58-13.716-.794-19.981-4.287z"/><path d="m299.765 91.41c24.426 8.49 51.274-4.356 59.828-28.967 8.522-24.52-4.447-51.306-28.967-59.828-24.426-8.49-51.274 4.356-59.828 28.967-8.522 24.52 4.447 51.306 28.967 59.828z"/><path d="m363.716 218.459-58.221-39.527-9.786-47.021 16.641 35.122 1.734 1.179 7.603-49.138c.716-4.63.366-9.165-.847-13.328-1.863.179-3.744.281-5.643.281-6.586 0-13.104-1.104-19.372-3.283-14.747-5.125-26.635-15.641-33.533-29.627-.949-.33-1.909-.664-2.896-1.006-10.245-3.561-21.515-.222-29.049 8.006l-86.366 22.205c-10.934 2.812-17.775 13.665-15.595 24.741l19.19 97.523-36.124 63.761c-3.907 6.897-1.057 15.576 5.848 17.975 10.677 3.711 26.739 9.293 44.742 15.55l14.662 55.761-26.778 101.847c-3.822 14.536 4.864 29.418 19.4 33.24 14.532 3.822 29.418-4.862 33.241-19.4l28.598-108.765c1.193-4.537 1.193-9.304 0-13.841l-7.182-27.313c10.545 3.665 20.463 7.112 29.083 10.108l12.734 18.281-32.454 106.69c-4.375 14.38 3.737 29.583 18.117 33.957 14.471 4.402 29.612-3.832 33.957-18.117l36.298-119.327c2.427-7.979 1.062-16.631-3.705-23.475l-26.422-37.933 10.643-68.785-35.513-24.145c-1.789-1.802-14.953-6.859-14.587-21.813l1.871-58.252 11.543 55.46c1.126 5.413 4.314 10.177 8.889 13.282l65.353 44.369c9.713 6.594 22.965 4.094 29.586-5.658 6.606-9.731 4.073-22.977-5.66-29.584zm-183.914-50.749-5.734-29.137 26.034-6.693z"/></g></svg>