<?xml version="1.0" encoding="iso-8859-1"?>
<!-- Generator: Adobe Illustrator 19.0.0, SVG Export Plug-In . SVG Version: 6.00 Build 0)  -->
<svg version="1.1" id="Layer_1" xmlns="http://www.w3.org/2000/svg" xmlns:xlink="http://www.w3.org/1999/xlink" x="0px" y="0px"
	 viewBox="0 0 503.996 503.996" style="enable-background:new 0 0 503.996 503.996;" xml:space="preserve">
<g>
	<g>
		<path d="M382.02,452.812h-0.084v-71.86c0-24.308-15.584-54.652-35.144-69.076l-75.108-55.184v-9.384l75.104-55.184
			c19.564-14.424,35.144-44.768,35.144-69.076v-71.86h0.084c13.028,0,23.54-10.596,23.54-23.624v-3.94
			C405.556,10.596,395.044,0,382.016,0h-259.94c-13.028,0-23.64,10.596-23.64,23.624v3.936c0,13.028,10.604,23.624,23.632,23.624
			l0.108,71.86c0,24.312,15.304,54.636,34.908,69.028l75.228,55.276v9.296l-75.288,55.28
			c-19.596,14.392-34.964,44.716-34.964,69.028v71.86h0.016c-13.028,0-23.64,10.596-23.64,23.624v3.936
			c0,13.028,10.612,23.624,23.64,23.624H382.02c13.028,0,23.54-10.596,23.54-23.624v-3.936
			C405.56,463.408,395.048,452.812,382.02,452.812z M366.184,452.816h-19.688v-61.76c0-17.948-11.264-40.356-25.72-51.004
			l-63.912-47.136c-2.772-2.052-6.544-2.056-9.32-0.012l-64.248,47.18c-14.472,10.632-25.8,33.02-25.8,50.972v61.756h-19.688v-71.86
			c0-19.18,13.124-44.976,28.584-56.332l78.468-57.636c2.02-1.484,3.196-3.84,3.196-6.348v-17.272c0-2.508-1.148-4.864-3.164-6.348
			l-78.52-57.636c-15.464-11.356-28.564-37.152-28.564-56.332v-71.86h228.376v71.86c0,19.188-13.296,45.016-28.744,56.404
			l-78.18,57.54c-2.012,1.484-3.328,3.832-3.328,6.336v17.344c0,2.5,1.188,4.852,3.2,6.336l78.312,57.544
			c15.44,11.388,28.74,37.216,28.74,56.404V452.816z"/>
	</g>
</g>
<g>
	<g>
		<path d="M323.64,155.152c-1.064-3.236-4.084-5.416-7.484-5.416l-128.192-0.04c-3.404,0-6.42,2.188-7.484,5.42
			c-1.06,3.236,0.08,6.788,2.824,8.804l64.252,47.176c1.388,1.02,3.024,1.528,4.66,1.528c1.64,0,3.284-0.512,4.672-1.54
			l63.944-47.136C323.568,161.932,324.704,158.384,323.64,155.152z"/>
	</g>
</g>
<g>
</g>
<g>
</g>
<g>
</g>
<g>
</g>
<g>
</g>
<g>
</g>
<g>
</g>
<g>
</g>
<g>
</g>
<g>
</g>
<g>
</g>
<g>
</g>
<g>
</g>
<g>
</g>
<g>
</g>
</svg>
