<?xml version="1.0" encoding="iso-8859-1"?>
<!-- Generator: Adobe Illustrator 19.0.0, SVG Export Plug-In . SVG Version: 6.00 Build 0)  -->
<svg version="1.1" id="Capa_1" xmlns="http://www.w3.org/2000/svg" xmlns:xlink="http://www.w3.org/1999/xlink" x="0px" y="0px"
	 viewBox="0 0 512 512" style="enable-background:new 0 0 512 512;" xml:space="preserve">
<g>
	<g>
		<path d="M135,0c-24.814,0-45,20.186-45,45c0,24.814,20.186,45,45,45c24.814,0,45-20.186,45-45C180,20.186,159.814,0,135,0z"/>
	</g>
</g>
<g>
	<g>
		<path d="M467,0H255c-24.814,0-45,20.186-45,45v53.302c4.442,2.587,8.688,5.543,12.422,9.276l29.414,29.414l21.328-10.664
			c14.299-7.125,26.733-7.429,39.725-4.583l71.984-35.993c22.189-10.992,49.105-2.346,60.352,20.083
			c11.208,22.386,2.113,49.319-20.098,60.425l-68.985,34.492c-5.297,14.361-15.56,26.061-29.335,32.935L314.18,240H467
			c24.814,0,45-20.186,45-45V45C512,20.186,491.814,0,467,0z"/>
	</g>
</g>
<g>
	<g>
		<path d="M418.418,119.292c-3.721-7.412-12.7-10.386-20.127-6.709l-83.652,41.825c-8.329-4.775-18.574-5.967-28.057-1.243
			l-40.664,20.332l-44.707-44.707C195.542,123.12,188.013,120,180,120H60c-33.091,0-60,26.909-60,60v91
			c0,20.678,20.603,35.197,40.005,28.286L60,292.226c0,66.226,0,123.271,0,189.774c0,16.567,13.431,30,30,30
			c16.569,0,30-13.433,30-30c0-39.503,0-68.57,0-106c0-8.286,6.716-15,15-15s15,6.714,15,15c0,38.643,0,66.356,0,106
			c0,16.567,13.431,30,30,30c16.569,0,30-13.433,30-30c0-92.368,0-159.321,0-250.921l19.995,7.046
			c8.361,2.959,16.252,2.283,23.423-1.289l60-30c10.375-5.176,16.047-15.577,16.23-26.387l82.061-41.03
			C419.121,135.713,422.124,126.704,418.418,119.292z"/>
	</g>
</g>
<g>
</g>
<g>
</g>
<g>
</g>
<g>
</g>
<g>
</g>
<g>
</g>
<g>
</g>
<g>
</g>
<g>
</g>
<g>
</g>
<g>
</g>
<g>
</g>
<g>
</g>
<g>
</g>
<g>
</g>
</svg>
