<?xml version="1.0" encoding="UTF-8" standalone="no"?><!DOCTYPE svg PUBLIC "-//W3C//DTD SVG 1.1//EN" "http://www.w3.org/Graphics/SVG/1.1/DTD/svg11.dtd"><svg width="100%" height="100%" viewBox="0 0 595 332" version="1.1" xmlns="http://www.w3.org/2000/svg" xmlns:xlink="http://www.w3.org/1999/xlink" xml:space="preserve" xmlns:serif="http://www.serif.com/" style="fill-rule:evenodd;clip-rule:evenodd;stroke-linecap:round;stroke-linejoin:round;stroke-miterlimit:1.5;"><path d="M452.286,37.944c0,-15.962 -12.958,-28.92 -28.919,-28.92l-380.077,0c-15.96,0 -28.919,12.958 -28.919,28.92l0,57.838c0,15.961 12.959,28.92 28.919,28.92l380.077,0c15.961,0 28.919,-12.959 28.919,-28.92l0,-57.838Z" style="fill:#2d2d2d;stroke:#000;stroke-width:7.93px;"/><path d="M584.75,35c0,-15.031 -12.203,-27.233 -27.232,-27.233l-54.465,0c-15.03,0 -27.232,12.202 -27.232,27.233l0,61.212c0,15.03 12.202,27.232 27.232,27.232l54.465,0c15.029,0 27.232,-12.202 27.232,-27.232l0,-61.212Z" style="fill:#1f8e3f;"/><path d="M565.054,91.545l-19.406,-19.407c3.68,-4.544 5.896,-10.321 5.896,-16.61c0,-14.582 -11.862,-26.444 -26.443,-26.444c-14.581,0 -26.443,11.862 -26.443,26.444c0,14.58 11.862,26.443 26.443,26.443c6.29,0 12.067,-2.216 16.611,-5.896l19.406,19.405c0.544,0.544 1.424,0.544 1.968,0l1.968,-1.967c0.543,-0.544 0.543,-1.425 0,-1.968Zm-39.953,-15.142c-11.512,0 -20.876,-9.364 -20.876,-20.875c0,-11.512 9.364,-20.877 20.876,-20.877c11.512,0 20.876,9.365 20.876,20.877c0,11.511 -9.364,20.875 -20.876,20.875Z" style="fill:#fff;fill-rule:nonzero;"/><g><g><path d="M577.074,203.727c0,-22.445 -18.223,-40.667 -40.667,-40.667l-81.333,0c-22.444,0 -40.666,18.222 -40.666,40.667l0,81.333c0,22.444 18.222,40.666 40.666,40.666l81.333,0c22.444,0 40.667,-18.222 40.667,-40.666l0,-81.333Z" style="fill:#68d8ff;"/><g><clipPath id="_clip1"><path d="M568.673,215.964c0,-20.193 -16.395,-36.588 -36.588,-36.588l-73.175,0c-20.193,0 -36.587,16.395 -36.587,36.588l0,73.175c0,20.193 16.394,36.587 36.587,36.587l73.175,0c20.193,0 36.588,-16.394 36.588,-36.587l0,-73.175Z"/></clipPath><g clip-path="url(#_clip1)"><path d="M523.805,196.532l-0.577,0l-0.006,-5.707c-0.006,-5.196 -4.224,-9.403 -9.42,-9.395c-5.193,0.008 -9.398,4.223 -9.392,9.417l0.007,5.686l-0.007,0l-0.006,-5.112c-0.005,-5.196 -4.224,-9.403 -9.42,-9.395c-4.963,0.007 -9.02,3.859 -9.365,8.733c-0.296,-4.934 -4.393,-8.841 -9.401,-8.834c-5.193,0.008 -9.398,4.223 -9.392,9.417l0.002,2.094c-0.609,-3.924 -4.005,-6.925 -8.1,-6.918c-4.52,0.006 -8.179,3.675 -8.174,8.195l0.015,13.988c0.001,0.978 0.175,1.915 0.491,2.784l0.014,27.312c0.025,4.248 1.245,8.397 3.512,11.948l11.597,16.534l-0.449,8.985l50.633,0.271l-0.125,-12.143l17.666,-32.576c1.362,-2.511 2.084,-5.334 2.099,-8.208l0.077,-14.389c0.036,-6.996 -5.471,-12.687 -12.279,-12.687Z" style="fill:#fed9a8;fill-rule:nonzero;"/><g><path d="M504.41,196.494l-0.006,-5.073c-0.006,-5.196 -4.224,-9.403 -9.42,-9.395c-1.376,0.002 -2.681,0.302 -3.858,0.834c3.209,1.495 5.436,4.745 5.44,8.519l0.008,7.089c1.399,-1.23 3.214,-1.974 5.199,-1.974l2.637,0Z" style="fill:#f4c08e;fill-rule:nonzero;"/><path d="M523.222,190.825c-0.006,-5.196 -4.224,-9.403 -9.42,-9.395c-1.357,0.002 -2.645,0.293 -3.81,0.813c3.236,1.484 5.486,4.747 5.49,8.541l0.007,5.709l7.739,0l-0.006,-5.668Z" style="fill:#f4c08e;fill-rule:nonzero;"/></g><path d="M529.008,280.03c0.01,-1.893 -1.516,-3.435 -3.409,-3.446l-68.485,-0.366c-1.893,-0.01 -3.436,1.516 -3.446,3.409l-0.043,7.976c-0.01,1.893 1.516,3.435 3.409,3.446l46.61,0.249l8.917,0.048l12.959,0.069c1.893,0.01 3.435,-1.516 3.445,-3.409l0.043,-7.976Z" style="fill:#fb0125;fill-rule:nonzero;"/><path d="M525.599,276.585l-7.739,-0.042c1.893,0.011 3.419,1.553 3.409,3.446l-0.043,7.976c-0.01,1.893 -1.553,3.419 -3.446,3.409l7.74,0.042c1.893,0.009 3.435,-1.517 3.445,-3.409l0.043,-7.976c0.01,-1.894 -1.516,-3.436 -3.409,-3.446Z" style="fill:#cc111e;fill-rule:nonzero;"/><path d="M459.169,291.06l-2.847,32.274c-0.239,2.714 1.892,5.054 4.617,5.068l60.788,0.325c2.68,0.015 4.819,-2.227 4.679,-4.903l-1.702,-32.413l-65.535,-0.351Z" style="fill:#fb0125;fill-rule:nonzero;"/><path d="M524.704,291.411l-65.535,-0.351l-0.454,5.146l44.821,0.24l8.917,0.048l12.521,0.066l-0.27,-5.149Z" style="fill:#ba041f;fill-rule:nonzero;"/><path d="M524.704,291.411l-7.74,-0.042l1.961,37.343l2.802,0.016c2.679,0.014 4.819,-2.228 4.679,-4.904l-1.702,-32.413Z" style="fill:#cc111e;fill-rule:nonzero;"/><path d="M516.964,291.369l0.27,5.15l7.74,0.041l-0.27,-5.149l-7.74,-0.042Z" style="fill:#9a0314;fill-rule:nonzero;"/><g><g><path d="M466.926,194.695c-0.006,-4.523 -3.677,-8.184 -8.198,-8.177c-1.362,0.002 -2.643,0.338 -3.771,0.927c2.57,1.378 4.319,4.088 4.323,7.209l0.015,13.988c0.004,3.159 -1.783,5.9 -4.403,7.268c1.155,0.619 2.474,0.97 3.876,0.968c4.52,-0.007 8.179,-3.676 8.174,-8.196l-0.016,-13.987Z" style="fill:#f4c08e;fill-rule:nonzero;"/><path d="M485.638,191.366c-0.006,-5.196 -4.224,-9.403 -9.42,-9.395c-1.452,0.002 -2.826,0.333 -4.053,0.922c3.304,1.456 5.613,4.756 5.617,8.598l0.018,15.554c0.004,3.741 -2.177,6.975 -5.339,8.493c1.163,0.513 2.449,0.799 3.802,0.798c5.194,-0.008 9.398,-4.224 9.392,-9.417l-0.017,-15.553Z" style="fill:#f4c08e;fill-rule:nonzero;"/><path d="M504.042,210.272l-7.814,0.006c-0.746,0.001 -1.467,-0.106 -2.152,-0.301c0.98,3.403 4.044,5.885 7.673,5.882l7.814,-0.006c0.425,0 0.841,0.042 1.245,0.117l-6.766,-5.698Z" style="fill:#f4c08e;fill-rule:nonzero;"/><path d="M529.213,197.82c0.87,1.744 1.36,3.721 1.349,5.817l-0.077,14.39c-0.007,1.251 -0.156,2.492 -0.424,3.702l-18.926,36.315l-2.51,6.307l0.125,12.143l7.616,0.041l-0.125,-12.143l17.666,-32.576c1.362,-2.511 2.084,-5.335 2.099,-8.208l0.077,-14.39c0.027,-5 -2.781,-9.333 -6.87,-11.398Z" style="fill:#f4c08e;fill-rule:nonzero;"/><path d="M510.34,231.631l6.089,-8.523c0.022,-3.93 -3.074,-7.126 -6.899,-7.123l-7.813,0.006c-0.902,0 -1.768,-0.155 -2.577,-0.437c-1.249,0.617 -2.655,0.966 -4.143,0.968c-4.501,0.007 -8.266,-3.15 -9.197,-7.372l-0.423,-0.003c-0.964,4.162 -4.69,7.268 -9.146,7.274c-4.502,0.007 -8.266,-3.15 -9.198,-7.372l-0.129,-0.001c-0.12,4.412 -3.728,7.954 -8.169,7.961c-0.034,0 -0.067,-0.002 -0.101,-0.003l-0.118,22.012c-0.044,8.204 6.571,14.889 14.775,14.934l23.428,0.125c5.575,0.03 10.203,-4.426 10.242,-10.001c0.029,-4.356 1.159,-8.683 3.379,-12.445Z" style="fill:#f4c08e;fill-rule:nonzero;"/></g><path d="M515.656,221.226c0.037,-1.205 -0.39,-2.404 -1.27,-3.298c-0.009,-0.01 -0.018,-0.019 -0.027,-0.028c-1.28,-1.285 -2.967,-1.997 -4.754,-2.006l-0.042,0l-7.814,0.006l-0.048,0c-0.882,-0.005 -1.731,-0.159 -2.524,-0.434c-1.299,0.638 -2.694,0.963 -4.147,0.966l-0.066,-0.001c-4.833,-0.026 -8.826,-3.72 -9.338,-8.423c-0.557,4.674 -4.54,8.315 -9.363,8.323l-0.066,0c-4.556,-0.025 -8.366,-3.31 -9.216,-7.628c-0.006,4.525 -3.686,8.208 -8.214,8.215l-0.057,0c-3.491,-0.019 -6.479,-2.236 -7.651,-5.33l0.004,8.175c2.168,1.513 4.795,2.409 7.625,2.425l0.088,0c3.299,-0.005 6.452,-1.228 8.887,-3.368c2.464,1.774 5.439,2.764 8.511,2.78l0.097,0c3.449,-0.005 6.706,-1.193 9.304,-3.335c2.601,2.192 5.879,3.417 9.365,3.435l0.098,0.001c1.542,-0.003 3.056,-0.244 4.513,-0.719c0.704,0.12 1.414,0.183 2.122,0.187l13.983,0.057Z" style="fill:#f7ad6b;fill-rule:nonzero;"/></g></g></g></g><g><path d="M383.132,201.067c0,-22.444 -18.222,-40.666 -40.667,-40.666l-81.333,0c-22.445,0 -40.667,18.222 -40.667,40.666l0,81.333c0,22.444 18.222,40.667 40.667,40.667l81.333,0c22.445,0 40.667,-18.223 40.667,-40.667l0,-81.333Z" style="fill:#68d8ff;"/><g><clipPath id="_clip2"><path d="M383.132,201.067c0,-22.444 -18.222,-40.666 -40.667,-40.666l-81.333,0c-22.445,0 -40.667,18.222 -40.667,40.666l0,81.333c0,22.444 18.222,40.667 40.667,40.667l81.333,0c22.445,0 40.667,-18.223 40.667,-40.667l0,-81.333Z"/></clipPath><g clip-path="url(#_clip2)"><path d="M338.781,274.001l-17.215,-11.197c-30.834,-18.73 -70.651,-16.606 -102.848,0.117l0,38.426l119.045,0l1.018,-27.346Z" style="fill:#518f60;fill-rule:nonzero;"/><path d="M321.566,262.804c-30.173,-18.328 -68.948,-19.935 -100.767,-4.325c-1.275,0.625 -2.081,1.926 -2.081,3.347l0,7.892c32.196,-16.723 72.014,-15.456 102.848,3.274l16.197,9.838l1.018,-8.829l-17.215,-11.197Z" style="fill:#457a51;fill-rule:nonzero;"/><g><path d="M273.897,269.528c1.847,6.353 1.851,10.829 1.851,10.943c-0.019,1.759 1.165,3.194 2.671,3.262c0.035,0.001 0.071,0.002 0.106,0.002c1.558,0.005 2.842,-1.454 2.866,-3.258c0.011,-0.745 0.068,-16.514 -11.808,-32.63c-2.565,-0.057 -5.132,-0.022 -7.697,0.105c7.01,7.903 10.396,16.021 12.011,21.576Z" style="fill:#3b6845;fill-rule:nonzero;"/><path d="M256.177,281.414c0.197,1.565 1.325,2.693 2.642,2.753c0.182,0.008 0.368,-0.004 0.556,-0.039c1.543,-0.282 2.611,-1.956 2.388,-3.737c-0.839,-6.683 -3.567,-18.908 -12.39,-31.078c-2.209,0.373 -4.408,0.816 -6.593,1.328c9.748,11.899 12.581,24.275 13.397,30.773Z" style="fill:#3b6845;fill-rule:nonzero;"/><path d="M295.024,273.105c1.46,7.778 0.747,13.682 0.739,13.74c-0.228,1.785 0.832,3.427 2.371,3.672c0.092,0.015 0.184,0.024 0.276,0.028c1.433,0.065 2.717,-1.14 2.935,-2.82c0.122,-0.938 2.424,-20.09 -9.349,-37.01c-3.097,-0.737 -6.226,-1.333 -9.376,-1.788c6.429,6.433 10.599,14.557 12.404,24.178Z" style="fill:#3b6845;fill-rule:nonzero;"/><path d="M234.608,284.982c0.163,1.602 1.303,2.78 2.652,2.841c0.157,0.007 0.318,-0.001 0.48,-0.025c1.548,-0.234 2.656,-1.873 2.475,-3.662c-0.512,-5.052 -2.694,-16.985 -11.881,-28.981c-1.941,0.766 -3.861,1.592 -5.758,2.478c9.437,11.271 11.56,22.681 12.032,27.349Z" style="fill:#3b6845;fill-rule:nonzero;"/><path d="M316.914,260.148c-3.44,-1.845 -6.975,-3.485 -10.586,-4.917c0.132,0.327 0.31,0.634 0.542,0.904c8.308,9.672 10.667,20.582 11.185,28.029c0.114,1.649 1.27,2.896 2.66,2.959c0.124,0.006 0.251,0.002 0.378,-0.012c1.554,-0.168 2.712,-1.76 2.588,-3.556c-0.441,-6.349 -2.052,-14.893 -6.767,-23.407Z" style="fill:#3b6845;fill-rule:nonzero;"/></g><path d="M288.613,293.346l13.453,-8.172c23.932,-14.537 54.38,-16.409 80.09,-5.258c3.231,1.401 5.338,4.569 5.338,8.091l0,29.182l-98.881,0l0,-23.843Z" style="fill:#6dc17d;fill-rule:nonzero;"/><path d="M384.331,280.896c-13.233,-6.186 -27.834,-8.842 -42.221,-8.022c12.163,0.695 24.213,3.877 35.196,9.581l0,34.734l10.188,0l0,-31.331c0,-2.128 -1.235,-4.061 -3.163,-4.962Z" style="fill:#68b76a;fill-rule:nonzero;"/><g><path d="M322.01,294.644c0.295,0.005 0.579,-0.035 0.847,-0.114c1.149,-0.34 1.996,-1.395 2.016,-2.657c0.056,-3.372 1.095,-10.125 7.33,-17.877c-2.724,0.465 -5.426,1.058 -8.095,1.777c-3.813,6.425 -4.804,12.062 -4.869,16.008c-0.025,1.556 1.215,2.838 2.771,2.863Z" style="fill:#5ea55b;fill-rule:nonzero;"/><path d="M351.541,299.147c-0.056,1.555 1.159,2.861 2.715,2.917c0.199,0.007 0.394,-0.006 0.583,-0.039c1.286,-0.222 2.285,-1.319 2.334,-2.675c0.173,-4.834 1.624,-14.403 9.387,-24.178c0.07,-0.088 0.132,-0.18 0.19,-0.274c-2.043,-0.46 -4.1,-0.847 -6.167,-1.161c-7.401,10.313 -8.856,20.23 -9.042,25.41Z" style="fill:#5ea55b;fill-rule:nonzero;"/><path d="M336.593,298.852c0.221,0.012 0.437,-0.002 0.645,-0.039c1.261,-0.224 2.248,-1.292 2.318,-2.625c0.235,-4.429 1.769,-13.211 9.398,-22.26c0.295,-0.351 0.487,-0.751 0.586,-1.169c-2.303,-0.06 -4.607,-0.031 -6.906,0.087c-6.953,9.4 -8.455,18.333 -8.705,23.043c-0.083,1.554 1.11,2.881 2.664,2.963Z" style="fill:#5ea55b;fill-rule:nonzero;"/><path d="M368.147,302.752c0.215,0.029 0.429,0.032 0.636,0.013c1.279,-0.12 2.352,-1.107 2.529,-2.435c0.559,-4.206 2.705,-12.383 10.736,-20.458c-1.865,-0.806 -3.755,-1.543 -5.665,-2.212c-7.831,8.674 -10.045,17.324 -10.657,21.927c-0.205,1.543 0.879,2.959 2.421,3.165Z" style="fill:#5ea55b;fill-rule:nonzero;"/></g><path d="M308.035,194.593l7.463,0c1.556,-2.457 4.298,-4.089 7.422,-4.089c0.777,0 1.53,0.102 2.248,0.291c1.995,-3.27 5.596,-5.453 9.708,-5.453c2.195,0 4.243,0.624 5.981,1.702c3.037,-5.219 8.74,-8.696 15.247,-8.552c9.13,0.201 16.578,7.637 16.791,16.763c0.002,0.061 0.003,0.122 0.004,0.183c0.043,3.367 -2.697,6.112 -6.066,6.112l-48.895,0l-3.504,0l-6.49,0c-1.9,0 -3.444,-1.522 -3.479,-3.413c-0.037,-1.949 1.62,-3.544 3.57,-3.544Z" style="fill:#80b6fc;fill-rule:nonzero;"/><circle cx="309.569" cy="196.742" r="20.435" style="fill:#f5de46;"/><path d="M330.234,209.009l-10.174,0c-2.122,-3.349 -5.86,-5.575 -10.12,-5.575c-1.059,0 -2.086,0.139 -3.064,0.397c-2.72,-4.458 -7.63,-7.435 -13.236,-7.435c-2.993,0 -5.786,0.851 -8.155,2.32c-4.14,-7.115 -11.916,-11.854 -20.788,-11.659c-12.446,0.274 -22.601,10.412 -22.892,22.854c-0.002,0.084 -0.004,0.168 -0.005,0.25c-0.059,4.591 3.677,8.333 8.27,8.333l80.288,0c2.59,0 4.695,-2.074 4.744,-4.652c0.049,-2.657 -2.209,-4.833 -4.868,-4.833Z" style="fill:#80b6fc;fill-rule:nonzero;"/><path d="M330.235,209.009l-10.176,0c-2.122,-3.349 -5.86,-5.575 -10.119,-5.575c-1.059,0 -2.086,0.139 -3.064,0.397c-2.721,-4.458 -7.631,-7.435 -13.236,-7.435c-2.993,0 -5.786,0.851 -8.155,2.32c-4.14,-7.115 -11.916,-11.854 -20.788,-11.659c-6.092,0.134 -11.634,2.632 -15.74,6.606c2.67,-1.147 5.59,-1.812 8.649,-1.879c7.214,-0.159 13.703,2.945 18.102,7.935c1.651,1.873 4.229,2.662 6.631,1.984c1.339,-0.377 2.75,-0.579 4.21,-0.579c4.491,0 8.534,1.909 11.364,4.961c1.262,1.361 3.049,2.08 4.904,2.076l0.032,0c3.347,0 6.371,1.374 8.543,3.587c1.225,1.248 2.874,1.988 4.622,1.988l7.129,0c2.634,0 4.873,2.134 4.867,4.758l2.348,0c2.674,0 4.831,-2.212 4.742,-4.905c-0.086,-2.576 -2.287,-4.58 -4.865,-4.58Z" style="fill:#62a4fb;fill-rule:nonzero;"/><path d="M218.718,293.982c0,-3.888 2.742,-7.235 6.554,-7.999l24.668,-4.946c19.532,-3.917 39.912,-2.332 58.432,4.543l10.987,4.078c19.871,7.378 41.128,11.171 62.589,11.171c3.063,0 5.546,2.483 5.546,5.545l0,14.165c0,1.37 -1.11,2.479 -2.479,2.479l-163.819,0c-1.368,0 -2.478,-1.109 -2.478,-2.479l0,-26.557Z" style="fill:#68b76a;fill-rule:nonzero;"/><path d="M381.948,300.829c-21.461,0 -42.718,-3.793 -62.589,-11.17l-10.987,-4.079c-13.469,-4.999 -27.922,-7.199 -42.316,-6.521c10.974,0.517 21.838,2.701 32.128,6.521l10.987,4.079c19.871,7.377 41.128,11.17 62.589,11.17c3.063,0 5.546,2.483 5.546,5.546l0,14.165c0,1.369 -1.11,2.479 -2.479,2.479l10.188,0c1.369,0 2.479,-1.11 2.479,-2.479l0,-14.165c0,-3.063 -2.483,-5.546 -5.546,-5.546Z" style="fill:#5ea55b;fill-rule:nonzero;"/></g></g></g><g><path d="M177.581,200.125c0,-22.444 -18.222,-40.666 -40.667,-40.666l-81.333,0c-22.444,0 -40.666,18.222 -40.666,40.666l0,81.333c0,22.444 18.222,40.667 40.666,40.667l81.333,0c22.445,0 40.667,-18.223 40.667,-40.667l0,-81.333Z" style="fill:#68d8ff;"/><g><clipPath id="_clip3"><path d="M177.581,200.125c0,-22.444 -18.222,-40.666 -40.667,-40.666l-81.333,0c-22.444,0 -40.666,18.222 -40.666,40.666l0,81.333c0,22.444 18.222,40.667 40.666,40.667l81.333,0c22.445,0 40.667,-18.223 40.667,-40.667l0,-81.333Z"/></clipPath><g clip-path="url(#_clip3)"><path d="M79.738,311.367l-12.302,-2.572l-7.118,7.518l-24.264,-19.529l16.182,-11.262l17.207,-19.201c2.884,-3.218 7.981,-2.754 10.26,0.936l20.386,23.84c3.08,3.604 2.209,9.173 -1.82,11.62l-12.01,7.293c-2.097,1.292 -4.093,1.403 -6.521,1.357Z" style="fill:#fee6cf;fill-rule:nonzero;"/><path d="M100.089,291.097l-4.975,-5.817l-20.744,12.605c-2.097,1.293 -4.093,1.403 -6.522,1.357l-10.774,-1.183l-9.307,8.152l12.552,10.102l7.117,-7.519l12.302,2.573c2.428,0.044 4.426,-0.065 6.521,-1.357l12.01,-7.293c4.029,-2.447 4.9,-8.016 1.82,-11.62Z" style="fill:#eed5bc;fill-rule:nonzero;"/><path d="M99.49,291.606c-2.402,-3.798 -5.328,-1.877 -7.73,-5.676c-2.402,-3.798 0.524,-5.722 -1.877,-9.52c-2.404,-3.8 -5.328,-1.876 -7.73,-5.676c-2.403,-3.801 0.523,-5.724 -1.88,-9.524c-1.469,-2.322 -4.128,-7.116 -5.748,-7.775l-12.964,6.531l22.56,36.283c2.201,3.482 6.754,4.486 10.169,2.24l4.317,-2.837c1.318,-0.868 1.747,-2.665 0.902,-4.014c-0.007,-0.011 -0.012,-0.021 -0.019,-0.032Z" style="fill:#344a5c;fill-rule:nonzero;"/><path d="M62.198,265.583l-10.184,6.408c-1.932,1.215 -4.466,0.603 -5.659,-1.367l-5.757,-9.515c-1.193,-1.97 -0.592,-4.554 1.34,-5.77l10.184,-6.408c1.196,-0.752 2.764,-0.374 3.503,0.846l7.402,12.235c0.739,1.219 0.367,2.818 -0.829,3.571Z" style="fill:#344a5c;fill-rule:nonzero;"/><path d="M68.447,231.59l-20.671,13.007c-2.722,1.711 -3.566,5.348 -1.888,8.122l10.194,16.847c1.679,2.774 5.244,3.635 7.966,1.923l20.671,-13.005l65.384,-14.514l-39.608,-65.46l-42.048,53.08Z" style="fill:#fdcf66;fill-rule:nonzero;"/><path d="M140.771,228.547l-65.047,15.071c0,0 -22.396,14.09 -25.598,16.106l5.956,9.842c1.678,2.774 5.244,3.635 7.964,1.923l20.673,-13.005l65.384,-14.514l-9.332,-15.423Z" style="fill:#f4b455;fill-rule:nonzero;"/><path d="M84.719,258.484l-20.673,13.005c-2.72,1.712 -6.286,0.851 -7.964,-1.923l-10.194,-16.847c-1.679,-2.774 -0.834,-6.411 1.886,-8.122l20.673,-13.007l16.272,26.894Z" style="fill:#fc705b;fill-rule:nonzero;"/><path d="M75.724,243.618c0,0 -22.396,14.09 -25.598,16.106l5.956,9.842c1.678,2.774 5.244,3.635 7.964,1.923l10.336,-6.503l10.337,-6.502l-8.995,-14.866Z" style="fill:#d73d39;fill-rule:nonzero;"/><path d="M154.025,248.621l-2.821,1.776c-1.463,0.919 -3.38,0.456 -4.282,-1.035l-42.581,-70.371c-0.903,-1.492 -0.449,-3.446 1.015,-4.367l2.821,-1.775c1.463,-0.921 3.38,-0.458 4.282,1.035l42.581,70.37c0.903,1.491 0.448,3.447 -1.015,4.367Z" style="fill:#fc705b;fill-rule:nonzero;"/><path d="M155.04,244.254l-7.005,-11.578l-8.119,5.109l7.006,11.577c0.902,1.491 2.819,1.954 4.282,1.035l2.821,-1.776c1.463,-0.92 1.918,-2.876 1.015,-4.367Z" style="fill:#d73d39;fill-rule:nonzero;"/><path d="M93.074,301.187c1.538,2.568 4.828,3.379 7.348,1.809l7.79,-4.856c2.517,-1.569 3.312,-4.922 1.773,-7.49c-1.538,-2.568 -4.829,-3.379 -7.347,-1.809l-7.791,4.856c-2.517,1.569 -3.311,4.922 -1.773,7.49Z" style="fill:#fee6cf;fill-rule:nonzero;"/><path d="M109.985,290.65c-0.631,-1.053 -1.558,-1.804 -2.603,-2.223c0.274,2.075 -0.642,4.217 -2.507,5.38l-7.791,4.856c-1.487,0.926 -3.238,1.017 -4.743,0.415c0.095,0.726 0.334,1.444 0.733,2.11c1.538,2.568 4.828,3.378 7.348,1.808l7.79,-4.856c2.517,-1.569 3.31,-4.922 1.773,-7.49Z" style="fill:#eed5bc;fill-rule:nonzero;"/><path d="M89.737,290.463c1.562,2.608 4.902,3.43 7.458,1.836l7.652,-4.769c2.556,-1.593 3.362,-4.996 1.802,-7.603c-1.562,-2.607 -4.902,-3.43 -7.459,-1.836l-7.653,4.77c-2.555,1.592 -3.361,4.996 -1.8,7.602Z" style="fill:#fee6cf;fill-rule:nonzero;"/><path d="M106.649,279.927c-0.623,-1.038 -1.528,-1.788 -2.554,-2.221c0.261,2.094 -0.668,4.245 -2.548,5.417l-7.653,4.77c-1.538,0.959 -3.358,1.038 -4.906,0.385c0.093,0.752 0.336,1.496 0.749,2.185c1.562,2.608 4.902,3.43 7.458,1.836l7.652,-4.769c2.556,-1.593 3.362,-4.996 1.802,-7.603Z" style="fill:#eed5bc;fill-rule:nonzero;"/><path d="M84.033,281.084c1.561,2.608 4.902,3.431 7.458,1.837l7.653,-4.77c2.556,-1.593 3.361,-4.996 1.8,-7.602c-1.561,-2.609 -4.901,-3.431 -7.458,-1.837l-7.653,4.77c-2.556,1.592 -3.362,4.996 -1.8,7.602Z" style="fill:#fee6cf;fill-rule:nonzero;"/><path d="M100.944,270.549c-0.609,-1.017 -1.49,-1.759 -2.489,-2.196c0.226,2.067 -0.702,4.178 -2.557,5.335l-7.652,4.77c-1.561,0.972 -3.409,1.04 -4.97,0.359c0.085,0.779 0.328,1.553 0.756,2.266c1.562,2.609 4.901,3.431 7.459,1.837l7.653,-4.769c2.556,-1.593 3.361,-4.996 1.8,-7.602Z" style="fill:#eed5bc;fill-rule:nonzero;"/><path d="M78.656,271.466c1.561,2.607 4.901,3.429 7.458,1.835l7.653,-4.769c2.556,-1.593 3.362,-4.996 1.8,-7.603c-1.561,-2.608 -4.902,-3.43 -7.458,-1.836l-7.653,4.77c-2.556,1.592 -3.361,4.996 -1.8,7.603Z" style="fill:#fee6cf;fill-rule:nonzero;"/><path d="M95.567,260.929c-0.718,-1.2 -1.814,-2.016 -3.037,-2.399c0.467,2.232 -0.454,4.616 -2.471,5.874l-7.653,4.77c-1.38,0.86 -2.988,1.011 -4.421,0.561c0.125,0.596 0.343,1.182 0.671,1.731c1.561,2.607 4.901,3.429 7.458,1.835l7.653,-4.769c2.556,-1.593 3.362,-4.996 1.8,-7.603Z" style="fill:#eed5bc;fill-rule:nonzero;"/><path d="M90.137,278.158l-1.419,0.883c-2.234,1.393 -5.12,0.725 -6.449,-1.489l-2.351,-3.921c-1.151,-1.918 -3.656,-2.489 -5.582,-1.27c-1.933,14.47 -22.1,13.161 -22.1,13.161l12.497,-19.192c0.824,-1.455 1.995,-2.684 3.404,-3.576l7.053,-4.46c3.428,-2.167 7.885,-1.155 9.937,2.259l6.647,11.062c1.332,2.219 0.599,5.149 -1.637,6.543Z" style="fill:#fee6cf;fill-rule:nonzero;"/><path d="M91.773,271.617l-0.054,-0.092c-0.385,0.631 -0.915,1.185 -1.582,1.601l-1.42,0.885c-2.233,1.391 -5.119,0.725 -6.448,-1.491l-2.351,-3.919c-1.151,-1.92 -3.656,-2.489 -5.582,-1.272c-0.811,6.069 -4.449,11.884 -8.511,15.868c4.109,-1.84 7.744,-5.097 8.511,-10.836c1.926,-1.219 4.431,-0.648 5.582,1.27l2.351,3.921c1.329,2.214 4.215,2.882 6.448,1.491l1.42,-0.885c2.236,-1.394 2.969,-4.324 1.636,-6.541Z" style="fill:#eed5bc;fill-rule:nonzero;"/><path d="M60.709,316.786l-19.878,-24.087l6.546,-5.616c0.206,-0.177 0.515,-0.149 0.689,0.06l19.248,23.325c0.173,0.21 0.146,0.525 -0.06,0.703l-6.545,5.615Z" style="fill:#cdd6de;fill-rule:nonzero;"/><path d="M67.313,310.468l-10.239,-12.409l-6.92,5.938l10.555,12.79l6.544,-5.616c0.207,-0.178 0.234,-0.493 0.06,-0.703Z" style="fill:#95a3aa;fill-rule:nonzero;"/><path d="M142.711,203.821c-0.792,0 -1.566,-0.407 -2.012,-1.145c-0.682,-1.133 -0.336,-2.614 0.774,-3.31l12.786,-8.02c1.11,-0.697 2.563,-0.343 3.244,0.788c0.683,1.131 0.337,2.613 -0.772,3.309l-12.786,8.02c-0.386,0.243 -0.812,0.358 -1.234,0.358Z" style="fill:#dbd8d0;fill-rule:nonzero;"/><path d="M172.182,223.458c-0.076,0 -0.153,-0.004 -0.231,-0.012l-18.746,-1.858c-1.296,-0.128 -2.245,-1.303 -2.119,-2.626c0.126,-1.321 1.28,-2.292 2.576,-2.161l18.746,1.857c1.296,0.128 2.245,1.305 2.12,2.627c-0.119,1.243 -1.146,2.173 -2.346,2.173Z" style="fill:#dbd8d0;fill-rule:nonzero;"/><path d="M131.982,186.042c-0.284,0 -0.574,-0.054 -0.855,-0.165c-1.214,-0.481 -1.814,-1.876 -1.342,-3.113l6.828,-17.899c0.472,-1.238 1.839,-1.849 3.053,-1.369c1.214,0.481 1.816,1.875 1.343,3.113l-6.827,17.898c-0.364,0.952 -1.255,1.535 -2.2,1.535Z" style="fill:#dbd8d0;fill-rule:nonzero;"/><path d="M62.128,316.561l-21.484,-25.699c-0.171,-0.204 -0.466,-0.245 -0.685,-0.093l-22.881,18.418c-0.764,0.615 -1.211,1.554 -1.211,2.548l0,7.493c0,1.792 1.425,3.245 3.184,3.245l37.429,0c0.964,0 1.877,-0.446 2.482,-1.212l3.144,-3.991c0.185,-0.195 0.194,-0.502 0.022,-0.709Z" style="fill:#3c5566;fill-rule:nonzero;"/><path d="M62.128,316.561l-10.187,-12.186l-14.998,18.098l19.537,0c0.964,0 1.877,-0.446 2.482,-1.212l3.144,-3.991c0.185,-0.195 0.194,-0.502 0.022,-0.709Z" style="fill:#194451;fill-rule:nonzero;"/></g></g></g></g><g><path d="M106.683,64.022c2.686,-1.2 4.802,-2.858 6.345,-4.972c1.543,-2.115 2.314,-4.629 2.314,-7.544c0,-3.43 -0.914,-6.273 -2.743,-8.53c-1.829,-2.258 -4.344,-3.944 -7.544,-5.058c-3.201,-1.115 -6.859,-1.672 -10.974,-1.672l-22.119,0l0,60.011l23.49,0c7.145,0 12.818,-1.329 17.018,-3.987c4.201,-2.657 6.302,-6.958 6.302,-12.902c0,-4.058 -1.158,-7.344 -3.473,-9.859c-2.314,-2.514 -5.187,-4.344 -8.616,-5.487Zm-20.232,6.173l7.458,0c2.801,0 5.144,0.543 7.03,1.629c1.886,1.086 2.83,2.943 2.83,5.573c0,2.857 -0.944,4.829 -2.83,5.915c-1.886,1.085 -4.229,1.629 -7.03,1.629l-7.458,0l0,-14.746Zm0,-10.117l0,-12.516l6.001,0c2.515,0 4.458,0.514 5.83,1.543c1.371,1.029 2.057,2.543 2.057,4.544c0,2 -0.686,3.572 -2.057,4.715c-1.372,1.143 -3.315,1.714 -5.83,1.714l-6.001,0Z" style="fill:#fff;fill-rule:nonzero;"/><path d="M142.862,70.538l24.261,0l0,-11.66l-24.261,0l0,-10.63l25.976,0l0,-12.002l-25.976,0l-4.372,0l-9.603,0l0,60.011l39.951,0l0,-12.002l-25.976,0l0,-13.717Z" style="fill:#fff;fill-rule:nonzero;"/><path d="M195.072,75.51l4.458,0l12.859,20.747l17.06,0l-15.603,-22.633c3.944,-1.486 6.93,-3.772 8.959,-6.858c2.03,-3.086 3.044,-6.716 3.044,-10.888c0,-5.83 -1.972,-10.559 -5.916,-14.188c-3.943,-3.63 -9.744,-5.444 -17.403,-5.444l-7.458,0l-5.402,0l-9.087,0l0,60.011l14.489,0l0,-20.747Zm0,-11.316l0,-15.603l6.343,0c2.915,0 5.202,0.671 6.859,2.014c1.658,1.343 2.486,3.272 2.486,5.788c0,2.457 -0.828,4.372 -2.486,5.743c-1.657,1.372 -3.944,2.058 -6.859,2.058l-6.343,0Z" style="fill:#fff;fill-rule:nonzero;"/><path d="M236.051,36.246l0,60.011l38.578,0l0,-12.517l-24.09,0l0,-47.494l-14.488,0Z" style="fill:#fff;fill-rule:nonzero;"/><rect x="281.316" y="36.246" width="14.746" height="60.011" style="fill:#fff;"/><path d="M350.158,36.246l0,33.091l-41.408,-36.092l0,63.012l13.975,0l0,-33.092l41.407,36.093l0,-63.012l-13.974,0Z" style="fill:#fff;fill-rule:nonzero;"/></g></svg>