<?xml version="1.0" encoding="UTF-8" standalone="no"?><!DOCTYPE svg PUBLIC "-//W3C//DTD SVG 1.1//EN" "http://www.w3.org/Graphics/SVG/1.1/DTD/svg11.dtd"><svg width="100%" height="100%" viewBox="0 0 504 504" version="1.1" xmlns="http://www.w3.org/2000/svg" xmlns:xlink="http://www.w3.org/1999/xlink" xml:space="preserve" xmlns:serif="http://www.serif.com/" style="fill-rule:evenodd;clip-rule:evenodd;stroke-linecap:round;stroke-linejoin:round;stroke-miterlimit:1.5;"><g><rect x="138.627" y="28.973" width="230.121" height="459.752" style="fill:#303030;stroke:#777;stroke-width:1px;"/><path d="M337.324,0l-170.132,0c-28.924,0 -53.5,23.584 -53.5,52.5l0,398.664c0,28.916 24.056,52.44 52.98,52.44l170.412,-0.184c28.92,0 52.58,-23.528 52.58,-52.448l0.248,-398.5c-0.004,-29.02 -23.548,-52.472 -52.588,-52.472Zm-109.644,31.476l49.36,0c4.336,0 7.868,3.52 7.868,7.868c0,4.348 -3.532,7.868 -7.868,7.868l-49.36,0c-4.348,0 -7.868,-3.52 -7.868,-7.868c0,-4.348 3.52,-7.868 7.868,-7.868Zm-29.66,2.504c2.916,-2.912 8.224,-2.952 11.136,0c1.46,1.456 2.324,3.5 2.324,5.588c0,2.048 -0.864,4.088 -2.324,5.548c-1.452,1.46 -3.504,2.32 -5.548,2.32c-2.084,0 -4.088,-0.86 -5.588,-2.32c-1.452,-1.456 -2.28,-3.5 -2.28,-5.548c-0.004,-2.088 0.828,-4.132 2.28,-5.588Zm52.752,454.028c-12.984,0 -23.544,-10.568 -23.544,-23.548c0,-12.984 10.56,-23.548 23.544,-23.548c12.984,0 23.544,10.564 23.544,23.548c0,12.98 -10.564,23.548 -23.544,23.548Zm114.716,-63.1l-224.256,0l0,-350.152l224.256,0l0,350.152Z" style="fill-rule:nonzero;"/><path d="M234.61,119.33c0,-10.356 -8.408,-18.764 -18.764,-18.764l-37.529,0c-10.356,0 -18.764,8.408 -18.764,18.764l0,37.529c0,10.356 8.408,18.764 18.764,18.764l37.529,0c10.356,0 18.764,-8.408 18.764,-18.764l0,-37.529Z" style="fill:#1f8e3f;"/><path d="M234.61,119.33c0,-10.356 -8.408,-18.764 -18.764,-18.764l-37.529,0c-10.356,0 -18.764,8.408 -18.764,18.764l0,37.529c0,10.356 8.408,18.764 18.764,18.764l37.529,0c10.356,0 18.764,-8.408 18.764,-18.764l0,-37.529Z" style="fill:#1f8e3f;"/><path d="M344.396,119.941c0,-10.356 -8.408,-18.764 -18.765,-18.764l-37.528,0c-10.356,0 -18.764,8.408 -18.764,18.764l0,37.529c0,10.356 8.408,18.764 18.764,18.764l37.528,0c10.357,0 18.765,-8.408 18.765,-18.764l0,-37.529Z" style="fill:#1f8e3f;"/><path d="M235.174,219.608c0,-10.356 -8.408,-18.764 -18.764,-18.764l-37.529,0c-10.356,0 -18.764,8.408 -18.764,18.764l0,37.528c0,10.356 8.408,18.764 18.764,18.764l37.529,0c10.356,0 18.764,-8.408 18.764,-18.764l0,-37.528Z" style="fill:#1f8e3f;"/><path d="M345.057,217.399c0,-10.356 -8.408,-18.764 -18.765,-18.764l-37.528,0c-10.356,0 -18.764,8.408 -18.764,18.764l0,37.529c0,10.356 8.408,18.764 18.764,18.764l37.528,0c10.357,0 18.765,-8.408 18.765,-18.764l0,-37.529Z" style="fill:#1f8e3f;"/><path d="M198.589,187.008l8.354,24.36l-53.363,-18.922l26.35,-51.438l7.596,23.978c41.551,-16.82 88.592,-14.459 130.56,4.26l13.649,-23.227l16.437,54.223l-52.673,13.27l11.638,-24.474c-45.406,-16.767 -68.837,-20.463 -108.548,-2.03Z" style="fill:#fff;"/></g><g><path d="M370.058,235.297c-10.761,6.286 -14.389,20.107 -8.103,30.869l-7.588,-12.991c-6.287,-10.762 -20.107,-14.39 -30.869,-8.103c-10.762,6.286 -14.39,20.106 -8.103,30.868l-7.588,-12.99c-6.287,-10.762 -20.107,-14.39 -30.869,-8.104c-10.762,6.286 -14.39,20.107 -8.103,30.868l-37.942,-64.953c-6.286,-10.762 -20.107,-14.39 -30.868,-8.104c-10.762,6.287 -14.39,20.107 -8.104,30.869l94.854,162.383l-58.277,3.795c-5.826,0.379 -11.485,2.109 -16.527,5.054c-10.116,5.909 -13.527,18.9 -7.617,29.016l0.045,0.078c2.835,4.878 7.497,8.425 12.954,9.857l133.063,34.931c27.948,7.322 57.659,3.241 82.597,-11.345c43.047,-25.146 57.559,-80.427 32.414,-123.474l-64.5,-110.42c-6.287,-10.762 -20.106,-14.391 -30.869,-8.104Z" style="fill:#ffcc80;fill-rule:nonzero;"/><g><path d="M266.907,267.501l42.57,72.877c2.096,3.587 0.886,8.194 -2.701,10.29l-37.941,-64.954c-3.251,-5.505 -3.954,-12.15 -1.928,-18.213Z" style="fill:#ffb74d;fill-rule:nonzero;"/><path d="M313.467,257.726l34.982,59.887c2.096,3.587 0.886,8.195 -2.701,10.29l-30.353,-51.963c-3.251,-5.506 -3.953,-12.15 -1.928,-18.214Z" style="fill:#ffb74d;fill-rule:nonzero;"/><path d="M360.027,247.952l27.394,46.896c2.095,3.587 0.886,8.194 -2.701,10.289l-22.765,-38.971c-3.25,-5.506 -3.953,-12.151 -1.928,-18.214Z" style="fill:#ffb74d;fill-rule:nonzero;"/></g></g></svg>