<svg height="100%" viewBox="0 0 700 192" xmlns="http://www.w3.org/2000/svg">
  <g style="fill: rgb(81, 149, 90);">
    <path d="m159.62 146.208-28.107-87.835a40.264 40.264 0 0 1 -17.825 17.491l-13.488 42.151 13.7 42.822a8.079 8.079 0 0 0 10.057 5.181l7.482-2.394 8.969 26.906 15.178-5.06-8.907-26.723 7.756-2.481a8 8 0 0 0 5.185-10.058z"/><path d="m96 80a40.031 40.031 0 0 1 -35.512-21.626l-28.107 87.834a7.987 7.987 0 0 0 -.286 3.665l5.486 35.354a8.072 8.072 0 0 0 13.629 4.361l24.992-25.6a8 8 0 0 0 1.895-3.15l26.142-81.695a39.953 39.953 0 0 1 -8.239.857z"/><path d="m96 72a32 32 0 0 0 8-62.987v-9.013h-16v9.013a32 32 0 0 0 8 62.987zm0-40a8 8 0 1 1 -8 8 8 8 0 0 1 8-8z"/>
  </g>
  <text x="200" y="110" style="font-weight: 200; alignment-baseline: middle; font-family: 'Helvetica Neue', 'Helvetica', sans-serif; font-size: 160px; fill: rgb(81, 149, 90);">
    Toolpic
  </text>
</svg>
