<?xml version="1.0" encoding="utf-8"?>
<!-- Generator: Adobe Illustrator 23.0.6, SVG Export Plug-In . SVG Version: 6.00 Build 0)  -->
<svg version="1.1" id="Layer_1" xmlns:serif="http://www.serif.com/"
	 xmlns="http://www.w3.org/2000/svg" xmlns:xlink="http://www.w3.org/1999/xlink" x="0px" y="0px" viewBox="0 0 1024 768"
	 style="enable-background:new 0 0 1024 768;" xml:space="preserve">
<style type="text/css">
	.st0{fill-rule:evenodd;clip-rule:evenodd;fill:#1B7340;}
	.st1{opacity:0.5;}
	.st2{fill-rule:evenodd;clip-rule:evenodd;fill:#91D2EB;}
	.st3{fill:#91D2EB;}
	.st4{fill-rule:evenodd;clip-rule:evenodd;fill:#FFFFFF;}
</style>
<g transform="matrix(1.01552,0,0,1.01552,-10.4209,-10.4209)">
	<g transform="matrix(1.14362,0.19878,-0.19878,1.14362,12.5114,-182.291)">
		<circle class="st0" cx="510.8" cy="410.8" r="324.9"/>
	</g>
	<g transform="matrix(1.45551,0,0,1.45551,294.26,294.143)" class="st1">
		<path class="st2" d="M289.9,138.5c0.1-0.1,0.3-0.1,0.3-0.2c3.4-6.4,6.3-13,8.7-19.7c0.3-0.9,0-1.2-1-0.9c-1.5,0.4-2.8,1.1-4,2.1
			c-2.3,1.8-3.6,4.4-4.7,7C287.4,130.6,287.4,134.6,289.9,138.5z M28.4-31.1c0.5,0.5,1,0.6,1.5,0.6c1.5,0.1,2.7,0.7,3.7,2
			c0.8,1,1.8,2.3,3.1,2.7c3.2,0.9,6.3-0.2,6.7-4c0.2-2.1,1.1-3.6,3.3-3.9c1-0.1,1.1-0.7,1.1-1.5C47.7-36.7,47-38,46-39.1
			c-1.1-1.2-1.9-2.5-2.5-4c-0.5-1.1-0.8-2.3-1.1-3.8C37.4-41.8,32.6-36.7,28.4-31.1z M306.8,87.2c-1.8,0.6-3.5,0.6-5.1,0.9
			c-2.4,0.5-4.5-0.6-5.8-2.7c-1.9-3.1-2.9-6.7-4.6-9.9c-0.3-0.6-0.5-1.1-1.2-1.3c-2-0.5-2.6-2-2.8-3.8c-0.2-1.7-0.3-3.5-0.6-5.2
			c-0.4-2.8-1.3-5.4-3.7-7.2c-0.5-0.4-1-0.9-1.4-1.5c-0.6-1-1.6-1.4-2.7-1.5c-1.1-0.2-1.4,0.1-1.6,1.2c-0.1,0.5-0.1,1,0.1,1.4
			c0.6,1.2,1.2,2.5,1.9,3.7c1,1.5,2.1,2.9,3.1,4.4c0.4,0.6,0.8,1.2,0.9,1.9c0.2,1.2,0.8,2.1,1.5,3.1c0.7,0.9,1.1,2,1.7,3
			c1.5,2.8,2.2,6,3.9,8.8c1,1.7,1.3,3.8,1.9,5.7c0.8,2.8,2.7,4.7,5.5,5.2c2.4,0.4,4.8,0.1,7.2-0.2c0.6-0.1,0.9-0.3,0.9-0.9
			C306.2,90.8,306.5,89.1,306.8,87.2z M93.4-44.1c-2,0-2.9-0.7-3.4-2.5c-0.1-0.5-0.2-1-0.2-1.4c-0.1-0.9,0-1.8,0.1-2.7
			c0.2-1.6-0.2-2.1-1.8-2.2c-1.1-0.1-1.9,0.3-2.6,1c-1.5,1.3-3,2.6-4.8,3.6c-1,0.6-1.9,0.8-3,0.1c-1.1-0.7-1.5-0.5-2.1,0.7
			c-0.4,0.8-0.9,1.6-1.8,1.9c-1.8,0.8-2.9,2.3-4,3.9c-0.7,1-0.6,1.3,0.5,1.8c2,1.1,5.6,0.7,7.3-0.9c1.2-1,2.3-2.1,3.6-3.1
			c1.4-1.2,3-1.1,4.6-0.2c1.9,1.2,2.6,3,2.5,5.1c0,1.1,0.1,1.9,1.4,2.4c1.9,0.7,3.1,3.2,2.7,5c-0.6,2.3-2.3,3.3-4.9,3
			c-0.2,0-0.4-0.1-0.5-0.1c-1.2-0.2-2,0.3-2.5,1.3c-0.4,0.9-0.7,1.9-1.1,2.9c-0.3,0.8,0.1,1,0.7,1c0.9,0,1.8,0,2.6,0.5
			c1.5,0.9,3,1.6,3.9,3.2c0.2,0.4,0.5,0.7,0.8,1c0.9,0.8,1.6,0.8,2.3-0.2c0.7-0.9,1-1.9,1-3.1c0-1.1,0.2-2,1-2.8
			c0.6-0.6,0.8-1.3,0.9-2.1c0.1-0.7,0.2-1.4,0.3-2.2c0.3-1.7,1.1-2.4,2.8-2.6c0.5,0,1.1-0.1,1.6,0.1c0.8,0.3,1.2-0.2,1.5-0.6
			c0.7-0.9,0.6-2.4-0.1-3.4c-1.9-2.5-3.4-5.2-3.5-8.4c0-0.9-0.5-1.2-1.3-1.1c-0.7,0.1-1.3,0.3-1.9,0.5C94.9-44.3,94.1-44,93.4-44.1z
			 M119.6-47.6c2.3,1.1,2.9,2.4,2,4.7c-0.8,2.1-1.7,4.1-2.9,6.1c-1,1.7-1.4,3.5-0.7,5.4c0.6,1.7,1.6,3.2,3,4.5
			c1.8,1.7,3.6,3.2,5.6,4.6c1.5,1.1,3.1,1.6,4.8,1.9c1.2,0.2,2.1-0.2,2.6-1.2c1.1-2.2,2.2-4.3,2.3-6.8c0.1-2,0.4-4,0.8-5.9
			c0.5-2.2,1.8-3.5,4.2-3.6c0.5,0,1.1-0.1,1.6-0.2c3-0.2,4-1.1,4.4-4c0-0.2,0-0.5,0.1-0.7c0.2-1.7,0.9-3.1,2.7-3.8
			c0.6-0.2,1-0.6,1.5-1c0.9-0.6,1.7-1.1,2.7-1.4c3.4-1.2,6.9-2.2,10.5-2.6c0.7-0.1,1.4-0.1,1.3-1.1c0-1-0.8-1-1.4-1
			c-0.5-0.1-1,0-1.5,0c-1.2,0-2.3,0.1-3.5-0.1c-3.2-0.4-4.5-1.8-5.3-4.9c-0.4-1.6,0.3-3.1,1.8-3.8c1.4-0.7,2.7-1.3,4.3-1.2
			c1.4,0.1,2.7-0.4,4-1.1c0.8-0.5,1.4-1,1.6-2.1c0.1-0.9,0.5-1.7,0.8-2.6c0.6-1.6,0.8-3.3,0.7-5c-0.1-1.4-0.4-1.9-1.8-1.9
			c-1.9,0-2.9-1.2-3.4-2.8c-0.5-1.5-0.6-3-0.1-4.5c0.3-1,0.4-2,0.6-3c0.1-0.6,0.1-1.1-0.3-1.5c-0.9-0.7-0.9-1.5-0.5-2.6
			c-24.4-1.5-47.8,2.3-70.4,11.5c0.6,0.5,1.4,0.8,1.3,1.4c0,1.6,0.7,3.1,0.9,4.6c0.3,2.4,0.7,4.8,1.5,7.1c0.5,1.6,1.5,1.9,2.9,1
			c0.3-0.2,0.7-0.5,1-0.8c0.9-0.9,1.9-1.7,2.8-2.6c0.5-0.5,1-0.9,1.7-1c2.2-0.3,4.3-0.6,6.5-0.6c1.8,0,3.2,1,3.2,2.8
			c0,1.9,1.2,2.6,2.5,3.4c0.4,0.2,0.9,0.4,1.3,0.6c1,0.5,1.5,1.3,1.8,2.4c0.4,1.6,0.3,3-0.7,4.3c-0.2,0.3-0.4,0.7-0.6,1.1
			c-0.3,0.7-0.3,1.2,0.6,1.2c0.5,0,1,0.2,1.4,0.3c1.1,0.3,1.9,1,2.1,2.2c0.2,1.2-0.2,2.1-1.1,2.9C120.5-48.6,120-48.3,119.6-47.6z
			 M280.7,34.8c0.7,2,1.2,4.1,0.5,6.2c-0.1,0.3-0.1,0.7-0.1,1.1c0.1,0.9-0.3,1.6-0.9,2.1c-0.8,0.7-1.2,1.5-1.2,2.5
			c0,0.6-0.1,1.3-0.7,1.6c-1.1,0.4-2,1.2-3.2,1.2c-3.9,0.1-7.9,0.3-11.8,0.1c-2.2-0.1-4.5-0.4-5.9-2.6c-0.1-0.2-0.3-0.3-0.6-0.4
			c-2.5-0.6-3.5,0-3.8,2.6c-0.4,2.8-2.3,4-5.1,3.3c-0.9-0.2-1.8-0.6-2.8-0.7c-2.6-0.3-3.5-1.3-3.8-3.9c-0.1-0.7-0.3-0.9-1-0.8
			c-1.8,0.3-3.5-0.1-5.3-0.1c-1.1,0-2.2-0.3-3-1.2c-1.1-1.4-2.2-3-2.7-4.7c-0.3-1.1-0.7-1.3-1.7-1.3c-3,0.1-6,0.6-9.1,0.3
			c-1.3-0.1-2.3,0.1-3.2,1.3c-0.6,0.8-1.5,1.2-2.5,1.4c-0.7,0.2-1.4,0.3-2.1,0.4c-1.9,0.3-3.8,0.8-5.6,1.6c-3.1,1.3-4.7,4.1-6.3,6.8
			c-0.3,0.5-0.2,1.1-0.2,1.6c0.1,2.5-0.4,4.9-1.6,7.2c-0.4,0.7-0.8,1.2-1.7,1.1c-0.7-0.1-1.3,0.2-1.8,0.7c-2.2,2.4-4.3,4.7-6,7.5
			c-0.3,0.6-0.5,1.2-0.7,1.9c-0.4,1.7-0.7,3.5-0.7,5.2c0,4.2,0,8.4,0,12.6c0,1.5,0.2,2.9,0.5,4.3c0.4,2,1,4,2.3,5.5
			c2.7,3.3,4.9,7.1,7.9,10.2c1.4,1.4,2.8,2.4,4.9,2.4c2.4,0,4.8-0.3,7.3-0.1c0.9,0.1,2.1,0,2.9-0.7c2.5-1.9,5.1-3.6,8.1-4.8
			c1.3-0.5,2.4-0.7,3.6-0.1c2.8,1.5,5.9,2.2,8.8,3.4c1.4,0.6,2.7,1.1,3.5,2.6c1.7-2.8,3.5-5.4,5.3-8c3.1-4.4,6.5-8.7,9.3-13.2
			c5.6-8.9,10.3-18.3,15.3-27.5c0.5-1,1.1-1.9,1.8-2.8c0.2-0.3,0.4-0.8,1.1-0.5c-0.6,0.8-1.2,1.5-1.6,2.4c-1.6,3.3-3.3,6.5-4.9,9.8
			c-4,8.4-8.5,16.5-14.1,24c-2.3,3.1-4.5,6.2-6.8,9.3c-1.6,2.2-3.1,4.4-4.4,6.7c-0.3,0.5-0.8,1-0.3,1.7c0.8,1.2,0.7,2.5,0.8,3.9
			c0.1,2.7-0.5,5.3-0.3,8c0.1,1.5,0.5,2.7,1.9,3.5c1.4,0.8,2.2,2,2.5,3.6c0.8,3.4,1.3,6.8,1.7,10.2c0.3,2.3,0.2,4.7-0.8,6.8
			c-1.3,2.8-2.5,5.5-3.7,8.3c-1.3,2.8-1.6,5.6-1.5,8.5c0.1,2.7,0.4,5.3,1.2,7.9c0.3,1,0.5,2.1,0.6,3.2c0.2,3.8,1.1,7.4,1.9,11.1
			c0.3,1.5,0.7,3,1.2,4.7c19.5-14,35-31.2,46.6-52c-2-1.2-2.2-1.7-3.1-3.8c-1.4-3-1-6.1-0.4-9.1c0.5-2.5,2-4.5,3.1-6.7
			c1-1.9,2.4-3.5,4.2-4.7c2-1.4,4.1-2.7,6.7-2.4c1,0.1,1.4-0.2,1.6-1.1c1.3-4.2,2.5-8.5,3.5-12.8c0.3-1.2,0.7-2.3,0.7-3.6
			c-1-0.1-2,0-2.9,0c-1.3,0-2.7,0.2-4,0c-3.5-0.4-6.3-1.9-7.9-5.3c-0.4-0.8-0.7-1.7-1-2.5c-0.7-2.5-1.2-5.2-2.8-7.4
			c-0.3-0.4-0.4-1-0.6-1.5c-0.7-2.6-2-4.9-3.3-7.3c-0.7-1.4-1.8-2.6-2-4.2c-0.1-0.6-0.5-1.1-0.9-1.6c-0.8-0.9-1.5-2-2.2-3
			c-1.1-1.5-1.7-3.2-2.7-4.7c-1.3-2.2-0.4-4.3,0.7-6.3c0.3-0.6,0.9-0.8,1.5-0.9c2.8-0.2,5.5,0.2,7.3,2.7c0.3,0.4,0.6,0.7,1,1
			c2.1,1.6,3.3,3.8,4.1,6.3c0.8,2.4,0.8,4.9,1,7.4c0.1,1.2,0.3,2,1.5,2.3c0.6,0.1,1.2,0.6,1.5,1.2c0.9,1.7,2,3.4,2.6,5.2
			c0.7,2.2,2,4,2.8,6.1c0.3,0.7,0.8,1,1.5,1c1.6-0.1,3.2-0.3,4.8-0.7c1.6-0.4,2.1-1.4,2.3-3c1.1-11.3,1.1-22.7-0.2-34
			c-1.6-14.1-5-27.7-10.4-40.8c-12.1-29.7-31.5-53.6-58.1-71.5c-0.5-0.4-1-0.9-1.8-0.8c0,0.6-0.1,1.4-0.8,1.5c-1.3,0.2-2,1.3-2.9,2
			c-2.2,1.7-3.1,4.1-3.6,6.7c-0.3,1.4-0.3,2.8-0.3,4.2c0,1.4-0.2,2.7-0.9,3.8c-1.2,1.8-2.4,3.6-3.5,5.5c-1.1,1.9-2.5,3.6-4.2,5
			c-1.3,1.1-2.2,2.4-3,3.9c-1.5,2.8-1.6,5.6,0.3,8.3c0.6,0.9,1.2,0.9,2,0.6c1.3-0.4,2.4-1.1,3.4-2c1.8-1.5,3.8-0.9,4.7,1.2
			c0.5,1.2,0.9,2.4,0.8,3.7c-0.1,1,0.1,1.9-0.2,2.9c-0.2,0.7,0.2,0.9,0.7,0.9c1.3,0.1,2.4-0.9,2.5-2.2c0-0.7,0-1.3,0.1-2
			c0.1-1.4,0.9-2.2,2.1-2.7c0.3-0.1,0.6-0.1,0.9-0.2c2.3-1,2.8-4.2,0.8-5.7c-1-0.8-1.8-1.8-2.5-2.9c-0.6-1.1-0.4-2.1,0.2-3.1
			c0.4-0.6,1-1.1,1.7-1.4c0.8-0.3,1.1-0.8,1-1.6c-0.2-1.7,0.4-3.4,0.7-5c0.6-2.7,2.3-4.3,4.8-5.3c2.2-0.9,4,0,4.3,2.4
			c0.2,1.7,0.4,3.4-0.1,5.1c-0.7,2.2-0.8,4.5-1.7,6.7c-0.2,0.5-0.3,1-0.1,1.6c0.5,1.3,1.3,2,2.8,2.2c1.5,0.2,2.8-0.1,3.6-1.4
			c0.4-0.6,0.6-1.3,1-1.9c0.9-1.4,2.8-1.8,4-0.8c1.1,0.9,2.6,4,2.1,6.1c-0.6,2.3-1.7,4.1-4.2,4.8c-0.2,0.1-0.4,0.2-0.7,0.3
			c-0.9,0.3-1.3,0.9-1.2,1.8c0,0.4,0,0.7,0,1.1c0,2.1-0.6,2.8-2.6,3.7c-1.3,0.6-2.6,0.3-3.9,0.7c0.1,0.8,0.1,1.5,0.1,2.3
			c0.3,3.2-1.2,5.3-4.2,6.3c-0.6,0.2-1.2,0.3-1.8,0.4c-2.6,0.5-5.2,0.7-7.7,1.1c-2.7,0.4-5.3,0.4-8,0c-1.4-0.2-1.8,0-2.3,1.4
			c-0.3,0.8-0.5,1.6-0.9,2.4c-2.4,3.7-5.3,7.1-8.9,9.8c-1.6,1.2-3.2,2.4-4.9,3.5c-1.4,1-1.4,1.2,0,2.1c0.4,0.3,0.9,0.5,1.3,0.7
			c0.9,0.4,1.7,1,2.2,1.9c0.9,1.7,1.5,3.6,1.3,5.6c-0.2,2-1.4,3.1-3.4,3.4c-2.3,0.4-4.6,0.1-6.9,0.2c-1.7,0.1-2,0.3-2.1,2
			c0,0.4,0,0.8,0,1.3c0,2.2,0.4,4.5,0.2,6.7c-0.1,1.4-0.1,1.5,1.3,1.4c3-0.3,6.1-0.2,9.1-0.4c1.5-0.1,2-0.5,2.4-2
			c0.1-0.6,0.1-1.2,0-1.8c-0.5-2.6,0.3-4.7,2-6.5c2.4-2.5,4.9-4.9,7.8-6.8c2-1.3,4.1-2.1,6.5-1.2c0.5,0.2,0.7-0.1,1.1-0.3
			c1.2-0.6,2.4-0.1,2.3,1.2c-0.1,1.4,0.7,2.2,1.7,3c1.5,1.2,3,2.3,4.7,3.1c1.8,0.9,2.4,2.4,2.3,4.3c-0.2,1.7-0.5,3.3-1.6,4.8
			c-0.4,0.5-0.8,1.1-0.9,1.8c-0.1,0.4,0,0.7,0.3,1c0.3,0.2,0.6,0.1,0.9,0c0.7-0.3,0.6-1,0.6-1.6c0-1.9,0.9-3.2,2.4-4.2
			c0.7-0.4,1.5-0.8,2.2-1.3c0.9-0.6,1-1.3,0.3-2.2c-0.3-0.4-0.6-0.8-1-1c-3-1.6-5.5-3.8-7.9-6.1c-1.9-1.8-2.8-4.2-3.5-6.6
			c-0.3-1.2,0.1-2.1,1.2-2.8c1.2-0.8,2.4-1.4,3.7-0.4c1.5,1.1,3.1,2.3,4.2,3.7c1.8,2.3,4.2,3.9,6.6,5.4c2.8,1.8,4.5,4.1,5,7.4
			c0.2,1.5,0.4,3,0.2,4.5c-0.1,0.6,0.3,1,1,1c0.6,0,0.6-0.5,0.6-0.9c0-1.3,0.1-2.7,0-4c-0.2-2,1-3.2,2.5-4.1
			c1.6-0.9,3.2-0.5,4.6,0.6c1.1,0.9,1.8,2,1.9,3.4c0.2,2.2,0.3,4.5,0.4,6.7c1.2,0.2,2.4-0.2,3.6-0.2c2.7,0,5.3-0.1,8,0
			c2,0.1,3.7,0.2,5.1,1.8c0.4-1.4,1.1-2.4,1.9-3.5c3.4-4.9,7.5-9.4,11-14.3c0.4-0.5,0.8-1.2,1.9-1.2c-1.9,2.4-3.1,4.9-4.6,7.2
			c-2.6,4-5.7,7.5-8.2,11.6C281.9,34.7,281.3,34.6,280.7,34.8z M104.5,27.1c-0.6-0.3-1.2-0.2-1.7-0.2c-1.1,0-2.2-0.2-3.2-0.4
			c-1.8-0.3-2.3-1-2.2-2.9c0.1-1.7-0.3-3.2-1.6-4.5c-0.4-0.4-0.7-0.8-1.1-1.2c-0.6-0.7-1.2-1.4-0.8-2.4c0.4-1.1,1.2-1.5,2.2-1.6
			c0.7-0.1,1.5-0.1,2.2-0.3c3.3-0.7,6.7-1.1,10.1-0.8c2.3,0.2,4.4,0.9,5.2,3.5c0.5,1.6,1.2,1.9,2.9,1.8c1.6-0.1,2.3-1.1,1.4-2.4
			c-1.3-2-2.6-4.1-4.8-5.3c-1.7-1-2-2.5-1-4.2c0.9-1.6,0.7-3.5-0.4-4.9c-1.1-1.3-2.3-2.6-3.2-4.2c-1.1-1.9-2.6-3.6-4-5.4
			c-1.4-1.8-2-1.8-4.1-0.9c-3.2,1.3-6.5,0.3-8.4-2.6c-0.9-1.4-2.2-1.9-3.7-1.5c-1.2,0.3-2.4,0.6-3.5,0.9c-0.8,0.2-1.4,0.7-1.6,1.6
			c-0.2,0.8-0.5,1.5-0.6,2.3c-0.5,3.9-0.4,7.9-0.7,11.8c-0.2,2.4-0.8,4.3-3.2,5.2c-1.1,0.4-1.6,1.3-1.7,2.4
			c-0.1,0.9-0.1,1.8-0.2,2.7c-0.1,2.1-0.5,4.1-1.7,5.9c-1.5,2.2-5.2,2-6.4-0.4c-1.1-2.4-2.1-4.8-2.2-7.4c0-0.7-0.3-1.3-0.3-2
			c-0.1-2.6-1.9-3.6-4-4.4c-0.5-0.2-1-0.2-1.4-0.2c-1.2,0-2.4,0-3.6,0C54.4,5,53.2,3.6,53.3,1c0.1-1.8,0.2-3.6,0.7-5.4
			c0.9-3.3,2.4-6.4,5.4-8.3c2.3-1.5,3.8-3.5,4.5-6.1c0.3-0.9,0.6-1.8,1.1-2.7c0.7-1.1,1.6-1.8,2.9-2c1.4-0.2,2.7-0.6,4.1-0.6
			c0.6,0,1-0.3,1.3-0.8c0.6-1.2,1.2-2.4,1.5-3.7c0.3-1.4-0.1-1.9-1.5-1.3c-3.4,1.4-6.8,2.4-10.5,2.6c-1.1,0-1.9,0.6-2.6,1.5
			c-0.6,0.8-1.2,1.7-1.9,2.5c-2,2.3-4.1,4.2-7.4,3.7c-1.4-0.2-2.4,0.5-3.2,1.6c-1,1.3-2.3,2.2-3.8,2.6c-2.1,0.5-4.3,0.7-6.5,0.3
			c-2.9-0.5-5.7-1.1-8.6-1.4c-1.7-0.2-3.4-0.4-5-1c-1.3-0.5-2.5-1.1-3.8-1.8C11.2-5.7,4.7,9,0.5,24.7c-4.2,15.7-6,31.8-5.1,48.1
			c2-0.2,3.8-0.4,5.6-0.6c2.6-0.4,4.8,0.4,6.3,2.7C8,76,8.6,77.2,8.7,78.6c0.2,1.4,0.4,2.8,0.5,4.2c0.1,2,1,3.8,2.4,5.6
			c0.5-1.9,0.8-3.4,0-5c-0.3-0.5-0.5-1.1-0.6-1.7c-0.2-1.7-0.1-3.3,1.2-4.5c1.4-1.3,4.4-1.2,5.9,0.1c1.5,1.2,2.2,2.9,2.6,4.7
			c0.8,3.1,1.6,6.2,2.1,9.4c0.3,1.6,0.7,3.2,1.3,4.7c0.4,0.9,1,1.8,1.3,2.8c0.6,1.8,1.9,2.6,3.6,2.9c2.4,0.5,4.9,0.8,7.4,0.6
			c2.6-0.1,5.2-0.7,7.8-0.5c1.6,0.1,3.3-0.1,4.8,0.8c3,1.7,5.6,3.8,7.8,6.5c1.5,1.8,2.8,3.8,4.5,5.5c1.2,1.1,2.3,1.6,3.9,1.3
			c1.8-0.3,3.7,0,5,1.1c2.7,2.2,4,5.1,3.3,8.7c-0.4,2.1-1.2,4.1-2.4,5.9c-1.2,1.8-1.3,3.5,0.1,5.3c1.8,2.5,3.6,5,5.1,7.7
			c2.2,4.2,4.8,8.1,8.3,11.4c2.3,2.2,4.7,4.5,7.4,6.1c2,1.2,3.4,2.7,4.4,4.7c1.5,3.3,2.4,6.7,2.9,10.3c0.5,4,0.4,8.1,0.7,12.2
			c0.2,2.9-0.5,5.7-0.4,8.5c0.2,4-0.2,8-0.8,12c-0.2,1.2-0.8,1.8-1.6,1.8c-1,0-1.5-0.7-1.6-2c-0.1-1,0.2-2,0.3-3.1
			c0.6-5.1,0.2-10.3,0.7-15.4c0.3-3.2-0.4-6.4-0.3-9.6c0.1-4.5-1-8.6-2.6-12.7c-0.5-1.3-1.2-2.6-2.5-3.3c-2.5-1.3-4.5-3.2-6.7-5
			c-5.2-4.4-8.9-9.9-12-15.8c-0.6-1.1-1.2-2.3-2.1-3.2c-1.1-1.2-1.8-2.7-2.8-4c-0.5-0.7-0.7-1.5-0.7-2.4c-0.1-1.6,0.3-3.1,1.1-4.5
			c0.9-1.5,1.7-3.1,2.2-4.8c0.9-3-1.2-7.4-5.4-6.5c-2.2,0.4-4-0.4-5.6-2c-1.2-1.2-2.2-2.4-3.2-3.7c-1.3-1.8-2.7-3.6-4.4-5.1
			c-1.4-1.3-3-2.5-4.9-3.1c-1.9-0.6-4-0.5-6-0.2c-4.2,0.5-8.5,0.7-12.7-0.2c-2.6-0.5-4.8-1.8-5.7-4.5c-0.2-0.5-0.5-1-0.7-1.5
			c-0.9-1.9-1.9-3.8-2.1-6c-0.3-3.4-1.5-6.6-2.1-10c-0.2-1-0.7-1.9-1.3-2.8c-0.5-0.7-1.2-0.8-2-0.5c-0.7,0.4-0.7,1.1-0.5,1.7
			c0.1,0.4,0.3,0.8,0.5,1.2c0.9,2.5,0.7,5-0.3,7.5c-0.7,1.6-2.4,2.1-4,1.2c-0.4-0.2-0.7-0.5-1-0.8c-2.1-2.3-3.1-5-3.2-8.1
			c-0.1-1.8-0.1-3.6-1-5.3c-0.6-1.1-1.4-1.8-2.8-1.6c-2,0.3-4.1,0.5-6.1,0.7c-0.4,0.1-0.6,0.3-0.6,0.7c0,0.4,0,0.7,0.1,1.1
			c0.6,8.1,1.9,16,3.8,23.9c11.1,47,44.2,86.9,88.3,106.5c18,8,36.8,12.5,56.5,13.5c14,0.7,27.9-0.5,41.6-3.6
			c18.8-4.2,36.2-11.6,52.3-22.2c1-0.7,1.2-1.4,0.9-2.4c-0.1-0.2-0.1-0.5-0.2-0.7c-0.9-4.8-2.6-9.4-2.9-14.2
			c-0.2-3.8-1.6-7.3-1.9-11.1c-0.3-3.3,0-6.6,1.1-9.7c1-2.8,2.5-5.5,3.8-8.2c1-1.9,1.3-3.9,1.1-6c-0.3-2.4-0.6-4.8-1.1-7.2
			c-0.5-2.2-0.7-4.5-3.1-5.9c-1.1-0.7-1.9-2.1-1.9-3.5c0-2.1,0-4.1,0.2-6.2c0.3-2.3,0.6-4.7-0.6-6.9c-0.5-1-1.2-1.5-2.2-1.9
			c-2.9-1-5.8-1.6-8.5-3.1c-0.7-0.4-1.3-0.3-2.1,0c-2.4,0.9-4.5,2.3-6.6,3.8c-0.8,0.6-1.7,1.1-2.8,1.2c-3.7,0.5-7.4,0.6-11.1,0.5
			c-2.2-0.1-4-1.3-5.4-3c-1.4-1.7-2.9-3.3-4.1-5.1c-1-1.6-2.2-3.2-3.5-4.7c-2.4-2.8-3.6-6.2-3.9-9.8c-0.6-5.5-0.2-11-0.2-16.6
			c0-3.9,0.9-7.6,3.7-10.6c1-1.1,1.9-2.2,2.8-3.4c0.9-1.3,2.1-2.4,3.6-3c1.5-0.5,2.1-1.5,2.1-3c0-0.7,0.2-1.5,0.1-2.2
			c-0.3-4.3,2.6-7,5.1-9.9c0.1-0.1,0.2-0.1,0.3-0.2c3-2,6.3-3.2,9.8-3.6c1.3-0.2,2.5-0.6,3.3-1.7c0.8-1,1.8-1.3,3-1.3
			c2.4,0.1,4.9,0.1,7.3,0c1.8-0.1,3.5-0.2,5.3-0.1c1.9,0.1,2.7,0.8,2.9,2.8c0.2,1.5,1.2,2.6,2,3.8c0.2,0.3,0.6,0.4,1,0.4
			c2.1,0,4.1,0.2,6.2,0.3c1.6,0.1,2.4,0.5,2.7,2c0.1,0.6,0.1,1.2,0.2,1.8c0,0.5,0.2,0.9,0.8,1c1.1,0.2,2.2,0.5,3.4,0.8
			c0.7,0.2,1.2-0.1,1.3-0.8c0.1-0.5,0.1-1,0.2-1.4c0.6-2.8,1.7-3.7,4.5-3.7c0.7,0,1.3,0,2,0c1.3,0,2.4,0.4,3.2,1.5
			c0.5,0.7,1.1,0.9,1.8,1.1c1.3,0.4,2.6,0.6,3.9,0.5c2.4-0.2,4.9-0.1,7.3-0.1c0.5,0,1,0,1.5,0c1.4-0.1,1.6-0.2,2-1.6
			c0.2-0.6,0.4-1.1,0.8-1.6c1.5-1.8,1.5-3.9,1.4-6.1c0-0.3-0.2-0.6-0.3-0.9c-0.2-0.5-0.6-0.9-1.1-0.8c-1.6,0.3-3.1-0.2-4.7-0.1
			c-2.7,0.1-5.4,0.3-8.2,0.6c-2.9,0.2-4.5-1.8-3.8-4.6c0.4-1.7,0.3-3.4,0.1-5c-0.1-1.1-1-1.7-1.9-1.7c-0.8,0.1-1.2,0.7-1.2,1.9
			c0,1.4,0,2.8-0.1,4.2c-0.1,1.5-0.7,2.9-2.3,3.4c-2.7,0.8-5.6-1.6-5.2-4.4c0.2-1.7-0.1-3.4-0.4-5c-0.3-1.5-1.1-2.6-2.3-3.3
			c-1.8-1-3.3-2.4-5.1-3.5c-1.1-0.7-2.1-1.7-2.9-2.8c-1-1.4-2.6-2.2-4-3.5c-0.2,1,0.1,1.6,0.4,2.2c0.9,2.3,2.7,3.8,4.6,5.3
			c1.6,1.3,3.5,2.4,5.2,3.6c4.1,2.9,2.7,7-0.2,8.4c-0.5,0.2-0.9,0.6-1.4,0.8c-0.9,0.4-1.2,1.1-1.2,2c0,0.4,0,0.7,0,1.1
			c0,2.1-1.6,2.7-3.1,3.4c-1.3,0.6-2.5,0-3.5-0.9c-1.4-1.3-1.7-3.2-0.7-5.2c0.4-0.8,1-1.5,1.4-2.3c1.2-2.3,0.8-3.4-1.3-4.7
			c-2.5-1.5-5-3-6.3-5.8c-0.1-0.2-0.2-0.5-0.5-0.5c-1.7,0.3-3.6,0.1-5.1,1.1c-2.8,1.9-5.3,4.2-7.6,6.8c-0.8,0.9-1.1,2-0.9,3.2
			c0.2,1.1,0.2,2.2-0.1,3.3c-1,3.3-2.5,4-5,4.2c-3.2,0.3-6.4,0-9.6,0.6c-0.4,0.1-0.9,0-1.3,0c-1.7-0.3-3.1-1.7-3-3.4
			c0.3-2.8-0.1-5.6-0.1-8.4c0.1-4.6,1.3-5.8,5.9-5.8c1.8,0,3.6,0,5.5-0.2c0.5-0.1,0.9-0.2,1-0.8c0.3-1.4-0.8-3.7-2.1-4.3
			c-0.8-0.4-1.6-0.9-2.3-1.4c-2.1-1.6-2.1-4.4,0-6c1.6-1.2,3.2-2.4,4.9-3.5c4.4-2.9,7.7-6.7,9.8-11.6c1-2.6,2.6-3.4,5.3-2.9
			c0.8,0.1,1.7,0.2,2.5,0.2c2.1,0.1,4.1-0.3,6.1-0.6c2.3-0.3,4.6-0.6,6.8-1c2.3-0.4,2.7-1.2,2.7-3.5c0-1.1-0.4-2.3-0.1-3.4
			c0.4-1.4,1-2.1,2.5-2.1c1,0,1.9,0,2.9-0.1c0.7-0.1,1.1-0.5,1-1.2c0-0.4,0-0.9,0-1.3c0-1.8,0.8-3.1,2.6-3.8
			c0.7-0.3,1.4-0.7,2.1-1.1c1.6-0.9,1.9-2.6,0.7-4.2c-0.1,0.1-0.3,0.3-0.3,0.4c-1.6,2.7-3.9,3.6-7,3.5c-3.7-0.2-7.1-4.7-5.4-8.3
			c1-2,1-4.4,1.7-6.5c0.3-1,0.3-2.1,0-3.3c-1.4,0.4-2.3,1.1-2.7,2.5c-0.5,1.7-0.9,3.4-0.8,5.2c0.1,2.1-0.7,3.5-2.8,4.1
			c-0.1,0-0.1,0.2-0.2,0.3c0.3,0.7,0.8,1.2,1.4,1.6c2.1,1.3,2.9,3.2,2.5,5.6c-0.4,2.4-1.3,4.5-3.7,5.5c-1.1,0.5-1.5,0.9-1.4,2.1
			c0.2,3.1-1.2,4.4-3.9,5.3c-3.5,1.2-6.1-1-5.6-4.6c0.2-1,0.2-2.1,0.1-3.1c-0.1-1.1-0.5-1.3-1.4-0.6c-1.2,0.9-2.6,1.4-4,1.7
			c-2.2,0.6-3.5,0-4.8-1.9c-0.2-0.4-0.5-0.7-0.8-1c-1.1-1.8-1.5-3.8-1.4-5.7c0.2-2.2,1-4.5,2.5-6.4c1.2-1.6,2.4-3.2,4-4.4
			c0.6-0.5,1.1-1.1,1.6-1.8c1.3-1.9,2.6-3.8,3.8-5.7c0.7-1.1,1.2-2.2,1.1-3.6c-0.2-1.6,0-3.3,0.4-4.9c0.5-2.6,1.3-5.1,3.3-6.9
			c1.5-1.4,2.7-3,4.7-4.2c-21.5-13.3-44.7-21-70-23.3c2.2,2.4,1.4,4.9,0.9,7.3c-0.1,0.7-0.3,1.3-0.3,2c0,1.5,0.3,1.9,1.8,2.1
			c1.7,0.2,2.9,1.1,3.5,2.8c0.6,1.8,0.5,3.6,0.2,5.4c-0.3,2.2-1.3,4.1-1.7,6.3c-0.1,0.8-0.8,1.4-1.4,1.8c-2,1.4-4.2,2.4-6.7,2.4
			c-0.9,0-1.7,0.2-2.5,0.5c-0.7,0.3-0.9,0.7-0.6,1.4c0.5,1.3,1.4,1.9,2.8,1.9c1.5,0,3-0.1,4.6,0c1.6,0.1,3.1,0.5,4,1.9
			c1.2,1.9,0.2,6.2-3,6.3c-1.6,0.1-3.1,0.3-4.7,0.7c-3.2,0.8-6.3,1.9-9.2,3.7c-1.1,0.7-1.7,1.3-1.7,2.6c-0.1,2.5-1.8,5.5-5.1,6.4
			c-1.1,0.3-2.2,0.2-3.2,0.3c-1.7,0.2-1.8,0.2-2.2,1.9c-0.4,1.7-0.5,3.4-0.6,5.1c-0.1,3-1.3,5.7-2.8,8.2c-0.8,1.3-2,2.4-3.7,2.4
			c-2.6,0.1-5-0.4-7.3-1.8c-2.7-1.7-5.1-3.7-7.3-6c-3.7-3.9-5.2-9.3-1.6-14c1.1-1.5,1.7-3.2,2.2-5c-0.3-0.1-0.6-0.2-0.9-0.3
			c-2.4-1-2.8-2.3-1.2-4.3c0.6-0.7,1.2-1.4,1.9-2.3c-0.7-0.1-1.2-0.2-1.6-0.2c-1.9-0.3-2.4-1-2.4-3c0-1.5,0.7-2.8,1.4-4.1
			c0.7-1.2,0.5-1.8-0.7-2.5c-0.9-0.5-1.8-1.1-2.7-1.5c-0.9-0.5-1.3-1.3-1.7-2.2c-0.3-0.8,0.2-1.9-0.7-2.3c-0.7-0.3-1.7-0.1-2.5-0.1
			c-2.2,0.1-4.3,0.6-5.7,2.5c-0.8,1-1.7,1.7-2.8,2.3c-2.6,1.3-5.1,0.4-6.3-2.2c-0.5-1.2-0.9-2.4-1.1-3.6c-0.4-2-0.7-4.1-1.2-6.1
			c-0.4-1.5-1-2.9-0.1-4.4c-1.9,0.7-3.7,1.3-5.5,2.4c1.4,0.7,1.9,1.8,2.2,3.1c0.3,1.2,0.6,2.3,1,3.5c0.7,1.9,0.5,3.7-1.1,5.2
			c-0.5,0.5-1,1.1-1.6,1.5c-1.6,1.1-2.4,2.6-2.5,4.6c-0.2,2-1.1,2.6-3,3.1c-1.4,0.4-2.8,0.1-4.2-0.1c-2.3-0.3-3.7,0.4-4.7,2.6
			c-0.8,1.7-2.1,3.1-3.8,4c-2,1-3.2,0.9-4.8-0.7c-0.5-0.5-1-0.8-1.7-0.9c-2.9-0.6-4.8-2.8-5.1-5.7c-0.1-0.7,0.1-1.2,0.8-1.5
			c0.7-0.3,1.3-0.2,1.8,0.4c0.3,0.4,0.6,0.9,0.7,1.5c0.3,1.5,1.3,2.2,2.8,2.4c0.9,0.1,1.7,0.5,2.4,1.2c1.1,1.1,1.5,1.1,2.6,0.1
			c1.1-0.9,1.9-2.1,2.5-3.3c0.6-1.2,1.3-2.4,2.6-2.9c0.2-0.1,0.5-0.2,0.4-0.5c-0.7-1.4,0.3-2.3,1-3.3c2-3.1,4.7-5.6,6.8-8.7
			c-0.5,2.3-2,4.1-3.2,5.9c-1.3,2-2.5,4-3.5,6.2c1.8,0.1,3.5,0.3,5.2,0.4c1.2,0.1,1.5-0.2,1.7-1.5c0.3-2.1,1.1-3.8,2.8-5.1
			c0.7-0.5,1.2-1.2,1.9-1.7c0.7-0.6,0.9-1.4,0.5-2.3c-0.5-1.1-0.7-2.2-1-3.3c-0.1-0.4-0.1-1-0.6-1.3c-0.7-0.4-0.8-1.2-0.9-2
			c-14.2,7-27,15.8-38.5,26.6c0.7,0.5,1.4,0.9,1.5,1.7c0.1,2.5,1.2,4.5,2.8,6.4c1.5,1.8,2.3,4,2.2,6.4c-0.1,1.7-0.9,3-2.6,3.3
			c-1.4,0.2-1.7,1-1.9,2.2c-0.4,2.7-1.9,4.5-4.5,5.5c-3.4,1.2-6.5,1.2-9.2-1.6c-0.6-0.6-1.3-1.1-1.8-1.8c-0.3-0.4-0.7-0.7-1.2-0.7
			c-1.2,0.1-2.2-0.5-3-1.3c-2.1,2.3-4.3,5.6-4.7,7c1,0.2,1.8,0.8,2.6,1.2c1.4,0.7,3,0.7,4.6,0.9c2.9,0.4,5.7,1,8.6,1.4
			c3.1,0.4,6.2,0.3,8.3-2.6c1.1-1.4,2.6-2.1,4.5-2c0.5,0,1,0,1.5,0c1,0.1,1.7-0.3,2.4-1c1.1-1.1,2.3-2.2,3.1-3.5
			c1.3-2,3.1-3,5.4-3.1c3-0.2,5.9-0.8,8.6-2.1c1.2-0.6,2.5-0.9,3.9-0.7c1.2,0.2,1.9,0.8,2.1,1.9c0.3,1.4,0.4,2.8-0.1,4.1
			c-0.5,1.2-0.9,2.4-1.5,3.5c-0.8,1.6-2.1,2.5-3.9,2.5c-0.6,0-1.2,0.2-1.8,0.2c-2.2,0-3.3,1.3-3.7,3.2c-0.8,3.2-2.7,5.6-5.5,7.4
			c-1,0.6-1.6,1.4-2.3,2.3c-1.7,2.3-2.2,4.9-2.5,7.7C56,2.2,56,2.2,58.6,2.2c0.4,0,0.7,0,1.1,0c2.2-0.2,4,0.5,5.9,1.5
			c1.6,0.9,2.6,2.2,3,3.9c0.3,1.1,0.6,2.3,0.6,3.4c0.1,2.2,0.9,4.1,1.7,6.1c0.2,0.6,0.5,1,1.2,1c0.6,0,0.7-0.6,0.9-1
			c0.6-1.5,0.7-3.1,0.7-4.6c0-2.9,0.8-5.4,3.8-6.7c0.8-0.4,1.1-1,1.2-1.9c0.1-2.7,0.3-5.4,0.3-8.2c0-1.8,0.3-3.5,0.5-5.2
			c0.6-3.4,2.4-5.6,6-6.1c1.1-0.1,2.2-0.6,3.4-0.9c-1.4-2.2-2.9-4-5.8-3.9c-0.5,0-1.1-0.2-1.6-0.3c-1.9-0.5-2.4-1.4-1.7-3.2
			c0.4-1,0.8-2,1.1-3.1c1.3-3.7,3.1-4.9,7-4.4c0.1,0,0.1,0,0.2,0c1,0.1,1.5-0.8,1.1-1.7c-0.3-0.6-0.9-0.8-1.4-1
			c-1.8-0.6-2.5-2-2.5-3.8c0-0.7,0.1-1.4-0.1-2c-0.3-1.6-1.7-2.1-3-1.1c-0.6,0.5-1.2,1-1.8,1.6c-2.2,2.5-5,3.4-8.3,3.1
			c-1.4-0.1-2.7-0.5-3.9-1.2c-1.9-1.1-2.5-2.9-1.5-4.8c1.1-2.1,2.4-4.2,4.7-5.4c0.8-0.4,1.3-1,1.8-1.7c1.3-2.2,2.5-2.6,4.9-1.8
			c0.9,0.3,1.5,0.2,2.2-0.3c0.5-0.4,1.1-0.8,1.6-1.2c1-0.7,1.8-1.6,2.9-2.2c2.2-1.4,4.4-1,6.6,0.1c0.7,0.4,1.2,1,1.3,1.9
			c0.2,1.2,0.3,2.4,0.1,3.6c-0.4,2.6,0,2.8,2.4,2c1.6-0.5,3.2-0.7,4.8-0.3c1.7,0.5,2.3,1.4,2,3.1c-0.1,0.5-0.2,1.1,0,1.6
			c0.7,1.9,1.2,4,2.8,5.4c1.6,1.5,1.7,5.2,0.6,6.8c-1.4,2.1-2.9,2.7-5.2,2.1c-0.1,0-0.2,0-0.4,0c-0.4,0.7-0.4,1.5-0.5,2.2
			c-0.1,1-0.3,2-0.9,2.7c-0.7,0.9-0.8,1.8-0.9,2.9c-0.3,2.7-1.5,4.8-4.2,5.8c0.3,0.4,0.6,0.9,0.9,1.3c1.4,2.1,3.1,2.6,5.5,1.6
			c0.5-0.2,0.9-0.4,1.4-0.5c1.9-0.4,3.7,0,5,1.5c1.6,1.8,3.1,3.6,4.4,5.5c1.2,1.8,2.3,3.5,3.8,5.1c1,1.1,1.5,2.4,1.5,4
			c0,1.5-0.1,3-0.8,4.3c2.7,2,4.5,4.5,5.9,7.2c1.1,2.3,0.3,4.4-1.7,5.5c-1.8,1-3.6,0.7-5.5,0.2c-1.4-0.4-2-1.5-2.4-2.7
			c-0.5-1.6-1.7-2.1-3.2-2.2c-2.5-0.2-5,0.2-7.4,0.5c-0.9,0.1-1.8,0.2-2.7,0.8c1.6,1.4,2.3,3.1,2.5,5.1c0.2,1.7,0.2,1.8,1.9,1.8
			c1.5,0,2.9,0.2,4.3,0.6c1,0.3,1.7,0.9,1.9,2c0.2,1.1-0.2,1.9-1,2.5c-1.3,0.9-2.5,1.8-4.2,2.1c-1,0.1-2,0.5-2.9,0.9
			c-2.1,0.9-4.2,1.7-6.5,1.4c-0.5,0-0.9,0.1-0.9,0.6c-0.1,1.2-0.9,2.3-1.1,3.4c-0.4,2.6-1.8,4.3-3.8,5.7c-3.1,2.2-6.1,4.4-10,5
			c-0.5,0.1-1.1,0.1-1.5,0.6c0.8,2.2,0.7,4.5,1.1,6.8c0.3,1.4,0,2.6-1.2,3.6c-0.5,0.4-0.9,1-1.4,1.4c-1.5,1.3-2.5,2.9-2.9,4.7
			c-1,3.6-2,7.1-1.9,10.9c0,1.2-0.1,2.3-0.5,3.4c-0.4,1-1.1,1.8-2.2,2c-1.2,0.3-2-0.3-2.6-1.3c-2.1-3-5-4.2-8.6-4.3
			c-0.7,0-1.3-0.1-2-0.2c-3.4-0.4-6.7-0.5-10.1,0.7c-1.6,0.6-2.5,1.6-2.5,3.2c-0.1,4.4-0.4,8.7,0.2,13.1c0.1,1,0.3,1.8,1.3,2.2
			c1,0.4,1.8-0.2,2.4-0.9c0.8-1,1.7-2,2.3-3.1c1-1.9,2.7-2.7,4.6-3.3c0.5-0.2,1.1-0.2,1.6-0.3c2.1-0.4,3-0.1,4.1,1.7
			c0.7,1.2,1,2.5,0.8,4c-0.2,1-1.2,2.2-0.5,3.1c0.6,0.8,2,0.7,3.1,0.8c1.6,0.2,2.8,1,3.5,2.6c0.7,1.5,1,3.1,1,4.8
			c0,0.8,0,1.7,0.1,2.5c0.1,1.1,0.4,1.3,1.5,1.4c0.8,0,1.7,0,2.5-0.2c1.6-0.4,2.8,0.1,3.9,1.3c1,1,1.7,2.2,2.4,3.3
			c0.2-0.1,0.3,0,0.4-0.1c2.9-2.2,5.8-4.4,8.2-7.2c2-2.3,5-2.2,6.6,0.3c0.7,1.1,1.6,1.4,2.7,1.4c2.4,0,4.9,0,7.3,0.1
			c3.1,0.2,4.8,1.6,5.3,4.7c0,0.1,0,0.2,0,0.4c0,0.6,0.3,0.9,0.7,1.1c0.8,0.4,1.5,0.8,2.4,0.8c0.9,0,1.7,0.2,2.5,0.6
			c0.8,0.4,1.7,0.6,2.6,0.7c1.2,0.1,2.3,0.4,3.3,0.9c2.5,1,5,2.1,6.3,4.9c0.7,1.6,1.1,3.3,1.1,4.9c0,1.6,0.6,2.5,2.1,2.9
			c0.4,0.1,0.8,0.3,1.2,0.4c2,0.3,4,0.6,6,0.8c4.3,0.4,8.3,2.1,12.3,3.6c0.8,0.3,1.5,0.6,2.4,0.8c3.5,0.6,7.7,4.4,6.9,9.3
			c-0.3,1.6-0.4,3.1-0.3,4.7c0.1,2.3-0.9,4-2.6,5.3c-1.7,1.3-2.7,2.9-2.5,5.1c0.2,2.6-0.1,5.2-0.7,7.8c-0.3,1.1-0.6,2.1-1.3,3
			c-2.5,3.2-5.2,6.3-9.6,6.9c-0.4,0.1-0.8,0.2-1.2,0.3c-1.6,0.6-3.3,1.7-3,3.9c0.2,1.2,0.1,2.5-0.3,3.8c-0.5,1.3-1.2,2.2-2.6,2.5
			c-1.4,0.3-1.8,1-1.4,2.4c0.3,1,0.4,2,0.4,3.1c0,3-2.5,4.5-5.1,3.1c-0.3-0.2-0.7-0.3-0.9-0.6c-0.5-0.5-0.8-0.2-1.2,0.2
			c-0.9,1.1-1.2,2.2-0.6,3.7c1.1,2.8-0.3,4.9-3.2,5.4c-0.7,0.1-1.4,0.2-2.2,0.2c-0.7,0.1-1.1,0.3-1.3,1c-0.2,0.5-0.2,1.1-0.3,1.6
			c-0.2,1.2-0.7,2.3-1.7,2.9c-1.5,0.9-2.1,2.3-2.7,3.7c-0.2,0.4-0.3,0.9-0.5,1.4c-0.4,0.7-1.1,1-1.9,0.7c-0.8-0.3-1.2-0.9-1.1-1.7
			c0.5-2.2,1.4-4.4,3.1-5.8c1.2-1,1.8-1.9,2.1-3.4c0.1-0.5,0.3-0.9,0.4-1.4c0.4-1.2,1.2-1.8,2.4-2c0.9-0.1,1.8-0.3,2.7-0.4
			c1.5-0.2,1.7-0.3,1.1-1.7c-0.8-1.8,0.1-3.6-0.2-5.4c0-0.2,0.2-0.4,0.3-0.6c1.3-2.5,3.5-3,6-1.5c0.5,0.3,0.9,0.9,1.6,0.7
			c0.4-1.1-0.1-2-0.2-3c-0.4-2.5,0.8-4.9,3-5.5c1.1-0.3,1.3-0.9,1.3-1.8c0-0.6,0.1-1.2,0-1.8c-0.4-3.2,1.9-5.2,4.8-6.5
			c1.1-0.5,2.3-0.7,3.5-0.9c0.5-0.1,1-0.2,1.3-0.6c1.4-1.3,3-2.5,4.2-4c0.6-0.8,1.2-1.7,1.4-2.7c0.5-2.3,0.8-4.7,0.6-7
			c-0.3-3.3,1.3-5.6,3.7-7.4c1.1-0.8,1.6-1.7,1.5-3.1c-0.1-1.4-0.3-2.9,0.1-4.4c0.8-3-1.3-5.4-3.6-6.1c-1.7-0.5-3.3-1.2-4.9-1.8
			c-4.4-1.6-9-2.8-13.8-3.1c-2-0.1-4.1-0.6-5.9-1.8c-1.5-1-2.6-2.1-2.4-4.1c0.2-1.5-0.3-3-0.9-4.4c-0.8-1.9-2.6-2.5-4.3-3.2
			c-2.5-1.1-5.3-1.3-7.9-2.1c-1.3-0.4-2.6-0.7-3.7-1.3c-1.4-0.8-2.3-1.8-2.5-3.6c-0.2-1.9-0.4-2-2.4-2.3c-2.4-0.3-4.9-0.3-7.3-0.2
			c-1.9,0.1-3.4-0.6-4.6-2.1c-1-1.3-1.4-1.3-2.5-0.1c-2.5,2.8-5.4,5-8.4,7.2c-1.9,1.4-3.8,1-5-1c-0.5-0.8-0.9-1.7-1.6-2.4
			c-0.5-0.5-0.9-0.7-1.6-0.6c-1.2,0.3-2.4,0.1-3.6,0.2c-1,0.1-1.7-0.3-2.4-1c-1-1.1-1.5-2.3-1.4-3.8c0-1.6,0.2-3.3-0.4-4.9
			c-0.3-1-0.9-1.6-2.1-1.8c-1.1-0.1-2.3-0.4-3.4-0.7c-2-0.6-2.5-1.5-2.1-3.5c0.1-0.6,0.4-1.2,0.5-1.8c0.2-0.8,0.4-1.7,0.2-2.5
			c-0.1-0.5-0.3-1-1-0.9c-1.5,0.3-3.1,0.6-4.1,2c-1,1.4-2,2.7-3.2,4c-1.4,1.5-3.2,2.1-5.1,1.5c-2-0.6-3.2-2.1-3.4-4.3
			c-0.6-4.8-0.4-9.6-0.3-14.4c0.1-2.6,2-4.6,4.6-5.5c2.8-1,5.6-1.2,8.6-1c1.7,0.1,3.4,0.4,5.1,0.5c3.4,0.1,6.5,1.1,9,3.8
			c0.3,0.3,0.4,0.8,0.9,0.7c0.3-0.2,0.2-0.4,0.2-0.7c-0.2-3.6,0.7-7,1.5-10.4c0.3-1.6,0.9-3.1,1.7-4.6c0.9-1.7,2.2-3.1,3.5-4.4
			c0.4-0.4,1-0.8,0.9-1.5c-0.4-1.9-0.3-4-1-5.9c-0.9-2.4-0.2-3.9,2.3-4.7c0.2-0.1,0.5-0.1,0.7-0.2c4.3-0.8,7.6-3.2,10.9-5.9
			c0.5-0.4,0.8-0.9,0.8-1.5c0.1-2.3,0.8-4.4,1.5-6.5c0.7-2,2.1-2.5,3.8-1.4c0.8,0.5,1.5,0.6,2.4,0.3c2.6-0.7,5-2,7.6-2.4
			C104,27.8,104.3,27.6,104.5,27.1z M309.8,65.4c0,5.8-0.5,11.5-0.9,17.3c-0.1,2-0.6,3.9-0.8,5.8c-0.2,1.1-0.3,2.3-0.5,3.4
			c-0.2,0.8-0.3,1.6,0.3,2.4c0.5,0.6,0.3,1.5-0.5,1.9c-0.8,0.4-0.8,1.1-1,1.8c-1.1,5.3-2.5,10.5-4.2,15.6c-0.2,0.7-0.6,1.1-0.4,2
			c-0.2,0.5-0.2,0.3-0.4,1.3c-0.7,0.7-0.8,1.6-1.1,2.3c-7.2,19.7-17.8,37.4-32,52.9c-16.6,18-36.3,31.5-59.1,40.5
			c-12.2,4.8-24.8,7.9-37.8,9.6c-8.5,1.1-17.1,1.4-25.6,1.1c-21-0.9-41-5.6-60.1-14.4c-14-6.5-26.9-14.8-38.4-25
			c-14.8-13.1-26.8-28.5-35.9-46.1C4.3,124.2-0.5,110-3.4,95.2c-1.2-6.4-2-12.8-2.5-19.3c-1.5-22.1,1.6-43.6,9.1-64.4
			C10.1-7.7,20.4-24.9,34-40c22.5-25,50.3-41.2,83.1-48.8c8.5-2,17.1-3.1,25.7-3.6c21.2-1.2,41.9,1.8,61.9,8.9
			c19.4,6.9,36.9,17.3,52.2,31c18.3,16.4,32.1,36,41.3,58.8c5.4,13.4,8.9,27.3,10.5,41.7C309.4,53.7,309.7,59.6,309.8,65.4z"/>
		<path class="st2" d="M195.2-19.3c0.9,0.4,1.6,0.8,2.4,1.1c2.7,1.2,4,3.2,4,6.1c0,3.4,0,6.8-0.7,10.1c-0.2,0.7-0.5,1.7,0.2,2.2
			c0.7,0.4,1.5-0.2,2.2-0.5c1.7-0.8,3.1-2.1,4.5-3.3c1.3-1.1,1.3-2.7,0.5-4.1c-0.7-1.3-1.8-2.3-2.5-3.6c-1.7-2.8-3.1-5.7-4.5-8.7
			c-0.3-0.6-0.7-1.1-1.1-1.6c-0.2-0.2-0.5-0.4-0.8-0.3C198.1-21.2,196.4-20.8,195.2-19.3z M193.6-2.9c0.9-0.1,1.3-0.7,1.4-1.4
			c0.4-1.9,0.2-3.8,0.1-6c-0.8,0.8-1.5,1.1-2.3,1.3c-0.6,0.1-1,0.4-1.1,1.1c-0.1,2.3-0.3,4.7-0.1,7.1C193.1-1.6,193.1-1.6,193.6-2.9
			L193.6-2.9z M197.9-2.7c-1.5,1.7-2.6,3.3-4.1,4.4c-2.5,1.8-4.7,0.8-5-2.2c-0.3-2.7-0.1-5.3,0.2-8c0.2-1.6,1.2-2.6,2.7-3.2
			c0.8-0.3,1.6-0.5,2.3-1.3c0.9-1,3.1-0.1,3.8,1.3c0.4,0.8,0.8,1.7,0.7,2.6c0,0.4,0,0.7,0.1,1.1c0-1.4,0-2.8,0-4.2
			c0-1.6-0.7-2.8-2.2-3.3c-0.8-0.3-1.7-0.7-2.5-1.1c-1.8-1-2.2-3.2-0.9-4.8c0.5-0.7,1.2-1.2,1.9-1.6c1.2-0.7,2.5-1.2,3.6-2.1
			c0.9-0.8,2.1-0.5,3.1,0.4c1,1,2,2.1,2.6,3.5c1.3,2.9,2.7,5.8,4.4,8.6c0.7,1.2,1.7,2.2,2.4,3.4c1.7,3,1.1,6.5-1.7,8.6
			c-1.4,1-2.6,2.2-4.1,3c-1.3,0.7-2.7,1.1-4.2,1.2c-2.3,0.1-3.4-1-3.1-3.3C197.8-0.7,197.8-1.5,197.9-2.7z"/>
		<path class="st2" d="M181.2-43.9c-2.1,3-3.1,3.4-6.8,3.4c-2.2,0-4.3-0.7-6.5-0.6c-0.3,0-0.7-0.2-1-0.4c-1-0.4-1.3-0.4-1.4,0.7
			c-0.2,1.3-0.2,2.7-0.5,4c-0.3,1.4-0.3,1.5,1,2c1.9,0.7,3.6,1.7,5.1,3c0.5,0.5,1.1,1,1.6,1.5c0.5,0.5,0.8,0.5,1.4,0.1
			c1-0.8,1.9-1.6,2.4-2.9c0.3-0.9,1-1.7,1.6-2.4c1.1-1.4,2.6-2.4,3.7-3.7C183.7-41.4,183.6-41.9,181.2-43.9z M161.8-36
			c0.5-1.5,0.4-3.7,0.9-5.8c0.6-2.6,3.7-3.8,6.1-2.7c2.5,1.2,5.1,1.2,7.8,1c0.8-0.1,1.3-0.7,1.7-1.5c1-2.6,2.6-3,4.9-1.3
			c0.5,0.4,0.9,0.8,1.3,1.2c2.2,2.4,2.4,4.1,0.5,6.8c-0.7,0.9-1.4,1.8-2.3,2.5c-1.6,1.3-3,2.8-3.8,4.7c-0.7,1.7-2.1,2.8-3.5,3.8
			c-1.4,1-3.2,0.8-4.3-0.4c-1.9-2.1-4.1-3.5-6.7-4.6C162.9-32.7,161.6-33.5,161.8-36z"/>
		<path class="st2" d="M52.6-11.4c-2.1,2.4-3.9,4.5-5.8,6.5C36,6.5,25.4,18.2,15.2,30.3c-4.5,5.3-9.4,10.3-13.8,15.8
			c-0.3,0.4-0.7,0.8-1.2,1.1c-0.2,0.1-0.5,0.1-0.7,0c-0.2-0.2-0.2-0.4-0.2-0.7c0.1-0.3,0.2-0.6,0.4-0.8C4.7,38.8,9.4,31.8,15,25.4
			c7.7-8.7,15.8-17,24.2-24.9c3.6-3.4,7.2-6.9,10.8-10.3C50.7-10.4,51.3-11,52.6-11.4z"/>
		<path class="st2" d="M60.1-41.4c0.1-2.6,0.1-2.6-2.1-3.4c-0.3-0.1-0.7-0.2-1-0.3c-0.3-0.1-0.7-0.3-1.1-0.1c-1,0.6-2,1.2-2.6,2.2
			c-0.8,1.2-0.5,2.3,0.8,3c0.5,0.2,1,0.4,1.5,0.6c1.2,0.5,1.9,1.5,1.9,2.8c0,0.2,0,0.4,0,0.5c0.1,0.7,1.1,1.5,1.8,1.4
			c0.8,0,1-0.6,1.1-1.2c0.1-1,0.3-2.1-0.1-3.1C60.1-39.8,60.1-40.7,60.1-41.4z M63.2-43c-0.2,1.3-0.1,2.8,0.2,4.4
			c0.3,1.2,0.1,2.5-0.2,3.8c-0.7,2.8-3.3,4-5.9,2.7c-1.6-0.8-3-1.8-3-3.9c0-0.4-0.2-0.7-0.6-0.8c-0.5-0.2-1-0.4-1.5-0.7
			c-2.6-1.5-3.3-3.7-2-6.4c1-2.1,2.9-3.2,4.8-4.3c0.2-0.1,0.6-0.1,0.9-0.1c1.9,0.3,3.8,0.8,5.6,1.5C63.1-46,63.2-44.6,63.2-43z"/>
		<path class="st2" d="M65.2,21.9c0,0.7-0.4,0.9-0.7,1.3c-8.1,8.9-15.7,18.2-23.1,27.6c-5,6.4-9.9,12.9-15.2,19
			c-0.6,0.7-1.3,1.4-2,2.1c-0.3,0.3-0.7,0.5-1.1,0.2c-0.5-0.3-0.5-0.8-0.3-1.3c0.2-0.4,0.5-0.8,0.8-1.2c4.8-6.8,10.1-13.2,15.5-19.5
			c8-9.4,16.6-18.4,25.1-27.4C64.4,22.5,64.7,22.1,65.2,21.9z"/>
		<path class="st2" d="M46.9,7.1c-1.6,0.6-2.6,1.7-3.6,2.8C33.5,20.5,23.6,31,14.3,42c-3.4,4.1-7,8-10.1,12.4
			c-0.1,0.1-0.1,0.2-0.2,0.3c-0.3,0.3-0.6,0.8-1,0.4c-0.4-0.3-0.1-0.7,0-1c1.1-1.7,2.3-3.4,3.4-5.1c7-10.4,15.8-19.4,24.6-28.2
			c3.7-3.7,7.4-7.3,11.2-11C43.1,9,44,8.2,45,7.5C45.5,7.1,46,6.6,46.9,7.1z"/>
		<path class="st2" d="M61.9,13.8c-0.6,0.8-1.1,1.5-1.7,2.3c-6.6,9.2-14.3,17.5-21.7,26c-6,6.8-11.9,13.6-17.8,20.4
			c-0.6,0.7-1.1,1.5-1.7,2.2c-0.3,0.4-0.6,0.9-1.2,0.6c-0.6-0.4-0.2-0.9,0.1-1.3c0.7-1,1.4-2,2.1-3c5.9-8.4,13-15.9,20.1-23.3
			c5.1-5.2,10.1-10.5,14.9-16c2-2.3,3.9-4.8,5.8-7.2C61.1,14.2,61.2,13.8,61.9,13.8z"/>
		<path class="st2" d="M53.5,11.5c-1.3,0.7-2,2-2.8,3C43.5,23.2,36,31.6,28.9,40.4c-6,7.6-12.3,15-18.8,22.3c-0.9,1-1.8,1.9-2.8,2.9
			c-0.2,0.2-0.4,0.3-0.6,0.2c-0.3-0.2-0.2-0.5,0-0.8c0.1-0.2,0.2-0.3,0.3-0.4c5.6-6.2,10.4-13,15.7-19.3c6-7.2,12.3-14,18.6-21
			c3.3-3.7,6.7-7.3,9.9-11.2C51.8,12.3,52.4,11.5,53.5,11.5z"/>
		<path class="st2" d="M30.5,71.9c-0.5,0-0.9-0.6-0.7-1c0.2-0.3,0.5-0.6,0.7-0.8c5.1-5.2,10.1-10.5,15.2-15.7
			c4.9-5,9.8-10.1,14.5-15.3c2-2.3,3.8-4.7,5.5-7.2c0.4-0.6,0.8-1.2,1.5-1.5c0.1-0.1,0.4,0,0.5,0.1c0.1,0.2,0.1,0.6,0,0.7
			c-1.5,0.2-1.7,1.6-2.3,2.6c-3.5,5.8-8.1,10.8-12.5,15.8c-5.4,6-11,11.8-16.7,17.6c-1.4,1.5-3,2.8-4.5,4.2
			C31.4,71.5,31,71.8,30.5,71.9z"/>
		<path class="st2" d="M125.4,133c-1.8,1.1-2.8,2.7-3.7,4.3c-6.1,9.6-12.8,18.8-19.7,27.9c-0.4,0.5-0.7,1-1.2,1.3
			c-0.3,0.1-0.5,0.3-0.9,0.1c-0.4-0.2-0.5-0.6-0.3-0.9c0.2-0.5,0.5-1,0.7-1.4c5.1-8.7,11.1-16.6,17.8-24.1c1.7-1.9,3.1-4.1,4.9-5.9
			C123.6,133.6,124.2,132.9,125.4,133z"/>
		<path class="st2" d="M39.6-9.6C34.3-3.4,29.1,2.6,23.9,8.7c-6.4,7.6-12.7,15.2-18.6,23.1C5,32.3,4.7,32.7,4.2,33
			c-0.2,0.1-0.5,0.1-0.7,0c-0.2-0.2-0.2-0.4,0-0.6c0.3-0.4,0.6-0.8,0.9-1.2C14.1,16.9,25.1,3.8,37.4-8.2C38-8.7,38.5-9.5,39.6-9.6z"
			/>
		<path class="st2" d="M100.7-1.2c-0.6-0.3-0.9,0.2-1.2-0.2c0.5-0.5,1.2-1.1,1.8-0.6c0.6,0.5,0,1.2-0.4,1.8c-1.8,3-4,5.6-6.4,8.2
			c-5.9,6.3-11.7,12.9-18,18.8c-1.2,1.2-2.5,2.3-3.4,3.8c-0.4,0.6-0.8,0.7-1.4,0.4c-0.6-0.4-0.5-0.9-0.3-1.4c0.4-1,1.1-1.8,1.7-2.5
			c2.5-3,5.5-5.5,8.3-8.2c5.4-5,10.7-10.3,15.7-15.7C98.3,1.7,99.4,0.2,100.7-1.2z"/>
		<path class="st2" d="M143.3,148c-1.1,2.8-2.7,5.3-4.4,7.7c-4.1,5.7-8.7,11.1-12.9,16.7c-5.1,6.8-10.3,13.5-15.1,20.5
			c-0.3,0.5-0.7,1.5-1.4,1c-0.6-0.4,0-1.1,0.3-1.6c4.3-7.2,9.2-14,14.6-20.4c5-6,10.4-11.7,15-18.1c1-1.4,1.9-2.8,2.7-4.3
			C142.4,148.9,142.6,148.3,143.3,148z"/>
		<path class="st2" d="M117.6,129.1c-2,1.6-3.2,3.7-4.5,5.8c-4.1,6.7-8.1,13.5-12.6,20c-1.4,2-2.9,3.9-4.2,5.9
			c-0.2,0.3-0.4,0.6-0.7,0.8c-0.2,0.2-0.5,0.2-0.7,0c-0.2-0.1-0.4-0.4-0.3-0.6c0.2-0.5,0.3-0.9,0.6-1.3c0.9-1.6,1.9-3.1,2.8-4.7
			c4.4-7.3,9-14.4,14.2-21.1c1-1.4,2.1-2.7,3.4-3.8C116.1,129.5,116.7,129,117.6,129.1z"/>
		<path class="st2" d="M132.5,138.5c-1.3,0.7-2,1.6-2.7,2.6c-7.7,11.1-16,21.8-23.3,33.2c-0.3,0.4-0.5,1.2-1.1,0.9
			c-0.7-0.4,0-1,0.2-1.4c5.2-8.9,10.6-17.5,17.1-25.5c2.1-2.6,4.4-5.2,6.5-7.8c0.5-0.7,1.1-1.3,1.9-1.7
			C131.4,138.4,131.8,138.1,132.5,138.5z"/>
		<path class="st2" d="M137.2,142.7c-1.8,3.2-4.1,6-6.2,9c-5.1,7.2-10.2,14.5-15.3,21.7c-1.3,1.8-2.4,3.6-3.4,5.6
			c-0.2,0.3-0.3,0.7-0.5,1c-0.2,0.3-0.5,0.6-0.9,0.4c-0.4-0.2-0.3-0.6-0.2-1c0.1-0.3,0.3-0.7,0.4-1c1.2-2.9,2.8-5.5,4.6-8
			c5.6-8.1,11.8-15.7,18-23.3c0.8-0.9,1.5-1.9,2.2-2.9C136.2,143.5,136.5,142.9,137.2,142.7z"/>
		<path class="st2" d="M105.2,120.3c0.1,0.9-0.3,1.6-0.7,2.4c-3.2,6.3-7.1,12.1-10.9,18c-1.7,2.6-3.4,5.2-5.1,7.8
			c-0.1,0.2-0.2,0.3-0.3,0.5c-0.3,0.5-0.6,1-1.3,0.7c-0.8-0.4-0.4-1-0.1-1.6c0.2-0.3,0.3-0.6,0.5-1c3.7-7.5,8.7-14.1,13.7-20.8
			C102.4,124.3,103.7,122.3,105.2,120.3z"/>
		<path class="st2" d="M100.6,115.6c-0.9,1.7-1.7,3.4-2.6,5.1c-3,5.9-7,11.2-10.9,16.5c-1.8,2.4-3.8,4.6-5.4,7.1
			c-0.2,0.4-0.5,0.8-1,0.5c-0.5-0.3-0.3-0.7-0.1-1.1c0.3-0.6,0.7-1.3,1.1-1.9c5.4-7.6,10.6-15.4,15.7-23.2c0.6-1,1.4-1.8,2.1-2.7
			C99.8,115.6,100,115.3,100.6,115.6z"/>
		<path class="st2" d="M112.6,122.6c-1.1,0.3-1.6,1.1-2,1.9c-4.1,8.4-9.6,15.9-14.8,23.5c-1.1,1.7-2.3,3.3-3.2,5.1
			c-0.2,0.3-0.4,0.6-0.6,0.9c-0.1,0.1-0.3,0.1-0.5,0.1c-0.3,0-0.4-0.3-0.4-0.5c0.2-0.6,0.4-1.2,0.6-1.7c1.5-3.3,3.5-6.4,5.7-9.3
			c4.3-5.8,8.4-11.8,12.2-17.9c0.4-0.7,0.9-1.3,1.4-1.9C111.4,122.4,111.8,121.9,112.6,122.6z"/>
		<path class="st2" d="M68.6,39.5C62.2,48.1,55.8,56.7,48,64.1c-0.2,0.2-0.4,0.4-0.7,0.6c-0.4,0.3-0.8,0.7-1.2,0.2
			c-0.4-0.5-0.1-0.9,0.3-1.3c2-2.2,4.1-4.5,6.1-6.7c4.8-5.2,9.7-10.4,14.3-15.8C67.3,40.5,67.8,39.9,68.6,39.5z"/>
		<path class="st2" d="M30.8-12.2c-0.3,1.1-0.9,2-1.7,2.9c-4,4.6-7.9,9.2-12.2,13.5c-2.2,2.2-4.6,4.3-6.5,6.9
			c-0.2,0.3-0.5,0.6-0.9,0.3c-0.3-0.3-0.2-0.7,0-1c0.7-1.2,1.6-2.1,2.5-3.1C16.9,1.9,21.8-3.2,27-8.2C28.3-9.5,29.5-10.9,30.8-12.2z
			"/>
		<path class="st2" d="M92.2,115.2c0.1,0.5,0,0.8-0.2,0.9c-0.7,0.4-0.9,1.1-1.2,1.8c-2.9,6.5-6.8,12.5-10.3,18.6
			c-0.4,0.8-0.9,1.6-1.3,2.4c-0.2,0.4-0.4,0.9-0.9,0.7c-0.6-0.2-0.4-0.8-0.2-1.2c0.3-0.7,0.6-1.5,0.9-2.2c2.2-4.7,5.1-9,7.7-13.4
			c1.2-2,2.4-4.1,3.6-6.1c0.3-0.6,0.7-1.1,1.3-1.5C92,115.1,92.2,115.1,92.2,115.2z"/>
		<path class="st2" d="M258.4,39.3c1.4,0.4,2.6,0.7,3.8,1c0.4,0.1,0.9,0.2,0.9-0.5c0-0.5,0.1-1.3-0.7-1.2
			C261.2,38.8,259.9,38.3,258.4,39.3z M259.4,36.2c0.8,0.2,1.6,0.1,2.5,0.1c1,0,1.9,0.3,2.7,0.9c1,0.7,0.8,2.2,0.3,3.9
			c-0.4,1-1.1,1.4-2.4,1.1c-1.4-0.3-2.7-0.6-4-1c-1.4-0.4-2-1.3-1.7-2.5C257,37.2,258,36.2,259.4,36.2z"/>
		<path class="st2" d="M94.6-5.2C93.8-4,93.1-3,92.5-2c-2.2,3.7-4.8,7.1-7.4,10.5c-0.3,0.4-0.6,0.8-1,1.1c-0.4,0.3-0.9,0.4-1.3,0
			c-0.4-0.4-0.5-0.8-0.2-1.3c0.1-0.3,0.3-0.5,0.5-0.7c3.1-4,6.5-7.8,9.8-11.7C93.3-4.6,93.7-5,94.6-5.2z"/>
		<path class="st2" d="M89.3,19.7c-3.6,4.8-7.2,9.3-11,13.6c-0.4,0.4-0.8,0.9-1.3,1.3c-0.5,0.4-1,0.3-1.5-0.2c-0.4-0.5-0.4-1,0-1.5
			c0.4-0.5,0.9-1,1.4-1.4c3.6-3.7,7.5-7.3,11-11.1C88.2,20,88.5,19.6,89.3,19.7z"/>
		<path class="st2" d="M84.1,115.8c-2.2,5.4-4.4,10.5-7.8,14.9c-0.4,0.5-0.8,1-1.5,0.6c-0.7-0.4-0.5-1-0.2-1.6
			c0.8-1.3,1.6-2.5,2.5-3.8c1.9-2.7,3.6-5.4,5.3-8.3C82.8,117,83.2,116.3,84.1,115.8z"/>
		<path class="st2" d="M73.3-68.1c-2.8,4.6-5.5,8.9-8.2,13.2c-0.1,0.2-0.2,0.4-0.4,0.6c-0.2,0.3-0.5,0.6-0.9,0.4
			c-0.5-0.2-0.5-0.7-0.4-1.1c0.2-0.5,0.4-0.9,0.6-1.3c1.3-2.2,2.7-4.4,4.4-6.5c1.1-1.4,2.1-2.8,3.2-4.2
			C72.1-67.3,72.3-67.9,73.3-68.1z"/>
		<path class="st2" d="M21.7-11.1c0.6-1,1.4-1.7,1.7-2.7c-0.7-0.2-0.9,0.3-1.1,0.6c-0.7,1-1.4,2-2.1,3c-1.4,2.2-3.2,4-5,5.7
			c-0.4,0.4-0.9,0.7-1.4,0.1c-0.4-0.5-0.1-0.9,0.3-1.2c2.7-2.3,4.8-5.1,7.1-7.7c0.5-0.5,1-1.1,1.7-1.2c0.7-0.2,1.3,0.3,1.1,1
			C23.9-13,22.6-11.6,21.7-11.1z"/>
		<path class="st2" d="M34.6,79.5c-0.1,0.8-0.6,1.5-1.1,2.2c-1.7,2.6-3.7,5.1-5.7,7.5c-0.2,0.2-0.4,0.5-0.6,0.7
			c-0.2,0.2-0.4,0.2-0.7,0c-0.3-0.2-0.3-0.5-0.2-0.8c0.1-0.3,0.3-0.5,0.5-0.7c2.4-2.9,5-5.6,7.1-8.8C34.1,79.5,34.2,79.4,34.6,79.5z
			"/>
		<path class="st2" d="M115.5,194.2c-0.2,0.4-0.2,0.6-0.3,0.8c-2.6,3.8-5.1,7.6-8.4,10.9c-0.1,0.1-0.3,0.3-0.4,0.4
			c-0.2,0.1-0.3,0.1-0.5,0c-0.2-0.1-0.2-0.3-0.1-0.5c0.3-0.4,0.5-0.8,0.8-1.2c3-3.1,5.7-6.6,8.2-10.1
			C115,194.4,115.2,194.4,115.5,194.2z"/>
		<path class="st2" d="M34.7,88.1c-1.2,2.4-2.6,4.6-4,6.8c-0.1,0.1-0.1,0.2-0.2,0.3c-0.3,0.3-0.7,0.5-1.1,0.2
			c-0.4-0.3-0.4-0.7-0.1-1.1c0.2-0.3,0.5-0.7,0.8-1c1.5-1.8,3-3.7,4.4-5.5C34.5,87.9,34.6,88,34.7,88.1z"/>
		<path class="st2" d="M66.8,51.5c-0.8,1.4-1.6,2.8-2.4,4.2c-1,1.7-2.2,3.2-3.4,4.7c-0.2,0.3-0.4,0.6-0.8,0.7c-0.1,0-0.3,0-0.5-0.1
			c-0.2-0.1-0.2-0.3-0.1-0.5c0.1-0.2,0.2-0.4,0.4-0.6c2.3-2.6,4.5-5.2,6.2-8.2C66.3,51.5,66.4,51.4,66.8,51.5z"/>
		<path class="st2" d="M31.4,74.6c-0.4,0.6-0.9,1.2-1.3,1.8c-1,1.5-1.9,2.9-2.8,4.4c-0.2,0.3-0.5,0.7-1,0.5
			c-0.5-0.3-0.5-0.7-0.2-1.1c1.4-2,2.9-4,4.8-5.6C30.9,74.5,31.1,74.3,31.4,74.6z"/>
		<path class="st2" d="M104.8,2.1c-0.5,1.5-1.3,2.5-2,3.4c-0.9,1.2-1.9,2.4-2.8,3.5c-0.3,0.3-0.6,0.7-1.1,0.3
			c-0.3-0.3,0-0.7,0.2-0.9c0.9-1,1.8-1.9,2.6-3c0.5-0.6,1.2-1,1.1-2.1C102.9,2.6,103.9,2.6,104.8,2.1z"/>
		<path class="st2" d="M142.8,162.1c-0.6,0.8-1.2,1.6-1.8,2.4c-1.1,1.3-2.3,2.6-3.1,4.2c-0.2,0.4-0.5,0.8-1,0.5
			c-0.5-0.2-0.4-0.7-0.2-1.1c0.4-0.9,1-1.6,1.7-2.3c1.3-1.3,2.7-2.5,4-4C142.6,161.9,142.7,162,142.8,162.1z"/>
		<path class="st2" d="M107.9,185.1c0.1,0.8-0.5,1.2-0.8,1.8c-0.8,1.5-1.9,2.8-2.4,4.5c-0.1,0.3-0.3,0.7-0.8,0.5
			c-0.4-0.2-0.3-0.6-0.2-0.9c0.2-0.4,0.3-0.8,0.6-1.1C105.3,188.1,106.6,186.6,107.9,185.1z"/>
		<path class="st2" d="M81.6-67.1c0,2.3-0.9,4.2-2.2,5.9c-0.2,0.2-0.5,0.4-0.8,0.1c-0.2-0.2-0.2-0.4-0.1-0.7c0-0.1,0-0.1,0.1-0.2
			C79.7-63.6,80.7-65.3,81.6-67.1z"/>
		<path class="st2" d="M64.6-62.3c-0.9,1.7-1.9,3.3-2.7,5.1c-0.1,0.3-0.3,0.7-0.8,0.6c-0.4-0.2-0.4-0.6-0.2-0.9
			C61.8-59.4,62.8-61.1,64.6-62.3z"/>
		<path class="st2" d="M82,33.3c1.1,0.7,1,1.3,0.7,1.7c-0.9,1.4-2,2.6-3.1,3.7c-0.2,0.2-0.5,0.3-0.8,0c-0.2-0.3-0.1-0.6,0.1-0.8
			c0.9-0.9,1.8-1.8,2.7-2.6C82.1,34.9,82.6,34.4,82,33.3z"/>
		<path class="st2" d="M89.4-6.5c-0.6,0.9-1.1,1.9-1.7,2.8c-0.1,0.2-0.3,0.4-0.6,0.2c-0.2-0.1-0.4-0.3-0.2-0.6
			C87.5-5.2,88.1-6.2,89.4-6.5z"/>
		<path class="st2" d="M32.7,97.5c0.2-1.1,1-1.6,1.7-2.3C34.1,96.3,33.5,97,32.7,97.5z"/>
		<path class="st2" d="M50.7,97.1c0.2,1-0.2,1.5-0.4,2.1c-0.1,0.2-0.3,0.2-0.5,0.1c-0.1-0.1-0.3-0.3-0.3-0.4
			C49.6,98.2,49.9,97.7,50.7,97.1z"/>
		<path class="st2" d="M64.3,64.6c0.4-0.7,0.9-1.5,1.3-2.2c0.1,1-0.4,1.8-1,2.4C64.5,64.8,64.4,64.7,64.3,64.6z"/>
		<path class="st2" d="M93.9,24.1c-0.6,0.6-1.1,0.7-1.7,1.1C92.7,24.2,92.7,24.2,93.9,24.1z"/>
		<path class="st2" d="M105.2,8.1c0-0.8,0.6-1.3,1.2-2.1C106.4,7.2,105.9,7.7,105.2,8.1z"/>
		<path class="st2" d="M54.6,102.9c-0.3,0-0.4-0.1-0.4-0.3c0-0.3,0.3-0.5,0.6-0.6c0.3-0.1,0.3,0.1,0.3,0.3
			C55,102.6,54.8,102.8,54.6,102.9z"/>
		<path class="st2" d="M63,111.6c-0.5,0.2-0.6,0-0.6-0.1c0-0.3,0.2-0.4,0.5-0.4c0.2,0,0.4,0,0.3,0.2C63.2,111.5,63,111.6,63,111.6z"
			/>
		<path class="st2" d="M277.3,8.7c-0.7,0.6-1.3,1.2-2,1.7c-1.1,0.9-2.3,1.5-3.7,1.2c-1.2-0.3-2.2-0.3-3.2,0.5
			c-0.2,0.1-0.4,0.2-0.7,0.2c-0.5,0.1-1,0.1-1.1,0.7c-0.1,0.6,0.5,0.5,0.8,0.8c1.5,1.1,1.5,2.6,0,3.7c-0.4,0.3-1,0.3-1.6,1.1
			c1.3,0,2.3-0.2,3.3,0c1.1,0.2,1.7,0.1,2.4-0.9c1-1.4,2.6-1.5,4-0.5c0.7,0.5,1.3,1.1,2,1.6c1.9,1.4,4.2,1.1,6-0.7
			c-0.9-0.6-1.8-0.9-2.8-1c-2.5-0.4-3.6-2-2.6-4.2C278.9,11.2,278.7,10,277.3,8.7z M274,20.4c-0.5,1.5-1.8,1.7-3.1,1.6
			c-1.8,0-3.5-0.1-5.3-0.2c-2.9-0.3-4-2.5-2.5-4.9c0.6-0.9,0.6-1.6,0.4-2.6c-0.2-1.7,0.2-3.3,1.8-4.2c0.5-0.3,0.8-0.6,1-1.2
			c0.3-1.1,0.9-1.4,2.1-1.2c1,0.2,2,0.4,3,0.7c0.9,0.3,1.5,0.1,2.1-0.5c0.5-0.5,1-0.9,1.5-1.3c1.9-1.5,3.9-1.2,5.3,0.8
			c0.5,0.8,1.1,1.5,1.4,2.3c0.4,1.1,0.3,2.2-0.2,3.2c-0.4,0.7-0.3,1.1,0.6,1.3c1,0.2,2,0.7,2.9,1.1c2.3,1.1,2.7,3.3,0.9,5.1
			c-2.8,2.7-5.4,3.3-9.1,1.9C275.7,21.9,275.1,20.9,274,20.4z"/>
		<path class="st2" d="M287.4,96.2c-0.3,1.4-1.1,2.4-1.7,3.5c-3.4,6.5-6.8,13-10.2,19.5c-3.3,6.1-7.3,11.8-11,17.6
			c-4,6.3-7.7,12.6-10.7,19.4c-0.7,1.5-1.2,3-1.8,4.6c-0.2,0.4-0.3,0.8-0.5,1.2c-0.1,0.2-0.3,0.4-0.6,0.4c-0.4-0.1-0.4-0.4-0.4-0.7
			c0.1-0.6,0.3-1.2,0.4-1.8c1.7-5.7,4.2-11,6.9-16.2c3.8-7.3,8.4-14.2,12.8-21.2c2.9-4.6,5.3-9.4,8.2-14c2.5-4.1,5.3-8,7.9-12
			C286.9,96.4,287,96.2,287.4,96.2z"/>
		<path class="st2" d="M289.4,106.7c-1,0.3-1.2,1.1-1.6,1.9c-2.1,4.6-4,9.2-6,13.9c-4.4,10.3-10,19.9-15.7,29.5
			c-4.4,7.3-8.9,14.6-12.6,22.3c-0.5,1-0.9,2-1.3,3c-0.2,0.4-0.3,0.8-0.6,1.1c-0.3,0.3-0.9,0.2-1-0.3c-0.1-0.6,0.1-1.1,0.2-1.6
			c1-3.1,2.3-6.1,3.9-9c3.7-6.5,7.5-12.9,11.3-19.3c5.9-10.1,11.6-20.3,16.6-30.9c1.5-3.2,3.2-6.4,4.8-9.6
			C288,107.1,288.4,106.3,289.4,106.7z"/>
		<path class="st2" d="M227.9,48.4c0.5,0.8,0,1.5-0.3,2.1c-2,4.3-4.3,8.4-6.7,12.5c-5.9,9.8-11.5,19.8-17.1,29.8
			c-2.3,4.2-4.9,8.2-7.1,12.5c-0.1,0.3-0.3,0.5-0.5,0.8c-0.2,0.2-0.4,0.3-0.7,0.1c-0.2-0.1-0.3-0.4-0.3-0.6c0.1-0.4,0.3-0.8,0.5-1.2
			c6.2-12.4,12.3-24.9,19.5-36.8c3-5,6.3-10,9.7-14.7c0.9-1.2,1.9-2.4,2.1-4C227.2,48.7,227.4,48.5,227.9,48.4z"/>
		<path class="st2" d="M280.5,86.4c-1.1,4.1-2.7,7.8-4.2,11.5c-4.6,11.1-11.2,21.1-17.7,31.1c-3.6,5.5-7.1,11.1-9.8,17.2
			c-0.5,1.1-0.9,2.1-1.3,3.2c-0.1,0.3-0.3,0.6-0.7,0.4c-0.2-0.1-0.3-0.4-0.2-0.7c0.2-0.8,0.4-1.5,0.7-2.2c2.8-7,6.4-13.5,10.3-19.8
			c4.4-7,9-13.8,13.1-21c2.6-4.7,5-9.4,7.3-14.2c0.6-1.3,1-2.6,1.5-3.9C279.7,87.4,279.8,86.8,280.5,86.4z"/>
		<path class="st2" d="M265,55.5c-1.1,0.9-1.8,2.1-2.4,3.3c-5.5,11-11.5,21.7-17.9,32.2c-1.8,2.9-3.5,5.8-5,8.9
			c-0.3,0.5-0.5,1.4-1.2,1.1c-0.8-0.4-0.2-1.2,0-1.7c2.5-5.6,5.2-11.1,8.1-16.5c4.1-7.6,8.8-14.8,13.6-21.9c0.9-1.4,1.6-2.8,2.7-4.1
			C263.5,56.2,264,55.4,265,55.5z"/>
		<path class="st2" d="M214.3,43.9c0.4,1.3-0.1,2.2-0.4,3.1c-3.4,8.7-7.8,16.9-13.1,24.7c-2.9,4.3-5.7,8.7-8.1,13.4
			c-0.4,0.7-0.6,1.4-1,2.1c-0.2,0.4-0.5,0.9-1.1,0.7c-0.5-0.2-0.4-0.7-0.3-1.1c0.4-1.7,1.1-3.2,1.8-4.7c2.4-4.7,5.2-9.2,8-13.7
			c3.2-5.1,6-10.4,9.1-15.6C210.8,49.9,212.7,47.1,214.3,43.9z"/>
		<path class="st2" d="M276.9,75.7c0.1,1.8-0.5,3.4-1.1,5.1c-3.2,8.7-7.4,17-12.5,24.8c-3.8,6-8.1,11.7-11.6,17.8
			c-0.9,1.5-1.7,3.1-2.4,4.7c-0.2,0.4-0.4,0.9-0.7,1.3c-0.1,0.2-0.4,0.3-0.6,0.1c-0.1-0.1-0.3-0.3-0.3-0.4c0-0.6,0.2-1.1,0.4-1.6
			c1.5-4,3.4-7.8,5.7-11.4c3.9-6.1,8-12,11.9-18.1c3.5-5.5,6.6-11.3,9.4-17.3C275.8,79.2,276.2,77.4,276.9,75.7z"/>
		<path class="st2" d="M203.8,107c-0.4-0.6,0.1-1.1,0.3-1.6c1.3-3.2,2.9-6.3,4.6-9.3c5.2-9.6,10.4-19.2,15.9-28.6
			c2.5-4.3,5.1-8.7,8.1-12.8c0.3-0.4,0.6-0.9,0.8-1.4c0.1-0.5,0.4-0.8,0.9-1c0.3,0.8-0.2,1.4-0.5,1.9c-3.6,6.7-7.1,13.5-10.8,20.2
			c-2.8,5-5.9,9.7-8.9,14.6c-3.4,5.6-6.9,11.2-9.5,17.2C204.5,106.6,204.4,107.1,203.8,107z"/>
		<path class="st2" d="M240.1,55.4c-7.8,16.4-16.2,32.4-26.1,47.6c-0.1,0.1-0.3,0.2-0.5,0.1c-0.4-0.6,0-1,0.3-1.5
			c0.7-1.3,1.3-2.6,2.1-3.8c4-6,7.2-12.5,10.5-18.9c3.5-6.9,7-13.7,11.2-20.2C238.4,57.6,239.1,56.4,240.1,55.4z"/>
		<path class="st2" d="M271.8-26.2c-2.4,2.9-4.1,6.1-5.9,9.2c-5,8.7-10.7,17-16.8,25.1c-1.4,1.9-2.8,3.8-3.9,5.9
			c-0.2,0.5-0.5,1-1,0.7c-0.7-0.3-0.5-0.9-0.3-1.4c0.6-1.3,1.4-2.6,2.2-3.7c1.7-2.3,3.4-4.7,5.2-7c5.1-6.8,9.4-14.2,14-21.3
			c1.4-2.2,2.9-4.3,4.5-6.4C270.4-25.6,270.8-26.3,271.8-26.2z"/>
		<path class="st2" d="M273.1,66.3c0.3,1.2-0.2,2.3-0.6,3.3c-4.2,10.7-9.8,20.7-15.9,30.4c-3.4,5.5-6.8,10.9-9.3,16.8
			c-0.1,0.3-0.2,0.7-0.8,0.8c-0.4-0.6,0-1.1,0.2-1.6c1.4-3.6,3.3-6.9,5.2-10.2c1.4-2.5,2.9-4.9,4.4-7.4c5.6-9.6,10.7-19.4,15.7-29.4
			C272.3,68.2,272.6,67.2,273.1,66.3z"/>
		<path class="st2" d="M221.9,45.6c0.6,0.8,0.2,1.6-0.1,2.2c-0.7,1.5-1.5,3.1-2.2,4.6c-5.2,10-11.4,19.5-17.6,28.9
			c-2.5,3.8-5.2,7.6-7,11.9c-0.1,0.2-0.2,0.5-0.4,0.6c-0.3,0.2-0.6,0.1-0.7-0.3c-0.1-0.5,0.1-0.8,0.3-1.2c0.7-1.8,1.5-3.4,2.6-5
			c6.9-10.1,13.1-20.7,19.3-31.2c1.2-2.1,2.6-4.1,3.8-6.2C220.8,48.5,221.6,47.2,221.9,45.6z"/>
		<path class="st2" d="M227.8,106.9c-0.1-0.2-0.2-0.4-0.1-0.5c9.2-17.1,17.3-34.7,27.4-51.3c0.3-0.5,0.6-1.1,1.2-1.4
			c0.1,0.1,0.1,0.2,0.1,0.2c-3.7,6-6.6,12.4-9.7,18.7c-4.2,8.5-8.8,16.7-13.3,25c-1.4,2.7-2.9,5.3-4.4,8
			C228.7,106,228.6,106.7,227.8,106.9z"/>
		<path class="st2" d="M248.9,54c0.3,0.3,0.2,0.4,0.1,0.6c-1.7,2.1-2.7,4.6-3.8,7c-3.3,7.3-7,14.4-11,21.3
			c-2.3,4.1-4.6,8.1-6.8,12.2c-0.3,0.6-0.7,1.8-1.3,1.4c-0.9-0.5,0.1-1.4,0.4-2c4.8-10.3,10.4-20.3,16.1-30.1
			c1.5-2.6,2.7-5.4,4.4-7.9C247.5,55.6,248.1,54.7,248.9,54z"/>
		<path class="st2" d="M242.2-56c-0.7,1.4-1.7,2-2.4,2.9c-4.3,5.9-9,11.4-13.8,16.9c-0.5,0.5-0.9,1.1-1.5,1.6
			c-0.4,0.4-0.9,0.5-1.3,0.1c-0.4-0.3-0.4-0.8-0.2-1.2c0.2-0.4,0.4-0.7,0.6-1.1c4.7-6.6,10.1-12.5,16.2-17.9
			C240.4-55.1,241-55.6,242.2-56z"/>
		<path class="st2" d="M267.4-32c0.2,0.7-0.2,1.2-0.5,1.6c-3.5,6.1-7.1,12.2-10.6,18.2c-1.1,1.9-2.2,3.9-3.3,5.8
			c-3.3,5.8-7.4,11-10.9,16.6c-0.1,0.2-0.3,0.4-0.5,0.6c-0.1,0.1-0.4,0.2-0.5,0.1c-0.2-0.1-0.3-0.4-0.2-0.6c0.1-0.3,0.3-0.7,0.5-1
			c1.9-3.1,3.7-6.3,5.9-9.2c3.5-4.8,6.2-10.2,9.4-15.2c3.5-5.5,7-11.1,10.4-16.6C267-31.7,267.1-31.8,267.4-32z"/>
		<path class="st2" d="M207.2,49.2c-0.1,1-0.6,1.8-1.1,2.6c-1.4,2.7-3.3,5.1-4.9,7.7c-3.7,6.1-7.3,12.3-11,18.4
			c-0.3,0.5-0.6,1-1,1.5c-0.2,0.3-0.6,0.4-1,0.2c-0.3-0.2-0.4-0.5-0.3-0.8c0.1-0.4,0.3-0.8,0.4-1.2c0.8-1.9,1.8-3.7,2.9-5.5
			c3.9-6.3,7.5-12.8,12.4-18.4c1.1-1.2,1.8-2.7,2.8-4.1C206.6,49.6,206.7,49.2,207.2,49.2z"/>
		<path class="st2" d="M275.3-19.4c-0.1,0.8-0.7,1.5-1.2,2.1c-2.6,3.9-4.7,8.1-7.2,12c-2.8,4.4-6.1,8.5-9.1,12.7
			c-1.6,2.2-3.2,4.3-4.5,6.6c-0.2,0.3-0.4,0.6-0.6,0.9c-0.1,0.1-0.3,0.2-0.5,0c-0.1-0.1-0.3-0.3-0.3-0.4c-0.1-0.5,0.2-0.8,0.4-1.2
			c1.1-2.2,2.5-4.2,3.9-6.1c4.8-6.6,9.7-13.2,14-20.2c1.4-2.2,3-4.2,4.6-6.3C274.9-19.4,275.1-19.6,275.3-19.4z"/>
		<path class="st2" d="M227.8-4.4c-3,6.1-6.8,11.4-10.6,16.7c-0.9,1.3-1.8,2.6-2.5,4c-0.2,0.4-0.4,0.8-1,0.5
			c-0.5-0.2-0.4-0.7-0.2-1.1c0.6-1.4,1.4-2.7,2.3-3.9c2.8-3.9,5.4-7.9,8.3-11.7c0.7-0.9,1.3-2,2-3C226.4-3.5,226.7-4.3,227.8-4.4z"
			/>
		<path class="st2" d="M298.7,32.4c0.2,0.7,0,1.3-0.4,1.6c-0.7,0.5-1,1.2-1.4,1.9c-2.8,5-6.3,9.5-10,13.8c-0.6,0.7-1.2,1.5-1.9,2.2
			c-0.2,0.3-0.5,0.6-0.9,0.3c-0.3-0.3-0.3-0.6-0.1-1c0.4-0.6,0.7-1.1,1.1-1.6c4.1-5.1,8.2-10.2,11.9-15.6
			C297.5,33.4,297.8,32.7,298.7,32.4z"/>
		<path class="st2" d="M298.3,21.6c0.3,0.5-0.1,0.7-0.3,1c-3.4,5-6.7,10.1-10.6,14.7c-1.2,1.5-2.4,3-3.2,4.8
			c-0.2,0.4-0.3,0.9-0.9,0.7c-0.7-0.3-0.3-0.8-0.1-1.3c0.2-0.5,0.4-1,0.7-1.5c0.4-0.7,0.8-1.4,1.3-2c3.7-4.9,7.4-9.7,11.1-14.6
			C296.9,22.8,297.4,22,298.3,21.6z"/>
		<path class="st2" d="M272.7,147.4c0.5,1.2,0.2,2-0.1,2.7c-2.5,5.5-4.9,11.1-9,15.7c-0.2,0.3-0.5,0.6-0.7,0.8
			c-0.3,0.3-0.7,0.3-1,0.1c-0.3-0.3-0.4-0.6-0.2-1c0.2-0.4,0.5-0.8,0.8-1.2c3.1-4.1,5.9-8.5,8.5-12.9
			C271.8,150.4,272.5,149.2,272.7,147.4z"/>
		<path class="st2" d="M302.4,40.3c-1.6,2.3-3.2,4.6-5,6.9c-2.2,2.9-4.6,5.8-6.9,8.7c-0.1,0.2-0.3,0.4-0.5,0.5
			c-0.2,0.2-0.5,0.4-0.8,0.1c-0.3-0.2-0.3-0.5-0.2-0.8c0.2-0.4,0.4-0.9,0.7-1.3c1-1.5,2.1-2.8,3.2-4.2c2.5-2.9,5-5.9,7.6-8.9
			C301,40.9,301.4,40.3,302.4,40.3z"/>
		<path class="st2" d="M232.5-3c0.4,1-0.1,1.6-0.5,2.2c-2,3.2-4,6.5-6.5,9.4c-1.5,1.8-2.9,3.7-4,5.9c-0.1,0.1-0.1,0.2-0.1,0.3
			c-0.2,0.4-0.5,0.7-1,0.5c-0.4-0.2-0.3-0.6-0.2-1c0.4-1,0.8-1.9,1.4-2.8c0.6-0.8,1.1-1.7,1.8-2.5c3.2-3.6,5.9-7.5,8.7-11.4
			C232.3-2.5,232.4-2.7,232.5-3z"/>
		<path class="st2" d="M240.2-7.1c-1,1.9-2,3.8-3.1,5.7c-0.6,1.1-1.4,2.1-2.2,3.1c-2.9,3.7-5.5,7.5-7.4,11.8
			c-0.2,0.5-0.4,1.3-1.2,1.4c-0.3-0.4-0.1-0.6,0-0.9c1.7-3.8,3.6-7.5,6.1-10.9c2.2-2.9,4.2-5.8,6-8.8C239-6.3,239.3-7,240.2-7.1z"/>
		<path class="st2" d="M304.5,48.7c-1.3,1.8-2.4,3.5-3.6,5c-2,2.7-4,5.5-6.1,8.2c-0.4,0.5-0.7,1.4-1.5,1c-0.8-0.5-0.2-1.3,0.1-1.9
			c0.6-1.3,1.7-2.2,2.6-3.3c2.2-2.6,4.5-5.2,6.8-7.9C303.2,49.4,303.5,48.9,304.5,48.7z"/>
		<path class="st2" d="M280.1-16.1c0.2,1-0.4,1.6-0.8,2.2c-2.6,3.9-5.2,7.7-7.9,11.5c-0.9,1.3-1.7,2.6-2.5,4
			c-0.2,0.3-0.4,0.6-0.9,0.4c-0.4-0.2-0.3-0.6-0.2-1c0.5-1.1,1.1-2.2,1.8-3.1c2.6-3.6,5.2-7.1,8-10.5
			C278.5-13.7,279.3-14.9,280.1-16.1z"/>
		<path class="st2" d="M220.7-1.4c0.1,1.6-0.6,2.5-1.2,3.5c-1.4,2.3-2.8,4.5-4.2,6.8c-0.6,1-1.2,2.1-1.8,3.2
			c-0.3,0.4-0.5,0.9-1.1,0.7c-0.7-0.3-0.5-0.9-0.3-1.4c0.7-1.5,1.6-2.9,2.4-4.3C216.4,4.1,218.7,1.7,220.7-1.4z"/>
		<path class="st2" d="M303.3,56.7c0.4,1.2-0.1,1.8-0.5,2.3c-2.2,2.8-4.2,5.8-6.2,8.7c-0.2,0.2-0.4,0.5-0.6,0.7
			c-0.3,0.2-0.6,0.2-0.9,0c-0.3-0.2-0.4-0.5-0.3-0.8c0.2-0.6,0.5-1.1,0.8-1.6c1.5-2.3,3.3-4.3,5.3-6.2
			C301.8,58.9,302.7,58.1,303.3,56.7z"/>
		<path class="st2" d="M280.1,145.6c0.6,1,0,1.9-0.4,2.7c-1.2,2.6-2.6,5-4.1,7.5c-0.7,1.1-1.3,2.2-2,3.2c-0.2,0.4-0.6,0.7-1,0.4
			c-0.4-0.3-0.2-0.6,0-1c0.4-0.8,0.8-1.6,1.3-2.4c1.6-2.4,3.2-4.7,4.7-7.1C279.2,147.9,279.9,146.9,280.1,145.6z"/>
		<path class="st2" d="M296.5,101.7c0.4,0.7,0.2,1.1,0,1.6c-1.5,3.3-3.2,6.4-4.9,9.5c-0.1,0.3-0.3,0.5-0.6,0.7
			c-0.5,0.3-0.8,0.1-0.9-0.4c-0.1-0.4,0-0.7,0.2-1C292.1,108.4,294.4,105.2,296.5,101.7z"/>
		<path class="st2" d="M256.5-47.2c-2.1,2.6-4,5.2-5.8,7.8c-0.5,0.8-1.1,1.6-1.6,2.4c-0.2,0.4-0.5,0.8-1,0.4c-0.4-0.3-0.2-0.6,0-1
			c1-2,2.3-3.7,3.7-5.4c1.2-1.4,2.3-2.8,3.7-4C255.7-47.1,255.9-47.3,256.5-47.2z"/>
		<path class="st2" d="M253.6-51.7c-1.9,2.3-3.4,4.7-5,7.1c-0.4,0.6-0.8,1.6-1.6,1.1c-0.8-0.5-0.2-1.3,0.2-1.9
			c1.4-2.3,3.3-4.2,5.2-6C252.7-51.6,253-51.9,253.6-51.7z"/>
		<path class="st2" d="M245.5,167.1c0.7,1.3,0.6,2.6,0,3.8c-1,1.9-2,3.8-3,5.8c-0.2,0.4-0.5,0.8-1,0.6c-0.5-0.2-0.6-0.7-0.4-1.2
			c0.3-0.5,0.5-1.1,0.8-1.6c0.6-0.9,1.2-1.7,1.8-2.5C244.8,170.5,245.6,169,245.5,167.1z"/>
		<path class="st2" d="M283.1-9.3c-2,1.6-2.9,4-4.3,6c-0.6,0.9-1.1,1.9-1.7,2.8c-0.2,0.4-0.6,0.6-1.1,0.4c-0.3-0.2-0.3-0.7-0.2-1
			c1.8-3,3.8-5.9,6.4-8.2C282.5-9.5,282.7-9.6,283.1-9.3z"/>
		<path class="st2" d="M247.5-6.8c-1.1,1-1.8,2.3-2.4,3.5c-1.7,3.2-4.1,5.9-5.9,9c-0.1,0.2-0.3,0.4-0.6,0.3
			c-0.4-0.1-0.3-0.5-0.2-0.8c0.5-1.1,1.2-2.1,1.9-3.1c1.9-2.3,3.5-4.8,5.1-7.3C246-5.8,246.4-6.6,247.5-6.8z"/>
		<path class="st2" d="M254.5-21.1c-0.7,1.3-1.3,2.5-2,3.7c-1.2,2.2-2.6,4.4-4,6.4c-0.3,0.4-0.5,0.8-1,1.1c-0.2,0.1-0.4,0.1-0.5-0.1
			c-0.1-0.1-0.1-0.2-0.1-0.3c0-0.2,0.1-0.4,0.2-0.5c2.3-3.4,4.6-6.8,6.9-10.2C254-21,254.1-21,254.5-21.1z"/>
		<path class="st2" d="M207,24.8c-1.7,1.6-2.9,3.7-4.1,5.6c-0.3,0.5-0.6,0.9-1,1.3c-0.3,0.4-0.7,0.5-1.1,0.2c-0.4-0.3-0.3-0.6-0.1-1
			c1.5-2.3,3-4.5,5.2-6.1c0.2-0.2,0.5-0.2,0.8-0.4C206.9,24.6,207,24.7,207,24.8z"/>
		<path class="st2" d="M230.8-36.3c-1.7,2.2-3.5,4.2-5.5,6c-0.4,0.4-0.8,0.7-1.2,1.1c-0.4,0.3-0.8,0.7-1.2,0.2
			c-0.5-0.6,0.1-1,0.4-1.3c0.5-0.4,1-0.7,1.4-1.1c1.5-1.2,3-2.4,4.3-3.8C229.6-35.7,230-36.3,230.8-36.3z"/>
		<path class="st2" d="M301.9,103.2c-1.3,2.3-2.5,4.6-4,6.7c-0.2,0.2-0.4,0.4-0.7,0.6c-0.3,0.2-0.6,0.2-0.8-0.1
			c-0.2-0.2-0.2-0.4-0.2-0.7c0.1-0.2,0.2-0.5,0.3-0.6c1.5-1.9,3.1-3.9,4.6-5.8C301.3,103.2,301.5,103,301.9,103.2z"/>
		<path class="st2" d="M286.5-4.4c0,0.9-0.4,1.4-0.9,2c-1.1,1.4-2.3,2.7-3.2,4.1c-0.2,0.4-0.5,0.8-1,0.5c-0.6-0.3-0.4-0.8-0.1-1.2
			c0.2-0.3,0.5-0.7,0.8-1C283.3-1.6,285.1-2.8,286.5-4.4z"/>
		<path class="st2" d="M274,24.1c-0.9,1.5-1.6,3-2.2,4.6c-0.2,0.5-0.5,1-1.2,0.8c-0.7-0.3-0.6-0.8-0.4-1.4
			C271.1,26.3,272.1,24.8,274,24.1z"/>
		<path class="st2" d="M303.4,66.4c-1.1,2.4-2.8,4.2-4.7,5.8c-0.3,0.2-0.6,0.5-0.9,0.2c-0.3-0.4,0-0.7,0.2-0.9
			c1.1-1,2.2-2.1,3.3-3.1C302,67.7,302.4,66.7,303.4,66.4z"/>
		<path class="st2" d="M291.8,6.7c0.2,0.8-0.2,1.2-0.5,1.6c-0.8,1.1-1.6,2.1-2.2,3.3c-0.2,0.4-0.5,0.8-1,0.6
			c-0.6-0.2-0.5-0.8-0.3-1.2c0.3-0.6,0.6-1.2,1.1-1.6C289.9,8.4,290.8,7.6,291.8,6.7z"/>
		<path class="st2" d="M261.4,11.3c0.2,0.7-0.2,1.1-0.4,1.5c-1.1,1.7-2.3,3.4-3.3,5.2c-0.1,0.3-0.3,0.6-0.7,0.4
			c-0.3-0.2-0.3-0.5-0.2-0.8c0-0.1,0.1-0.2,0.1-0.3C258.1,15.1,259.6,13.2,261.4,11.3z"/>
		<path class="st2" d="M208.6,26c-0.5,3.1-2.8,4.9-4.8,7.1c-0.6-0.8-0.1-1.1,0.2-1.4c1-1.2,2.1-2.3,3.1-3.6
			C207.6,27.5,208.1,26.7,208.6,26z"/>
		<path class="st2" d="M240.1-59.4c-0.8,1-1.6,1.9-2.4,2.9c-1.1,1.2-2.2,2.3-3.3,3.4c-0.2,0.2-0.4,0.3-0.6,0.1
			c-0.3-0.2-0.1-0.4,0-0.6c0.1-0.2,0.2-0.3,0.3-0.4c1.9-1.9,3.8-3.8,5.6-5.6C239.9-59.6,240-59.5,240.1-59.4z"/>
		<path class="st2" d="M290.3,1.3c-1.4,1.8-2.6,3.7-3.8,5.6c-0.1,0.2-0.4,0.4-0.6,0.3c-0.3-0.2-0.4-0.5-0.2-0.8
			C286.9,4.4,288.2,2.5,290.3,1.3z"/>
		<path class="st2" d="M236.7-61.8c-1.7,1.8-3.2,3.7-4.8,5.5c-0.2,0.2-0.4,0.5-0.7,0.2c-0.2-0.2-0.2-0.5,0-0.7
			C232.8-58.6,234.4-60.6,236.7-61.8z"/>
		<path class="st2" d="M192.7,64.6c-1.1,2.3-2.1,4.6-3.2,6.9c-0.1,0.2-0.3,0.4-0.4,0.6c-0.1,0.1-0.2,0.1-0.3,0.1
			c-0.2-0.1-0.3-0.2-0.2-0.4c0-0.1,0-0.1,0.1-0.2c1.2-2.3,2.4-4.6,3.6-6.9C192.2,64.6,192.4,64.6,192.7,64.6z"/>
		<path class="st2" d="M204.7,48c-1,1.6-1.9,3.3-2.9,4.9c-0.2,0.3-0.4,0.5-0.8,0.4c-0.3-0.1-0.4-0.5-0.2-0.7
			C201.9,50.8,202.8,49,204.7,48z"/>
		<path class="st2" d="M238.6,126.2c1.2-2.1,3-3.7,4.1-6.3C242.8,122.1,240.5,125.6,238.6,126.2z"/>
		<path class="st2" d="M234.6-28.8c-0.6,1.7-1.7,3-2.8,4.3c-0.2,0.3-0.6,0.5-0.9,0.2c-0.4-0.4-0.2-0.7,0.1-1.1
			C232.2-26.5,233.4-27.7,234.6-28.8z"/>
		<path class="st2" d="M304.1,72.7c-1,1.3-2.2,2.4-3.2,3.7c-0.2,0.3-0.5,0.5-0.9,0.2c-0.3-0.3-0.2-0.7,0.1-1
			C301.3,74.4,302.6,73.4,304.1,72.7z"/>
		<path class="st2" d="M259.5-42.3c-0.9,1.2-1.8,2.4-2.7,3.6c-0.2,0.3-0.5,0.4-0.8,0.3c-0.4-0.2-0.4-0.6-0.2-0.9
			c1-1.2,2-2.3,3.4-3.1C259.3-42.5,259.4-42.4,259.5-42.3z"/>
		<path class="st2" d="M264.7-39.2c-1.2,1.5-2.4,3-3.4,4.6c-0.2,0.2-0.4,0.6-0.7,0.4c-0.4-0.3-0.1-0.7,0-0.9
			C261.7-36.7,262.9-38.2,264.7-39.2z"/>
		<path class="st2" d="M243.8,157.1c-0.9,2-1.5,4-2.7,5.8C241.4,160.7,242.3,158.7,243.8,157.1z"/>
		<path class="st2" d="M248.1,182.6c-0.5,1.6-0.9,3.2-2.1,4.9C246,185.8,246.8,183.9,248.1,182.6z"/>
		<path class="st2" d="M279,26c-0.6,1-1.1,1.9-1.7,2.9c-0.2,0.3-0.4,0.5-0.7,0.3c-0.3-0.2-0.3-0.5-0.2-0.8
			C276.9,27.4,277.7,26.4,279,26z"/>
		<path class="st2" d="M230.4-30.2c-0.7,0.8-1.4,1.6-2.1,2.4c-0.3,0.3-0.6,0.4-0.9,0.1c-0.4-0.4-0.1-0.7,0.2-0.9
			c0.8-0.7,1.6-1.4,2.6-1.8C230.2-30.4,230.3-30.3,230.4-30.2z"/>
		<path class="st2" d="M212.2,24.3c0.7-1.5,1.6-2.8,2.6-4c0.1,0.1,0.2,0.2,0.3,0.2c-0.9,1.3-1.8,2.7-2.7,4
			C212.4,24.5,212.3,24.4,212.2,24.3z"/>
		<path class="st2" d="M203.9,24.7c-0.5,0.9-1.2,1.6-1.9,2.3c-0.2,0.2-0.4,0.3-0.6,0c-0.2-0.2-0.1-0.4,0-0.6c0.7-0.7,1.5-1.3,2.2-2
			C203.7,24.5,203.8,24.6,203.9,24.7z"/>
		<path class="st2" d="M268.4,24.4c-0.1,1.2-0.6,2.1-1.3,3c-0.1,0.2-0.4,0.3-0.6,0.1c-0.2-0.1-0.2-0.4-0.1-0.5
			C267,26.2,267.4,25.1,268.4,24.4z"/>
		<path class="st2" d="M249.3-53.7c-0.7,0.7-1.4,1.4-2.1,2.1c-0.2,0.2-0.4,0.2-0.6,0c-0.2-0.2-0.1-0.4,0-0.6
			c0.7-0.7,1.5-1.4,2.4-1.7C249.1-53.9,249.2-53.8,249.3-53.7z"/>
		<path class="st2" d="M302.8,79.8c0.6-0.8,1.3-1.7,1.9-2.5c-0.1,1.3-0.8,2-1.6,2.7C303,80,302.9,79.9,302.8,79.8z"/>
		<path class="st2" d="M210,30.4c-0.3,1-0.7,1.5-1.1,2c-0.1,0.1-0.3,0.1-0.5,0c-0.2-0.1-0.2-0.3,0-0.5
			C208.7,31.4,209.1,30.9,210,30.4z"/>
		<path class="st2" d="M212.2,8.5c-0.1,0.7-0.6,1.1-1.1,1.5C211,9.1,211.6,8.8,212.2,8.5z"/>
		<path class="st2" d="M151.5-83c-5.6,11.1-13,20.4-20,29.9c-2.7,3.7-5.2,7.5-7.6,11.3c-0.3,0.5-0.6,1.6-1.3,1.2
			c-0.8-0.5,0-1.3,0.3-1.8c4.4-8.3,9.9-15.8,15.5-23.3c3.8-5.1,7.7-10.2,11.2-15.5C150.1-81.9,150.6-82.4,151.5-83z"/>
		<path class="st2" d="M153.8-76.1c-1.5,2.3-2.8,4.4-4.2,6.5c-5.4,7.6-11,15.1-16.3,22.7c-2.4,3.5-4.4,7.2-7,10.6
			c-0.6,0.8-1.2,1.5-1.8,2.3c-0.2,0.3-0.6,0.5-0.9,0.2c-0.3-0.3-0.1-0.6,0.1-0.8c0.8-1.2,1.6-2.3,2.3-3.5
			c4.1-7.1,8.8-13.8,13.7-20.3c2.9-3.8,5.7-7.7,8.8-11.3c1.6-1.9,3-3.9,4.5-5.9C153.1-75.9,153.2-76.1,153.8-76.1z"/>
		<path class="st2" d="M138-86c-1.4,3-2.7,5.6-4.3,8.1c-2.6,4.3-5.4,8.5-8.1,12.7c-0.5,0.8-0.9,1.6-1.4,2.4c-0.4,0.6-0.9,1-1.7,0.7
			c-0.7-0.3-1-1-0.7-1.8c0.3-0.8,0.7-1.5,1.2-2.3c2.5-4.4,5.5-8.4,8.6-12.4c1.6-2.1,3.2-4.1,4.8-6.2C136.7-85.2,137-85.7,138-86z"/>
		<path class="st2" d="M148.1-86.3c-4.9,8.7-10.6,16.9-16.4,24.9c-1.3,1.8-2.5,3.6-3.7,5.4c-0.2,0.2-0.3,0.5-0.5,0.8
			c-0.4,0.4-0.7,1.3-1.4,0.8c-0.8-0.5,0.1-1.1,0.3-1.5c4.3-7.5,9.7-14.2,14.7-21.3c1.5-2.1,2.9-4.2,4.4-6.3
			C146.2-84.6,147-85.6,148.1-86.3z"/>
		<path class="st2" d="M143.4-55c-2.5,4.6-4.6,9.3-7.5,13.6c-3.1,4.6-6,9.2-9.1,13.8c-0.2,0.3-0.3,0.5-0.6,0.7
			c-0.1,0.1-0.4,0.1-0.5,0c-0.1-0.1-0.3-0.3-0.2-0.4c0.1-0.3,0.3-0.6,0.5-1c3.8-6.4,7.9-12.5,12-18.6c0.9-1.4,1.7-2.8,2.5-4.2
			C141.3-52.5,142-54,143.4-55z"/>
		<path class="st2" d="M159.5-74.8c-1.7,2.4-2.9,4.9-4.3,7.4c-1.8,3.3-3.9,6.4-5.8,9.6c-0.3,0.4-0.6,0.9-1.1,0.5
			c-0.5-0.3-0.3-0.8-0.1-1.1c0.5-1,1.1-2.1,1.7-3c2.7-4,5.4-7.9,8-11.9C158.3-73.9,158.7-74.6,159.5-74.8z"/>
		<path class="st2" d="M120.2-85.9c0.3,1-0.2,1.5-0.5,2.1c-1.6,3.3-3.6,6.5-4.8,10c-0.2,0.5-0.4,0.9-1,0.8c-0.6-0.1-0.8-0.6-0.7-1.3
			c0.1-0.7,0.4-1.4,0.7-2.1c1.2-2.5,2.9-4.7,4.5-7C118.9-84.2,119.5-85,120.2-85.9z"/>
		<path class="st2" d="M111.8-82.6c-1.2,3.1-2.5,5.8-3.9,8.6c-0.5,1.1-1.1,1.5-1.7,1.2c-0.7-0.3-0.9-1.4-0.3-2.4
			c0.5-0.8,1-1.5,1.5-2.3c0.9-1.3,1.8-2.6,2.7-3.8C110.6-81.8,110.8-82.5,111.8-82.6z"/>
		<path class="st2" d="M128.5-85.2c0.2,1-0.2,1.5-0.4,1.9c-2,4-4.6,7.6-6.6,11.7c-0.1,0.2-0.3,0.4-0.4,0.6c-0.2,0.2-0.4,0.3-0.6,0.2
			c-0.2-0.1-0.2-0.4-0.2-0.7c0.1-0.2,0.2-0.5,0.2-0.7c1-2.2,1.9-4.4,3.3-6.4C125.4-80.7,126.9-82.8,128.5-85.2z"/>
		<path class="st2" d="M103.9-81.2c0.3,0.5,0.3,1,0.1,1.4c-1.2,2.2-2.3,4.3-3.5,6.5c-0.2,0.4-0.4,0.8-0.9,0.6
			c-0.6-0.3-0.5-0.8-0.2-1.2c0.3-0.5,0.6-1.1,0.9-1.6C101.6-77.3,102.7-79.3,103.9-81.2z"/>
		<path class="st2" d="M149.1-52.5c-1.4,3.2-3,6-4.9,8.6c-0.3,0.4-0.6,0.7-1,0.5c-0.5-0.3-0.3-0.8-0.1-1.1c0.3-0.5,0.6-0.9,0.9-1.3
			c1.3-1.5,2.5-3.1,3.5-4.9C147.7-51.4,148.1-52,149.1-52.5z"/>
		<path class="st2" d="M163.7-70.7c-0.6,0.7-1.2,1.5-1.8,2.2c-0.2,0.2-0.5,0.5-0.7,0.1c-0.2-0.2,0-0.5,0.1-0.6
			c0.7-0.7,1.3-1.4,2-2.1C163.4-71,163.6-70.8,163.7-70.7z"/>
		<path class="st2" d="M97.4-38.3c0.5,1.1,0.3,1.7,0,2.4c-0.6,1.5-1.4,2.8-2.3,4.1c-1.5,2.2-3,4.4-4,6.9c-0.1,0.2-0.2,0.3-0.3,0.5
			c-0.3,0.4-0.6,0.6-1.1,0.4c-0.4-0.2-0.4-0.6-0.4-0.9c0.2-1,0.6-2,1.2-2.8c1.1-1.7,2.2-3.3,3.5-4.9C95.3-34.4,96.8-35.9,97.4-38.3z
			"/>
		<path class="st2" d="M96.8-43.5c-1.1,1.9-2.1,3.9-3.2,5.8c-0.2,0.4-0.6,0.6-1.1,0.4c-0.5-0.2-0.5-0.7-0.3-1.1
			c0.4-1,1.2-1.7,1.8-2.5c0.7-1,1.5-2,2.5-2.8C96.6-43.6,96.7-43.5,96.8-43.5z"/>
		<path class="st2" d="M87.2-50.9c-0.4,2-1.4,3.5-2.6,5c-0.2,0.2-0.4,0.3-0.6,0.2c-0.3-0.2-0.3-0.5-0.2-0.8
			C84.7-48.1,85.9-49.6,87.2-50.9z"/>
		<path class="st2" d="M75.6-45c-0.6,1.3-1.2,2.6-1.8,3.8c-0.1,0.2-0.3,0.4-0.6,0.3c-0.2-0.1-0.3-0.4-0.2-0.6
			C73.7-42.8,74.3-44.2,75.6-45z"/>
		<path class="st2" d="M80.8-48c-0.3,1.5-1.2,2.6-1.7,3.9c-0.1,0.2-0.3,0.4-0.6,0.2c-0.4-0.2-0.3-0.4-0.2-0.7
			C78.9-45.8,79.8-46.9,80.8-48z"/>
		<path class="st2" d="M90.8-43c0,1.2-0.6,1.8-0.9,2.6c-0.1,0.3-0.4,0.3-0.6,0.2c-0.2-0.1-0.3-0.4-0.2-0.6
			C89.5-41.6,89.9-42.4,90.8-43z"/>
		<path class="st2" d="M94.3-25.7c-0.3,1-0.7,2-1.9,2.7C92.7-24.4,93.4-25.1,94.3-25.7z"/>
		<path class="st2" d="M85.2-23.9c0.1-0.9,0.5-1.4,1.3-1.8C86.2-25,85.8-24.4,85.2-23.9z"/>
		<path class="st2" d="M39.8-41.4c-2.3,2.9-4.3,6.1-6.9,8.7c-0.3,0.3-0.7,0.8-1.2,0.3c-0.5-0.4-0.2-0.9,0.2-1.3
			c2.4-2.5,4.8-5.1,7.3-7.6C39.2-41.4,39.3-41.6,39.8-41.4z"/>
		<path class="st2" d="M42-40.4c-1.2,2.4-2.5,4.5-4.2,6.5c-0.9,1.1-1.7,2.3-2.6,3.5c-0.2,0.2-0.4,0.5-0.7,0.3
			c-0.3-0.2-0.2-0.5-0.1-0.8c0.1-0.2,0.2-0.3,0.3-0.5c1.9-3,4.3-5.7,6.3-8.6C41.2-40.2,41.4-40.5,42-40.4z"/>
		<path class="st2" d="M44-36.1c-0.7,1.2-1.3,2.2-1.9,3.2c-1.1,1.8-2.4,3.5-3.7,5.2c-0.2,0.2-0.5,0.4-0.8,0.1
			c-0.2-0.2-0.1-0.4,0-0.7c0.3-0.5,0.6-0.9,0.9-1.3c1.3-1.8,2.8-3.5,4-5.4C42.8-35.4,43-36,44-36.1z"/>
		<path class="st2" d="M193.6-2.8c-0.4,0.2-0.6,0-0.6-0.3c0.1-0.5,0.4-1,1-1C194.2-3.6,193.9-3.2,193.6-2.8L193.6-2.8z"/>
		<path class="st2" d="M206-7.8c0.5,0.4,0.6,0.8,0.5,1c-0.5,1.6-1.3,3-2.1,4.4c-0.2,0.3-0.4,0.5-0.7,0.3c-0.4-0.2-0.4-0.6-0.2-0.9
			c0.4-0.7,0.9-1.4,1.3-2.2C205.3-5.9,205.9-6.7,206-7.8z"/>
		<path class="st2" d="M204.5-11.2c0.7,0.5,0.4,1,0.2,1.4c-0.3,0.9-0.7,1.8-1.1,2.7c-0.2,0.4-0.4,1-1,0.7c-0.5-0.2-0.2-0.8,0-1.1
			c0.3-0.7,0.7-1.4,1.1-2.1C204-10,204.2-10.5,204.5-11.2z"/>
		<path class="st2" d="M203.2-14.1c-0.1,1-0.2,1.5-0.9,1.7c-0.1,0-0.3-0.1-0.3-0.2C202.1-13.3,202.5-13.6,203.2-14.1z"/>
		<path class="st2" d="M193.3-6.4c-0.2-0.8,0.2-1.2,0.7-1.9C194.1-7.3,193.9-6.8,193.3-6.4z"/>
		<path class="st2" d="M175-38.7c0.5,1,0.3,1.8,0.1,2.5c-0.2,0.8-0.6,1.6-0.9,2.4c-0.2,0.4-0.5,0.7-1,0.5c-0.5-0.2-0.6-0.6-0.4-1.1
			c0.3-0.6,0.6-1.2,0.8-1.8C174.2-36.9,174.5-37.7,175-38.7z"/>
		<path class="st2" d="M172.8-38.7c-0.3,1.2-0.8,1.9-1.3,2.5c-0.2,0.2-0.5,0.4-0.8,0.1c-0.3-0.2-0.3-0.6,0-0.8
			C171.2-37.5,171.7-38.2,172.8-38.7z"/>
		<path class="st2" d="M169.8-39.1c0.1,1-0.2,1.7-0.6,2.3c-0.1,0.2-0.4,0.4-0.6,0.2c-0.2-0.1-0.3-0.4-0.2-0.6
			C168.8-37.8,169-38.6,169.8-39.1z"/>
		<path class="st2" d="M178-39.6c0.3,0.9,0.1,1.3-0.3,1.7c-0.1,0-0.3,0-0.3-0.1C177.2-38.6,177.7-38.9,178-39.6z"/>
		<path class="st2" d="M57-38.8c-0.3-1.5,0.6-2,1.3-3C58.4-40.4,57.6-39.8,57-38.8z"/>
		<path class="st2" d="M56.5-43.5c-0.2,1.1-0.5,1.8-1.2,2.3c0,0-0.3-0.1-0.3-0.1C54.9-42.3,55.7-42.7,56.5-43.5z"/>
		<path class="st3" d="M310.7,64.4c0,1.5,0.4,1,0.5,1.2C311,63.1,310.6,64.5,310.7,64.4z"/>
		<path class="st3" d="M307.7,40.2l0.2,0.4l-1.1-3.5L307.7,40.2z"/>
		<path class="st3" d="M302.5,18c0,1.1,0.5,3.1,1.3,5.3c0.2,0.5,0.4,1.1,0.5,1.7l0.3,0.8c0.1,0.3,0.2,0.6,0.2,0.9
			c0.3,1.1,0.6,2.3,0.7,3.3l0,0.7l1,1.7c-0.3-1.2-0.6-2.5-1-3.8c-0.4-1.3-0.7-2.6-1.1-3.9C303.6,22,302.9,19.7,302.5,18z"/>
		<path class="st3" d="M299.8,5.9c0,0.8-1.2-2.4,1,2.7c-0.1-0.3-0.1-0.4-0.1-0.5C300.5,7.7,300.2,7,299.8,5.9z"/>
		<path class="st3" d="M300.7,8.1C301.6,10.4,300.3,6.6,300.7,8.1z"/>
		<path class="st3" d="M296.2-2.1l1.5,2.8c-0.1-0.7-1.3-3.3-0.7-2.4C295.5-4.6,295.6-3.9,296.2-2.1z"/>
		<path class="st3" d="M294.4-4.6c0,0,0.2,0.4,0.4,0.7c0.2,0.4,0.4,0.7,0.4,0.7C295.2-3.5,295-3.9,294.4-4.6z"/>
		<path class="st3" d="M296.9-0.1l-1.6-3.1c0.1,0.5-0.1,0.6,0.7,1.4C295.6-1.9,296.1-1.4,296.9-0.1z"/>
		<path class="st3" d="M297.6,1.8c0.1,0.4,0.3,0.9,0.5,1.3c0.1,0.4,0.2,0.7,0.3,0.9c0,0.2,0,0.3-0.1,0.1c-0.1-0.2-0.3-0.6-0.7-1.3
			c0.3,0.7,0.6,1.3,0.8,1.8c0.2,0.5,0.4,0.9,0.6,1.2c0.3,0.6,0.5,0.8,0.5,0.7c0-0.1-0.1-0.6-0.4-1.4C298.7,4.3,298.2,3.1,297.6,1.8z
			"/>
		<path class="st3" d="M301.4,17.1c0,0,0.1,0.6,0.3,1.2c0.1,0.3,0.1,0.6,0.2,0.8c0,0.2,0.1,0.4,0.1,0.4l0.8,1.9
			c-0.2-0.5-0.5-1.6-0.7-2.5C301.7,17.8,301.5,17,301.4,17.1z"/>
		<path class="st3" d="M287-19.8c-0.2-0.1,0.2,1.1,0.2,1.4c0,0,0.1,0.1,0.2,0.3c0.1,0.2,0.3,0.4,0.5,0.7c0.3,0.5,0.7,1,0.7,1
			C288.1-17.5,286.9-19.5,287-19.8z"/>
		<path class="st3" d="M287.2-18.3l-2.1-2.8C286.7-18.5,287.1-18.1,287.2-18.3z"/>
		<path class="st3" d="M293.4-4.8c0,0,0.2,0.3,0.5,0.8c0.3,0.5,0.6,1.1,1,1.7c0.7,1.3,1.4,2.5,1.4,2.5s-0.8-1.5-1.7-3
			C294.3-3.6,293.8-4.3,293.4-4.8c-0.3-0.6-0.5-1-0.5-1L293.4-4.8z"/>
		<path class="st3" d="M279.4-30.9c0,0,0.1,0.1,0.2,0.2c0.1,0.1,0.3,0.3,0.5,0.5c0.4,0.4,0.7,0.7,0.7,0.7s-0.6-0.6-1.3-1.3
			c-0.7-0.6-1.3-1.2-1.3-1.2L279.4-30.9z"/>
		<path class="st3" d="M273.8-37.9c1.2,0.9-0.9-1.9,0.2-0.8c-1.6-1.8-3.2-3.2-4.6-4.5C270.8-41.8,272.1-40.1,273.8-37.9z"/>
		<path class="st3" d="M267-45.2c0.7,0.7,1.5,1.3,2.4,2C268.6-43.9,267.8-44.5,267-45.2z"/>
		<path class="st3" d="M281.8-26.2c-0.1-0.3-0.2-0.8-1.2-2.5l0.4,1.4C281.2-27,281.5-26.6,281.8-26.2z"/>
		<path class="st3" d="M281-27.3L281-27.3c-0.9-1.3-1.5-2.1-1.7-2.5C279.5-29.4,280-28.7,281-27.3z"/>
		<path class="st3" d="M282-25.9c-0.1-0.1-0.1-0.2-0.2-0.3C281.8-26,281.9-26,282-25.9z"/>
		<path class="st3" d="M289.5-13c-1.2-1.7-3.6-5.2-1.9-1.5C288.6-13.4,287.6-15.6,289.5-13z"/>
		<path class="st3" d="M282.5-24.2c0,0,0.1,0.2,0.3,0.5c0.2,0.3,0.4,0.7,0.7,1.1c0.5,0.8,1,1.6,1,1.6c0.1-0.1-0.2-0.8,0.5,0
			c0,0-0.6-0.8-1.2-1.6c-0.3-0.4-0.6-0.8-0.8-1.1C282.7-24,282.5-24.2,282.5-24.2z"/>
		<path class="st3" d="M281.4-25.6l1.2,1.4l-0.8-1.1L281.4-25.6z"/>
		<path class="st3" d="M271-40.2c-0.6-0.5-1.2-1.2-1.8-1.8c-0.6-0.6-1.3-1.3-2-2c0.7,0.8,1.5,1.6,2.1,2.4c0.7,0.8,1.4,1.7,2.1,2.4
			C271.7-39,272.5-38.5,271-40.2z"/>
		<path class="st3" d="M276-34c-0.1-0.1-0.2-0.2-0.2-0.3C275.9-34.1,276-33.9,276-34z"/>
		<path class="st3" d="M252.9-57.5c0.1,0.1,0.1,0.2,0.2,0.3c0,0,0.1,0,0.1,0L252.9-57.5z"/>
		<path class="st3" d="M271.6-38.8c1,1.3,1.7,1.9,2.4,2.5c-0.8-0.9-1.7-1.8-2.6-2.9C271.3-39.2,271.2-39.2,271.6-38.8z"/>
		<path class="st3" d="M263-49c0.3,0.3,0.6,0.7,0.9,1c0.3,0.4,0.6,0.7,0.9,1.1c-0.2-0.3-0.6-0.9-1-1.3C263.5-48.5,263.1-48.9,263-49
			z"/>
		<path class="st3" d="M275.5-34.8c0.1,0.1,0.1,0.1,0.2,0.2C275.4-35.1,275.4-35,275.5-34.8z"/>
		<path class="st3" d="M275.5-34.8c-0.6-0.6-1-1.1-1.5-1.5c0.6,0.7,1.2,1.4,1.8,2C275.7-34.4,275.6-34.6,275.5-34.8z"/>
		<path class="st3" d="M246.6-58.9c0.2-0.1,1.2,0.5,2.5,1.3c0.6,0.4,1.3,0.9,2,1.5c0.7,0.6,1.3,1.3,1.9,1.9c2.9,2.1,2-0.4,0.1-3
			c-0.2,0.1-0.3,0.1-3.3-1.9c0.4,0.5,2,1.8,3,2.9c1,1.1,1.6,1.8,0.3,1c-1-0.7-1.6-1.3-2.1-1.7c-0.5-0.4-0.8-0.7-1-0.9
			c-0.5-0.5-0.7-0.8-1.5-1.6c0.6,0.8-0.7,0-2.1-0.8c-1.4-0.9-3-1.7-2.8-1.1c0,0,0.2,0.1,0.6,0.3c0.3,0.2,0.8,0.5,1.2,0.8
			c0.9,0.6,1.7,1.2,1.7,1.2C247-59,245.7-59.8,246.6-58.9z"/>
		<path class="st3" d="M258.4-52.5l1.1,1c-0.6-0.6-1.1-1.2-1.6-1.8c-0.6-0.6-1.1-1.3-1.9-2.1c-2-1.5-2.5-1.7-2.8-1.7
			c0,0,1.4,1.2,2.8,2.5c0.7,0.6,1.4,1.2,1.9,1.7c0.5,0.5,0.8,0.8,0.8,0.8L258.4-52.5z"/>
		<path class="st3" d="M264.4-46.8c-0.3-0.1-0.7-0.4-1.1-0.7c-0.4-0.3-0.8-0.6-1.2-0.8c-0.7-0.4-1-0.5-0.4,0.4c0.4,0.4,0.7,0.7,1,1
			c0.3,0.3,0.5,0.5,0.7,0.7c0.4,0.4,0.7,0.6,0.9,0.7c0.5,0.3,0.8,0.5,1.8,1.4C261.2-49.2,267.8-42.8,264.4-46.8c1,1,1.9,1.9,2.8,2.8
			c-0.9-1-1.7-1.9-2.4-2.8c0,0.1,0.1,0.1,0.1,0.1l0,0c0,0,0,0,0,0c0.2,0.3,0.2,0.4,0,0.1c0,0-0.1-0.1-0.1-0.1
			C264.7-46.7,264.6-46.7,264.4-46.8c-1.4-1.6-0.1-0.3,0.3,0.1c0,0,0.1,0,0.1,0c0,0,0,0,0,0c0,0-0.3-0.3-0.8-0.8
			c-0.5-0.5-1.2-1.1-1.8-1.7c-1.3-1.2-2.7-2.4-2.7-2.4c0.5,0.5,1.1,1.1,1.9,1.9c0.4,0.4,0.8,0.8,1.3,1.3c0.2,0.2,0.5,0.5,0.8,0.7
			C263.9-47.4,264.1-47.1,264.4-46.8z"/>
		<path class="st3" d="M284.8-17.3c-0.1-0.2-0.1-0.2,0-0.2C284.5-17.9,284.4-18,284.8-17.3z"/>
		<path class="st3" d="M283.5-19.9c0.3,0.4,0.7,0.7,1.6,2.1c0.7,1.3-0.2,0.1-0.3,0.2c0.7,0.8,2.1,2.8,0.7,0l-0.3-0.4
			c-1.4-2.5-3-5.9-2.6-5.5C282.6-22.5,282.8-21.7,283.5-19.9z"/>
		<path class="st3" d="M274.5-33.9c0,0-0.2-0.3-0.6-0.7c-0.4-0.4-0.8-1-1.4-1.5c-1-1.1-2-2.2-2-2.2l1.7,2.5l0.1-0.3
			c0.5,0.6,0.9,1.1,1.2,1.4c0.3,0.3,0.4,0.5,0.6,0.6C274.2-33.9,274.3-34,274.5-33.9z"/>
		<path class="st3" d="M252.6-58.1l0.9,0.2c0,0-0.8-0.5-1.5-0.9c-0.8-0.4-1.6-0.8-1.6-0.8s0.6,0.4,1.1,0.8c0.3,0.2,0.6,0.4,0.8,0.5
			C252.4-58.2,252.6-58.1,252.6-58.1z"/>
		<path class="st3" d="M246.4-62.9l0.5-0.1c0,0-0.1-0.1-0.3-0.2c-0.2-0.1-0.4-0.2-0.6-0.3c-0.5-0.2-0.9-0.5-0.9-0.5L246.4-62.9z"/>
		<path class="st3" d="M16.8,144.7c0,0,0.2,0.4,0.5,0.7c0.1,0.2,0.2,0.4,0.3,0.5c0.1,0.1,0.2,0.2,0.2,0.2
			C17.3,145.5,17.1,145,16.8,144.7z"/>
		<path class="st3" d="M11,133.8l-0.3-0.2C11,134.1,11.2,134.3,11,133.8z"/>
		<path class="st3" d="M66.1-70.7c-2.4,1.1-5.1,2.1-4.6,2.3l0.9-0.1C63.9-69.4,65.1-70.1,66.1-70.7z"/>
		<path class="st3" d="M-4.1,34.6c0.1-0.2,0.2-0.5,0.3-0.7c0-0.6,0-1.2,0-1.8C-3.9,32.9-4.1,33.7-4.1,34.6z"/>
		<path class="st3" d="M-2.6,36.7l-0.9,3.2C-3.2,39.2-3,38.1-2.6,36.7z"/>
		<path class="st3" d="M62.9,193.3c0,0,0.5,0.2,0.9,0.4c0.5,0.2,1,0.4,1,0.4c-0.7-0.4-1.1-0.7-1.3-0.9c-0.3-0.2-0.4-0.2-0.4-0.2
			C62.9,193,63.1,193.3,62.9,193.3z"/>
		<path class="st3" d="M173.3-92.9c-2.2-0.5-3.9-0.7-5.5-1C170.4-93.3,172.5-92.6,173.3-92.9z"/>
		<path class="st3" d="M10.3,142.8c0.6,0.9,0.9,1.2,1,1.2C10.6,143,10.3,142.5,10.3,142.8z"/>
		<path class="st3" d="M161.4-94.4c0.4,0.1,0.8,0.1,1.2,0.2c0.8,0,1.6,0.1,2.5,0.1c0.9,0.1,1.8,0.1,2.7,0.2c-1-0.2-2-0.4-3.1-0.5
			C163.6-94.4,162.5-94.5,161.4-94.4z"/>
		<path class="st3" d="M279.1,152.4c0.1-0.1,0.2-0.3,0.3-0.4C279.5,151.9,279.3,152.1,279.1,152.4z"/>
		<path class="st3" d="M308.7,86.9c-0.1,0.7-0.2,1.9-0.3,3C308.4,89.4,308.6,88.5,308.7,86.9z"/>
		<path class="st3" d="M219.7-79.3C221.2-78.6,219.9-79.2,219.7-79.3z"/>
		<path class="st3" d="M226-74.1c-0.3-0.1-0.6-0.2-0.7-0.1C225.5-74.2,225.7-74.2,226-74.1z"/>
		<path class="st3" d="M145-91.9c0,0-0.1,0-0.1,0C145.4-91.8,145.3-91.9,145-91.9z"/>
		<path class="st3" d="M221.8-78c-0.5-0.3-1.1-0.7-1.8-1.1C220.3-78.9,220.8-78.5,221.8-78z"/>
		<path class="st3" d="M221.6-78.3c0.5,0.3,0.9,0.5,1.3,0.7C223.1-77.6,222.9-77.7,221.6-78.3z"/>
		<path class="st3" d="M217.5-80.2c0.9,0.4,1.7,0.8,2.4,1.1c-0.3-0.2-0.4-0.2-0.3-0.2C219.2-79.5,218.6-79.7,217.5-80.2z"/>
		<path class="st3" d="M171,220.6c0.1,0,0.2,0,0.3,0C172.9,220.2,172.2,220.3,171,220.6z"/>
		<path class="st3" d="M36.4-40.3c0-0.1,0.1-0.1,0.1-0.1C36.4-40.4,36.4-40.3,36.4-40.3L36.4-40.3z"/>
		<path class="st3" d="M32.8-35.7c1.2-2.2,2.1-3.3,3.5-4.5c0,0-0.6,0.1-1.1,0.3c-0.3,0.1-0.6,0.1-0.8,0.2c-0.2,0.1-0.3,0.1-0.3,0.1
			L32.8-35.7z"/>
		<path class="st3" d="M188.7,220.7l-1.1,0.1C190,220.1,189.4,220.4,188.7,220.7z M207.9-83.6c0.5,0.1,0.5,0.1,0.3-0.1
			c-0.4,0-1.6-0.5-2.9-1C205.7-84.5,206.3-84.1,207.9-83.6z M202.7-85.8c-0.1,0-0.1,0-0.1,0C200.1-86.8,201-86.4,202.7-85.8z
			 M-1.2,26c-0.1,0.9-0.4,2.2-1,3.6C-1.9,28.6-1.7,27.4-1.2,26z M3.7,116.9c0.2,0.5,0.6,1.3,0.9,2.1c0.4,0.8,0.7,1.5,0.7,1.9
			c-0.5-0.5-0.8-1-1-1.7C4,118.7,3.9,117.9,3.7,116.9z M34.4,168.5l-2.3-3.3c1.8,1.6,3.3,3.1,4,3.8c0.4,0.4,0.6,0.5,0.5,0.3
			c0-0.1-0.3-0.6-0.8-1.4c-0.4,0.1-1.2-0.5-2.2-1.6c-1.1-1.1-2.4-2.5-3.6-4.1c-1.2-1.5-2.4-3.1-3.5-4.2c-1-1.2-1.7-1.9-2.1-1.8
			l-1.3-2.3c0.4,0.6,0.6,0.7,1,1.3c-2.5-4.6-3-2.6-6.5-8.3c-0.3-0.5-0.5-1-0.7-1.4c-0.2-0.4-0.3-0.8-0.4-1c-0.2-0.5-0.1-0.5,0.4,0.1
			l-2.9-4.3c-0.4-0.7-0.4-1-0.3-0.9c0.1,0.1,0.4,0.4,0.7,1.1c0,0-0.3-0.4-0.6-1.1c-0.3-0.7-0.8-1.5-1.3-2.4
			c-0.9-1.8-1.9-3.5-1.9-3.5l0.1,0c-0.4-0.4-0.9-1.2-1.4-2c-0.5-0.8-1-1.6-1.3-2.2c-0.7-1.9,0.6,0.9,0.5,0.3c0,0-0.5-1-1.1-1.9
			c-0.3-0.5-0.5-1-0.7-1.3c-0.2-0.4-0.3-0.6-0.3-0.6c-0.2-0.9,0.2-0.5,0.7,0.4c0.6,0.9,1.3,2.4,1.9,3.8c-0.2-2.2-0.7-2.9-1.4-4.2
			c-0.7-1.3-1.7-3.2-2.9-7.5c0,0,0.1,0.2,0.2,0.6c0.2,0.4,0.4,0.8,0.6,1.3c0.4,0.9,0.8,1.9,0.8,1.9c-0.1-0.7-0.2-1.4-0.4-2.1
			c-0.2-0.7-0.4-1.5-0.7-2.3c-0.5-1.7-1-3.5-1.6-5.8c0.1,1.1,1.8,9.2,0,4.8c-0.3-1.3-0.9-3-1.9-5.3c0.5-0.2-0.3-2.5-1.2-5.5l0.7,0
			c-0.3-0.8-0.5-1.4-0.7-1.8c-0.2-0.5-0.3-0.8-0.5-1.1c-0.3-0.6-0.5-0.9-0.9-1.9c-0.8-3.7-0.5-4.6-0.2-5.5c-1-5.9-0.1,4.3-1.4-2.8
			c-0.2-1.2-0.3-2.4-0.5-3.5c-0.2-1.1-0.3-2.2-0.5-3.3c-0.4-2.2-0.9-4.6-1.3-7.6c0-3.5,0.4,0.6,0.5-0.7L-5,74.7
			c0-0.8,0.1-0.5,0.2-0.4c-0.1-0.7-0.2-1-0.3-1.2c-0.1-0.2-0.2-0.3-0.2-0.4c-0.2-0.2-0.3-0.7-0.5-2.7c-0.2-0.3-0.2-0.9-0.2-1.9
			c0-0.5,0-1,0.1-1.6c0-0.3,0-0.6,0.1-0.9c0-0.3,0.1-0.6,0.1-1c0.2-1.3,0.3-2.8,0.4-4.2c0.1-1.4,0-2.9,0-4.2
			c0.3-1.3,0.4,0.6,0.6,0.3c0-3.5,0-5,0-6.4c0-1.4,0-2.6,0-5.5c0,0,0.3-1.2,0.5-2.4c0.1-0.6,0.3-1.2,0.4-1.7
			c0.1-0.4,0.2-0.7,0.2-0.7c-1.1,3.5-0.9-1.2-0.6-5.3c-0.5,1.2-0.9,2.3-1.1,3c0,0,0.2-1.6,0.4-3.3c0.1-0.8,0.3-1.6,0.4-2.2
			c0.1-0.6,0.2-1,0.2-1c0.3-0.8,0.4-0.1,0.4,1c0-0.4,0.1-0.9,0.1-1.2c0.8-2.2,0.9-1,0.8,0.7c-0.3,0.7-0.6,1.5-0.9,2.2
			c0.1,1.7,0.3,3.2,0.7,3c0-0.4,0.1-1.2,0.2-2.1c0,0.4,0.1,0.7,0.2,0.5c0.1-0.2,0.1-0.9,0.1-2l1-1.3l-0.2-0.4c0,0,0.6-2,1.2-4.1
			c0.3-1,0.7-2,0.9-2.8c0.3-0.8,0.4-1.3,0.4-1.3c0.2-1.5,0.4-3,0.7-4.5c0.3-1.5,0.6-3,0.9-4.6c0.2-0.8,0.4-1.7,0.6-2.5
			c0.2-0.9,0.5-1.8,0.8-2.7c0.3-0.9,0.6-1.9,0.9-3S5.3,4.1,5.8,3C5.3,5.4,6.3,3.8,6.9,4.2C6.4,4.7,6.1,5.5,5.8,6.3
			c-0.3,0.8-0.7,1.8-1,2.8c-0.3,1-0.7,2.1-1,3.3c-0.3,1.2-0.7,2.3-1.1,3.5c0.9-2.4,1-1.8,0.9-1.1c0,0,0.1-0.5,0.4-1.3
			C4,13,4.1,12.5,4.2,12c0.2-0.5,0.3-1,0.5-1.6c0.7-2.1,1.3-4.2,1.3-4.2C6.3,6.4,6.5,6,6.9,5.3c0.3-0.7,0.8-1.7,1.4-2.7
			C7.4,3.2,8,1.6,8.9-0.5c0.2-0.5,0.5-1.1,0.7-1.7c0.3-0.6,0.6-1.2,0.8-1.7C11-5.1,11.5-6.2,11.8-7c0.4,0,0.3,0.9-1.8,4.8
			c1.5-2,1.9-3.5,2.3-5.1c0.4-1.6,0.9-3.1,2.4-5c-0.5,0.9-0.9,1.4-0.9,1.9c0.5-1.2,1.6-3.1,2.5-4.5c0.4-0.7,0.9-1.3,1.2-1.6
			c0.3-0.3,0.4-0.4,0.3,0l-0.6,0.9c1-1.5,2.2-3.4,3.5-5.4c0.3-0.5,0.7-1,1-1.5c0.3-0.5,0.7-1,1-1.5c0.7-1,1.4-2,2-3
			c0.6-1,1.3-1.9,1.9-2.7c0.6-0.8,1.1-1.6,1.6-2.3c0.9-1.4,1.5-2.4,1.5-2.7c0.1,0,0.2,1.4,0.1,1.8c0,0,0.1-0.2,0.2-0.5
			c0.2-0.3,0.4-0.8,0.7-1.3c0.6-1.1,1.4-2.5,2.1-4c0.8-1.5,1.6-2.9,2.3-3.9c0.6-1.1,1.1-1.8,1.1-1.8c-0.2,1.3,4-0.6,0.2,4
			c0.6-0.6,1.3-1.2,2.1-2.1c0.8-0.8,1.8-1.9,3-3.2c-0.5,0.4-1.2,0.7-1.6,0.7c-0.4,0.1-0.7-0.1-0.1-0.7c1.9-1.2,2.5-1.7,3.2-2.2
			c0.4-0.3,0.7-0.6,1.3-1c0.6-0.4,1.3-1,2.4-1.7c-1.4,1-0.7-1.1,1.4-2.9c-0.2,0.4,0.9,0.7,0.2,1.5c0,0,1.1-1.3,2.2-2.7
			c0.5-0.7,1.2-1.3,1.6-1.8c0.4-0.5,0.7-0.8,0.7-0.8c-1.2,1.2,0.4,0.9,1.8,0.3c-0.3,0.1,0.8-0.8,2.2-1.9c1.4-1.1,3.2-2.2,3.9-2.8
			l-2.5,1.5c1.6-1.1,2.7-2,3.6-2.8c0.5-0.4,0.8-0.8,1.2-1.2c0.4-0.4,0.7-0.7,1.1-1c0.7-0.7,1.4-1.4,2.3-2.2c0.9-0.8,2.1-1.7,3.8-2.6
			c-0.7,0.7-1.2,2.4,2.2,0.6c0.3-0.4,0.8-0.9,1.5-1.7c0.7-0.7,1.5-1.6,2.5-2.5c1-0.9,2.2-1.9,3.4-2.9c0.6-0.5,1.3-1,2-1.4
			c0.7-0.4,1.5-0.9,2.2-1.3l1.3-0.2c0,0,1.2-0.6,2.3-1.3c0.6-0.3,1.2-0.6,1.6-0.8c0.5-0.2,0.8-0.4,0.8-0.4c-1.4,1-4,2.9-6.7,4.9
			c-1.4,1-2.7,2.1-4.1,3.1c-1.3,1-2.5,1.9-3.5,2.6c2.7-1.1,0.9,0,4.7-2c1.5-0.4-1.9,1.5-3,2.1c0,0,2.3-1.1,4.5-2.2
			c1.1-0.6,2.3-1,3.1-1.4c0.9-0.4,1.4-0.6,1.4-0.6c-0.3-0.2,1.3-1.2,3-2.1c1.7-0.9,3.5-1.7,3.2-1.9c0,0-0.6,0.3-1.6,0.7
			c-0.5,0.2-1,0.5-1.6,0.7c-0.6,0.3-1.2,0.6-1.8,0.9c-2.4,1.3-4.8,2.6-4.8,2.6c-0.4-0.2,0.9-1.3,3-2.7c0.5-0.3,1.1-0.7,1.8-1.1
			c0.6-0.4,1.3-0.8,2.1-1.1c1.5-0.7,3.1-1.4,4.8-2c1.8-0.4-0.8,1.6-0.6,1.8c0.2-0.1,0.7-0.4,1.3-0.7c0.6-0.3,1.4-0.7,2.2-0.9
			c1.6-0.6,3.1-1.1,3.4-1.1L98.5-81c1.9-0.5,3.4-1.2,5-2c0.8-0.4,1.6-0.7,2.6-0.9c0.9-0.3,2-0.5,3.2-0.7c0.4-0.1,0.9-0.2,1.5-0.3
			c0.5-0.1,1.1-0.1,1.7-0.2c1.1-0.1,2-0.2,2.1-0.4c-2.8-0.2-3.9-2.4-2.3-3.4c0.3,0,2.5-0.3,4.9-0.7c0.6-0.1,1.2-0.2,1.8-0.2
			c0.6,0,1.2-0.1,1.7-0.1c1.1-0.1,1.9-0.1,2.4-0.1c2.8,0.1-3.8,2.2-1.4,2.3c0.1-0.2,1.5-0.7,2.1-0.9c1.7-0.1-0.6,0.7,3.1,0
			c0.5-0.8,7.6-0.9,1.7-0.8c1.8-0.3,2.8-0.4,3.9-0.5c1.1-0.1,2.2-0.2,4.4-0.3c-0.7-0.2,0.2-0.6,1.8-1.1c0.8-0.2,1.8-0.5,2.7-0.7
			c0.5-0.1,1-0.2,1.5-0.3c0.5-0.1,1-0.1,1.5-0.2c-0.2,0.2,0.6,0.4,1,0.5c1.9,0,3.6,0,5.2,0c1.6,0.1,3,0.2,4.4,0.2
			c1.4,0.1,2.8,0.1,4.3,0.2c1.5,0.1,3.1,0.3,4.8,0.4c0.3,0.1,1.3,0.3,2.1,0.4c0.7,0.2,1.2,0.4,0.5,0.4c1,0,2-0.1,4.1,0.1
			c4.1,1.1-4.8-0.5-1.7,0.6c0.2-0.2,1.6-0.1,3.3,0c0.9,0.1,1.9,0.1,2.8,0.2c0.9,0.1,1.9,0.2,2.6,0.3c-0.2-0.2-0.8-0.4-1.5-0.6
			c-0.8-0.2-1.7-0.3-2.7-0.4c-2.1-0.2-4.4-0.3-6-0.4c0-0.4,1.4-0.7,3.8-0.8c0.6,0,1.2,0,1.9,0c0.7,0,1.4,0,2.2,0.1
			c1.6,0.1,3.3,0.3,5.2,0.5c1.5,0.2,2.4,0.4,2.9,0.6c0.5,0.2,0.7,0.3,0.7,0.3c0,0.2-0.6,0.2-0.1,0.2c2.7,0.7,4.7,1,6.2,1.3
			c1.5,0.3,2.7,0.4,3.7,0.6c1.1,0.1,2.1,0.3,3.4,0.6c0.7,0.1,1.4,0.4,2.2,0.7c0.8,0.3,1.8,0.7,2.8,1.1c3.3,1.7-0.2,1.1,0.4,1.7
			c-2.3-0.7-4-1.4-5.6-2c-1.6-0.6-2.9-1.1-4.5-1.5l3.8,1.4c-1.5-0.2-4.7-1-6.3-1.6c0.7,0.3,2.2,0.8,4.1,1.4c1,0.3,2.1,0.6,3.2,1
			c1.2,0.4,2.4,0.8,3.7,1.3c1.3,0.4,2.6,0.9,3.9,1.4c1.3,0.5,2.6,1,3.8,1.6c0.6,0.3,1.3,0.5,1.9,0.8c0.6,0.2,1.2,0.5,1.8,0.8
			c1.1,0.5,2.2,1.1,3.1,1.6c1.5,0.5,3.9,1.4,2.9,0.7l-2.5-1c-2.1-1.4,4.9,1.6,1.9-0.1c0.4,0.2,0.9,0.3,1.3,0.5
			c0.4,0.2,0.9,0.4,1.3,0.5c0.9,0.4,1.9,0.8,2.8,1.2c1,0.4,2,0.9,3,1.4c1,0.6,2.1,1.2,3.2,1.9l0.5,1c0-0.2-2.7-2-4.1-2.6
			c1,0.4,2.6,1.6,4.3,2.7c0.8,0.6,1.7,1.1,2.5,1.6c0.8,0.5,1.5,0.8,2.1,1c0,0-0.7-0.6-1.4-1.2c-0.3-0.3-0.7-0.6-1-0.8
			c-0.3-0.2-0.5-0.3-0.5-0.3c0.8,0.4,1.7,0.8,2.6,1.3c0.9,0.5,1.9,0.9,2.8,1.5c1,0.5,2,1,2.9,1.7c0.9,0.6,1.9,1.3,2.8,2
			c-1.4-1.7-0.9-0.6-3.2-3c0.9,1.1-1.5-0.5-3.8-1.9c-1.2-0.7-2.3-1.5-2.9-1.8c-0.6-0.3-0.7-0.2,0.1,0.6c-1.2-1.2-2.5-2-3.8-2.9
			c-1.3-0.9-2.8-1.8-4.6-3.1c0,0.2,1.2,1.1-2.2-0.8c-0.2,0-0.6-0.1-0.8-0.2c-0.1-0.1-0.1-0.1-0.2-0.1c0.1,0,0.1,0.1,0.2,0.1
			c-0.2,0-0.2-0.1,0.1,0c0.8,0.5,1.4,0.9,1.6,1.2c-0.5-0.1-1.2-0.4-2-0.7c-0.4-0.2-0.8-0.4-1.3-0.6c-0.4-0.2-0.9-0.4-1.4-0.6
			c-1.9-0.8-3.8-1.6-4.8-1.9c-2-1,1,0.2-0.1-0.5c0,0-0.7-0.2-1.5-0.5c-0.8-0.2-1.5-0.4-1.5-0.4c-0.1-0.5-5.4-2.9-0.3-1.2l-4.5-1.8
			c-0.6-0.3-1.4-0.6-2.1-0.9c-0.8-0.3-1.5-0.6-2.3-0.9c-1.6-0.5-3.1-1.1-4.3-1.3c-2.2-0.7-5.7-1.1-3.7-0.9c0,0-0.5-0.1-1.2-0.3
			c-0.7-0.2-1.6-0.4-2.6-0.6c-1.9-0.4-3.8-0.7-3.8-0.7l0-0.1c-3.7-1-7.5-1.4-11.5-2c-4-0.4-8.1-1-12.4-1.7c-1.3,0-2.6-0.1-4.1-0.1
			c-1.5,0-3.2,0-5.3-0.2l-0.8-0.4c-1.6,0-4.1,0-6.3,0c-2.2,0-4.2,0-4.9,0.3c-0.9-0.2-2.3-0.2-4.1-0.2c-0.9,0-1.8,0.1-2.8,0.2
			c-1,0.1-2,0.2-3.1,0.4c-1.1,0.2-2.1,0.3-3.2,0.5c-1.1,0.2-2.1,0.3-3.1,0.5c-2,0.4-3.8,0.7-5.2,0.9l-0.1,0.5
			c-0.5,0.1-1,0.2-1.5,0.3c-0.5,0.1-1,0.2-1.4,0.3c-1,0.2-1.9,0.5-2.9,0.7c-1,0.3-2,0.5-3.1,0.8c-1.1,0.3-2.2,0.7-3.3,1.1l0.4,0.4
			c-2,0.8-4.6,1.3-7.5,2.3c-1.4,0.4-3,0.9-4.5,1.3c-1.5,0.5-3.1,1.1-4.6,1.7c0.4-0.3,1.9-0.9,3.1-1.2c-1.9,0.5-3.9,1.2-5.8,1.9
			c-1.9,0.8-3.7,1.8-5.6,2.7c-1.8,0.9-3.6,2-5.3,2.9c-1.7,0.9-3.5,1.8-5.1,2.5c-1.5,1-2.6,1.6-3.8,2.2c0.1-0.1,0.3-0.2,0.4-0.2
			c-0.2,0.1-0.4,0.2-0.6,0.4c-0.4,0.2-0.7,0.3-1.1,0.5c-0.4,0.2-0.8,0.4-1.1,0.6c0.7-0.3,1.3-0.6,1.9-0.9c-0.6,0.3-1.3,0.8-2.1,1.4
			c-0.8,0.5-1.6,1.1-2.5,1.7l-1,0.1c-0.1,0.1-0.3,0.2-0.4,0.3c-1.8,0.9-1.2,1.1-0.1,0.8c-0.8,0.6-1.5,1.3-2.1,1.8
			c-0.9,0.1-2,1-3.1,1.9c-0.6,0.4-1.1,0.9-1.7,1.3c-0.6,0.4-1.1,0.7-1.7,0.9c-0.4,0.6-2.4,2.3-4.3,3.9c-1.8,1.8-3.6,3.6-3.7,4.2
			c-0.1,0-0.6,0.3,0.2-0.4c-0.4,0.4-0.9,0.7-1.3,1.1c-0.2,0.2-0.4,0.4-0.7,0.5c-0.2,0.2-0.4,0.4-0.6,0.6c-0.8,0.8-1.6,1.5-2.2,2.3
			L39.5-49c0,0-0.8,1-1.5,2c-0.7,1-1.4,2.1-1.4,2.1c-2.4,1.9-3.4,2.7-1.7,0.2c-1.1,1.5-1.9,2.4-2.6,3.2c-0.6,0.8-1,1.4-1.4,1.9
			c-0.8,1.1-1.6,2-3.3,4.6l-0.1-0.5c-1.4,1.8-3.1,4.9-4.2,5.7c-0.9,0.9-2.2,2.6-3.8,4.8c-0.4,0.6-0.8,1.1-1.3,1.7
			c-0.4,0.6-0.8,1.3-1.3,2C16-20,15.1-18.5,14.1-17c-3.6,6.1-7.4,13.2-10.2,19C4.9,1,4.2,2.3,3.3,4C2.5,5.6,1.5,7.6,1.8,8
			C1.3,8.6,0.5,10.2,1,8.2C0.7,9,0.5,9.7,0.2,10.4c-0.2,0.7-0.5,1.3-0.7,1.9c-0.4,1.2-0.8,2.3-1.2,3.3c-0.2,0.5-0.4,1-0.5,1.5
			c-0.2,0.5-0.3,1-0.4,1.5c-0.2,1-0.4,2.1-0.6,3.2c-0.5,0.6,0-1.5-0.4-0.9c-0.1,0.5-0.3,2.1-0.7,2.7c-0.3,0.6,0-1,0.2-2
			c-0.4,1.6-0.7,2.9-0.9,3.9c-0.1,1-0.2,1.7-0.1,2.3c0.1,1.1,0.4,1.5,0.8,1.8c-0.6,1.6-0.9,2.8-1.2,3.9c-0.2,1.1-0.2,2.2-0.2,3.4
			c-0.5,1.1-1.1,3-0.5-1.1c-0.1,0.6-0.3,1.7-0.6,3.1c-0.1,0.7-0.3,1.5-0.4,2.3c-0.1,0.8-0.2,1.6-0.3,2.4C-7.9,47-8.2,50-7.9,50.1
			c-0.2,0.7-0.3,3.2-0.3,3.8c-0.1,1.3-0.2,2.3-0.3,3.1c-0.1,0.9-0.1,1.6-0.1,2.3c0,1.4-0.1,2.8-0.1,5.3l0.1-1.4
			c0.4,1,0.3,2.1,0.4,3.4c0,1.3-0.1,2.9,0,5l-0.1-0.1c-0.1,2.4,0,3.8,0,4.8c0.1,1,0.1,1.5,0.2,2c0.1,0.5,0.1,1,0.2,1.9
			c0,0.5,0,1.1,0.1,1.8c0,0.8,0.1,1.7,0.2,2.9l0.4-0.6c0.6,0.4,0.7,2.4,0.8,5c0.2,2.6,0.5,5.8,1.1,8.4c0,0,0-0.1,0-0.3
			c0-0.2,0-0.4,0-0.7c0-0.5,0-1,0-1c0.4,1.4,0.5,3.5,0.6,5.6c0.1,2.1,0,4.3,0.4,5.7c0.1,0.6-0.4-0.9-0.7-1.8
			c1.5,7.7,0.9,0.8,2.6,6.4c0,0.6-0.3,0.3-0.5,0.4c-0.1,0-0.1,0.1-0.1,0.5c0,0.3,0.1,0.9,0.4,1.8c0.2,1,1.3,3.6,2.6,6.6
			c0.7,1.5,1.4,3.1,2.1,4.6c0.3,0.8,0.6,1.5,0.9,2.2c0.3,0.7,0.5,1.4,0.7,2c-0.2-1.2-0.5-2.3,0.8,0c0.4,0.9,0.9,2.1,1.4,3.3
			c0.2,0.6,0.5,1.2,0.7,1.9c0.3,0.6,0.5,1.3,0.8,1.9c0.6,1.3,1.1,2.5,1.7,3.6c0.3,0.5,0.6,1.1,0.9,1.5c0.3,0.5,0.6,0.9,1,1.2
			c0.2,0.5,0.2,0.7,0.2,0.7c0.4,0.7,1,1.5,1.6,2.5c0.6,1,1.3,2,2,3c1.4,2,2.7,3.8,3.4,4.4c0,0.2,0.1,0.5,0.2,0.7
			c0.1,0.3,0.2,0.6,0.4,0.9c0.3,0.7,0.8,1.4,1.4,2.2c1.1,1.6,2.5,3.5,4.1,5.2c0.7,0.9,1.5,1.7,2.1,2.5c0.7,0.8,1.3,1.5,1.8,2.1
			c1,1.2,1.6,2.1,1.3,2.3c0,0,0.4,0.5,1,1.1c0.3,0.3,0.7,0.7,1,1.2c0.4,0.4,0.8,0.9,1.2,1.3c1.7,1.7,3.4,3.5,3.4,3.5l-0.3-0.1
			c0.5,0.6,1,1.1,1.5,1.6c0.5,0.5,0.9,0.9,1.3,1.2c0.8,0.7,1.5,1.4,2.1,1.9c1.3,1,2.1,1.6,3.1,2.2c1,1,0.1,0.4,0,0.4
			c3.3,3.1,5.1,4.8,7,6.1c0.9,0.7,1.8,1.3,2.9,2c0.5,0.3,1.1,0.7,1.8,1.1c0.7,0.4,1.4,0.8,2.2,1.3l0.3,0.9c0.5,0.2,1.3,0.9,2.5,1.8
			c0.6,0.5,1.3,0.9,2,1.4c0.7,0.5,1.5,1.1,2.4,1.7c0.8,0.6,1.7,1.2,2.7,1.8c1,0.6,1.9,1.2,2.9,1.8c1,0.6,2,1.2,3,1.7
			c0.5,0.3,1,0.5,1.5,0.8c0.5,0.2,1,0.5,1.5,0.7c-0.1,0-0.3,0-1-0.2c4.6,2.1,9.8,5,14.6,7.1c1.2,0.5,2.3,1,3.4,1.5
			c0.5,0.2,1.1,0.4,1.6,0.6c0.5,0.2,1,0.3,1.5,0.5c1.9,0.6,3.5,0.9,4.5,0.7c0,0,0.4,0.1,1,0.3c0.6,0.2,1.4,0.3,2.2,0.5
			c1.6,0.3,3.2,0.7,3.2,0.7c-8.1-2.5,1.4-0.4-1.8-1.7c1.6,0.4,3.6,1.1,4.8,1.6c0.6,0.2,0.9,0.4,0.9,0.5c0,0.1-0.5,0.1-1.5-0.2
			l-0.6-0.3c-0.4,0.1,0,0.4,0.8,0.7c0.9,0.3,2.2,0.6,3.5,1c1.4,0.3,2.8,0.7,3.8,1c0.5,0.2,1,0.3,1.2,0.4c0.3,0.1,0.4,0.2,0.4,0.3
			c2.1,0.4,4.1,0.7,6.2,1.1c0.5,0.1,1,0.2,1.5,0.2l1.5,0.2c1,0.1,2.1,0.3,3.1,0.4l1.5,0.2c0.5,0.1,1,0.1,1.5,0.2
			c1,0.1,2.1,0.2,3.1,0.3c1,0.1,2,0.2,3.1,0.3c0.5,0,1,0.1,1.5,0.1l1.5,0.1c2,0.1,4.1,0.2,6.1,0.3c2,0,4,0,6,0c1,0,2,0,3-0.1
			c1-0.1,2-0.1,3-0.2c1-0.1,2-0.1,3-0.2l1.5-0.1c0.5,0,1-0.1,1.5-0.2c0,0-0.5-0.1-0.9-0.3c-0.2-0.1-0.5-0.1-0.6-0.2
			c-0.2-0.1-0.3-0.1-0.3-0.1s0.1,0,0.2,0c0.1,0,0.4,0,0.6-0.1c0.5-0.1,1.2-0.1,1.9-0.2c1.4-0.2,2.7-0.3,2.7-0.3c1.4,0,2,0.3-1.9,0.8
			c1,0.1,2.7-0.2,4-0.6c0.3-0.1,0.7-0.2,1-0.3c0.3-0.1,0.6-0.2,0.8-0.3c0.4-0.2,0.7-0.3,0.8-0.3c7.6-1-2.8,1.4-0.5,1l3.1-0.6l-0.7,0
			c1.3-0.4,1.9-0.7,2.8-0.9c0.5-0.1,1-0.3,1.7-0.4c0.7-0.2,1.6-0.4,2.7-0.7c2.9-0.5,1.6,0.1,2.7-0.1c0,0.1,0.4,0,1.8-0.4
			c0,0,0.4-0.1,1.1-0.3c0.6-0.2,1.5-0.4,2.3-0.6c1.7-0.5,3.3-0.9,3.3-0.9l-2.8,0.2c1.4-0.6,3-1,3.8-1.3c0.4-0.1,0.6-0.2,0.5-0.3
			c-0.1,0-0.5,0-1.3,0c0.3,0,0.7-0.1,1.1-0.1c0.4-0.1,0.9-0.2,1.4-0.3c1-0.3,2.2-0.6,3.5-1c2.6-0.7,5.5-1.9,8.4-3
			c1.5-0.5,2.8-1.2,4.2-1.8c1.3-0.6,2.6-1.2,3.7-1.7c0.6-0.2,1.1-0.5,1.5-0.8c0.5-0.2,0.9-0.5,1.3-0.6c0.8-0.4,1.4-0.6,1.7-0.8
			c0.9-0.6,1.8-1.1,2.7-1.7c0.9-0.6,1.8-1.2,2.8-1.7c1.9-1.2,4-2.3,6.2-3.7c-1.2,0.6-2.2,0.4,1.7-1.9c-0.2,0.5,0.2,0.5,0.9,0.2
			c0.7-0.3,1.8-0.9,2.9-1.6c1.1-0.7,2.4-1.6,3.6-2.4c0.6-0.4,1.2-0.7,1.7-1c0.5-0.3,1-0.6,1.5-0.8c-1.5,0.8,1-1.3,3.3-3.2
			c1.2-0.9,2.2-1.9,2.7-2.5c0.5-0.6,0.4-0.7-0.7,0c2.9-2.4,0.5,0.2,2.9-1.4c0.4-0.4,0.8-0.8,1.2-1.2c0.4-0.4,0.9-0.8,1.3-1.2
			c0.8-0.8,1.7-1.7,2.6-2.5c0.9-0.8,1.8-1.7,2.7-2.6c0.9-0.9,1.8-1.8,2.7-2.7c0.9-0.9,1.9-1.8,2.8-2.8c0.9-1,1.8-2,2.7-3
			c0.5-0.5,0.9-1,1.4-1.5l0.7-0.8l0.6-0.8c0.9-1.1,1.7-2.2,2.6-3.3c0-0.2-1.4,1-0.1-1c0,0,0.3-0.3,0.7-0.6c0.2-0.2,0.4-0.4,0.7-0.7
			c0.2-0.2,0.5-0.5,0.8-0.8c1-1.1,2.1-2.1,2.1-2.1c0.6-0.9,0.7-1.5,1-2.2c0.1-0.3,0.3-0.7,0.7-1.2c0.3-0.5,0.8-1.1,1.4-1.8
			c-0.4,0.4-1.1,1-0.3-0.3c6.3-8.9,11.3-18.9,15.2-29.3c4-10.4,6.9-21.2,9.5-32c-0.9,2.9-0.6,0.9-0.2-1.3c-0.3,1.5-0.4-0.1-0.7,0.2
			c0,0,0-0.1,0.1-0.4c0-0.2,0.1-0.6,0.2-1c0.2-0.9,0.4-2,0.6-3.1c0.2-1.1,0.5-2.3,0.6-3.1c0.1-0.4,0.1-0.8,0.2-1
			c0-0.3,0.1-0.4,0.1-0.4c-0.3-0.9-0.1-3.3,0.1-5.7c0-0.6,0.1-1.2,0.1-1.7c0-0.6,0-1.1,0-1.6c0-0.9-0.1-1.6-0.2-1.9l0,2.9
			c-0.3-2-0.8-0.6-1.3,1.1c-0.6,1.7-1.2,3.8-1.7,3.5c0.1,1.1,0.1,2.3-0.1,3.7c-0.2,1.4-0.6,2.8-0.9,4.4c-0.2,0.8-0.3,1.6-0.5,2.4
			c-0.1,0.4-0.1,0.8-0.2,1.2c-0.1,0.4-0.2,0.8-0.2,1.2c-0.3,1.7-0.5,3.4-0.5,5.2c-0.5,1.5-0.1-1.4-0.4-0.6c0.1,1.8-0.3,3.9-1.4,7.8
			l0-0.5c-0.2,0.7-0.3,1.3-0.4,2c-0.2,0.6-0.3,1.2-0.5,1.8c-0.3,1.2-0.7,2.3-1,3.3c-0.2,0.5-0.3,1-0.5,1.6c-0.2,0.5-0.3,1-0.5,1.5
			c-0.4,1-0.7,1.9-1.1,2.9c-0.4,1-0.7,2-1.1,3c-0.2,0.5-0.4,1-0.6,1.5c-0.2,0.5-0.5,1.1-0.7,1.6c-0.5,1.1-1,2.2-1.5,3.5
			c-0.1,0.3-0.3,0.6-0.4,0.9c-0.2,0.3-0.3,0.6-0.5,1c-0.3,0.7-0.6,1.3-1,2l0.8-0.6c-1.2,2.4-1.5,2.9-2.2,4c-0.6,3.1,3.1-6.9,2.7-4
			c-0.6,0.7-1.4,2.2-2.3,3.9c-0.4,0.9-1,1.8-1.5,2.8c-0.5,1-1.1,2-1.6,3c-0.3,0.5-0.5,1-0.8,1.5c-0.3,0.5-0.6,1-0.8,1.4
			c-0.6,0.9-1.1,1.8-1.6,2.6c-1,1.6-1.8,2.7-2.4,3.1c-2.2,3.5,1.1-0.7-1.1,2.8l-0.8,0.8l-0.2,1.1c-0.4,0.6-0.7,1-1.1,1.4
			c-0.3,0.4-0.6,0.7-0.9,0.9c-0.5,0.5-0.9,0.7-1,0.7c0.4-0.5,1-1.6,1.4-2.1c-1.2,1.3-2.6,3.4-3.8,5.2c-0.6,0.9-1.2,1.7-1.7,2.4
			c-0.5,0.7-0.9,1.2-1.1,1.4c0,0,0.6-0.8,1.3-1.5c0.3-0.4,0.6-0.8,0.9-1c0.2-0.3,0.4-0.5,0.4-0.5c-0.8,1.1-1.7,2.3-2.6,3.5
			c-0.4,0.6-0.9,1.2-1.4,1.8c-0.2,0.3-0.5,0.6-0.7,0.9c-0.2,0.3-0.5,0.6-0.7,0.9c-1,1.2-2,2.3-3,3.5c-0.5,0.6-1,1.2-1.5,1.7
			l-1.6,1.7c-1.1,1.1-2.1,2.3-3.2,3.4c-1.1,1.1-2.2,2.1-3.3,3.2c-2.1,2.2-4.3,4.1-6.2,6l0.8-0.4c-0.8,0.7-1.4,1.3-2,1.8
			c-0.6,0.5-1.1,0.9-1.6,1.3c-0.9,0.7-1.6,1.2-2.3,1.7c-0.7,0.5-1.5,1.1-2.5,1.8c-1,0.7-2.4,1.6-4.2,3l0.2-0.2
			c-1.3,1.3-3.4,2.7-5.5,4c1.8-1.5-3.9,1.9-1.5,0c-0.5,0.3-0.9,0.6-1.3,0.9c-0.4,0.3-0.7,0.5-1.1,0.7c-0.6,0.4-1.1,0.7-1.5,1
			c-0.8,0.5-1.1,0.8-1.4,1c-0.3,0.2-0.5,0.5-0.9,0.8c-0.4,0.4-1.1,0.9-2.3,1.8l-1.4,0.3c-0.8,0.6-1.3,1-2,1.5
			c-0.7,0.5-1.7,1.1-3.8,2.1c3.3-1.8-2.9,0.7,0.7-1.4c-2.3,0.8-4.2,1.6-5.9,2.4c-1.7,0.7-3.2,1.4-4.5,2c-0.7,0.3-1.3,0.6-1.9,0.9
			c-0.6,0.3-1.2,0.5-1.8,0.7c-1.2,0.4-2.3,0.6-3.4,0.7c-1.9,1.2,0.1,0.7,2.3,0c0.6-0.2,1.1-0.4,1.6-0.5c0.5-0.2,1-0.4,1.3-0.5
			c0.7-0.3,1-0.4,0.5-0.1c1-0.2,0.2,0.3-1.1,1c-1.4,0.6-3.5,1.4-4.9,1.9c-0.7,0.2-1.4,0.4-2.2,0.5c-0.8,0.1-1.6,0.2-2.5,0.3
			c-1,0.1-2,0.2-3.4,0.5c-0.7,0.1-1.4,0.3-2.1,0.5c-0.8,0.2-1.6,0.3-2.6,0.5c0.7-0.2,0.8-0.3,1.5-0.4c-1.4,0.2-2.8,0.6-4.2,1
			c-0.7,0.2-1.5,0.4-2.2,0.6c-0.8,0.1-1.6,0.2-2.5,0.3c-1.8,1-4.5,0.8-5,1.7l6.9-1.4c-2,0.5-3.8,1.1-6,1.7c-1.1,0.3-2.3,0.5-3.6,0.7
			c-1.3,0.2-2.8,0.4-4.5,0.5c0.5-0.2,2.4-0.7,3.8-1c-1,0-1.9,0.2-2.8,0.3c-0.9,0.2-1.9,0.3-2.9,0.3c0.1-0.2,0.7-0.3,1.6-0.5
			c0.9-0.2,2.1-0.3,3.4-0.5c1.3-0.2,2.7-0.4,4.1-0.6c1.3-0.3,2.6-0.6,3.6-0.9c-0.5,0-1.3,0.1-2.1,0.3c-0.8,0.2-1.7,0.4-2.4,0.5
			c-1.5,0.3-2.4,0.4-1.4-0.2c-1.5,0.7-3.3,1-5.5,1.2c-2.2,0.1-4.6,0.2-7.2,0.8l0.3-0.5c-0.4,0.1-1,0.2-1.8,0.3
			c-0.7,0.1-1.5,0.2-2.3,0.2l2.7-0.7c-2.1,0.3-4.1,0.3-6.1,0.2c-0.5,0-1,0-1.5-0.1c-0.5,0-1-0.1-1.5-0.1c-1-0.1-2-0.1-3-0.1
			c2.1,0,3.3,0.1,3.9,0.2c0.6,0.1,0.7,0.1,0.6,0.2c-0.1,0.2-0.9,0.5,0.9,0.6c-1.3,0.1-2.4,0.1-3.3,0.1c-0.9,0-1.6-0.1-2.3-0.1
			c-1.2-0.1-2-0.3-2.8-0.5c-0.8-0.2-1.7-0.5-3-0.7c-1.4-0.3-3.3-0.4-6.2-0.7c1.6,0.1,5.9,0.8,3.4,0.8c-0.6-0.1-1.1-0.1-1.8-0.2
			c-0.6-0.1-1.2-0.2-1.8-0.3c-1.2-0.2-2.2-0.5-2.9-0.7c-7.7-0.9,1.1,0.6-2.2,0.5c-2.5-0.9-3.8-0.3-7.2-0.7l0.1-0.5
			c-1.1-0.2-1.9-0.4-2.6-0.5c-0.7-0.1-1.2-0.2-1.5-0.3c-0.8-0.1-1,0-1.3,0c-0.5,0.1-0.9,0.3-4.8-0.8l3.4,0.1c0,0-1-0.2-2-0.4
			c-0.5-0.1-1-0.2-1.4-0.3c-0.4-0.1-0.6-0.1-0.6-0.1s0.2-0.1,0.5-0.2c0.2-0.1,0.5-0.2,0.5-0.2c-2.2-0.4-3.7-0.7-5.1-1.1
			c-0.7-0.2-1.4-0.4-2.2-0.7c-0.8-0.2-1.6-0.6-2.7-1c0.9,0.7-0.8,0.7-4.6-0.6c-0.6-0.3-0.8-0.4-0.9-0.5c0-0.1,0.1-0.1,0.1-0.1
			c0-0.1-0.3-0.2-2.9-1.2c0.6,0.1,1.3,0.2,2.1,0.4c0.4,0.1,0.8,0.3,1.2,0.5c0.5,0.2,0.9,0.4,1.5,0.7c0.3-0.1,1.3,0.1,1.6,0
			c-2.6-1.2-6.7-2.6-8.6-3.3c0.7,0.3,1.6,0.7,2,0.9c0,0-0.5-0.1-1.2-0.4c-0.7-0.2-1.7-0.5-2.6-0.8c-1.9-0.7-3.8-1.3-3.8-1.3
			c-1.1-0.7-0.1-0.4,0.9-0.1c-0.8-0.3-1.4-0.5-2.1-0.8c-0.7-0.3-1.6-0.5-2.6-1.1c0.7-0.1,0.8-0.5,3.9,0.7c0,0-0.4-0.2-1.1-0.4
			c-0.7-0.3-1.6-0.6-2.4-1c-1.7-0.8-3.5-1.5-3.5-1.5c-0.2-0.2-1-0.7-1.6-1.2c-0.7-0.5-1.1-0.9-0.6-0.7c-1.8-1.2-4.1-2.3-6.6-3.5
			c-1.2-0.7-2.5-1.4-3.7-2.1c-1.2-0.7-2.5-1.5-3.5-2.4c-0.3-0.1-0.8-0.4-1.8-1c-1.1-0.8-2.1-1.6-3.1-2.3c-1-0.8-2-1.6-2.9-2.5
			c-1-0.8-2.1-1.7-3.2-2.5c-1.1-0.9-2.2-1.8-3.5-2.7c0,0-0.5-0.7-1.1-1.4c-0.6-0.7-1.1-1.5-1.1-1.5c-3.6-3.3,2.9,4-3.2-1.5
			c-2.2-1.9-2.5-2.4-2.4-2.6c0.1-0.2,0.6-0.1-0.1-0.9c-1.1-0.9-2.7-2.1-4.4-3.7c-0.2-0.2-0.4-0.4-0.6-0.6c-0.2-0.2-0.4-0.4-0.6-0.6
			c-0.4-0.4-0.8-0.9-1.2-1.4c-0.8-1-1.6-2-2.4-3.1C32.4,166.2,33.3,167.3,34.4,168.5z"/>
		<path class="st3" d="M-2.8,36.4c-0.1,0.3-0.2,0.4-0.4,0.4C-3.1,37.3-3,37.4-2.8,36.4z"/>
		<path class="st3" d="M62.6,193.2l0.1,0.1c0.1,0,0.2,0,0.2,0L62.6,193.2z"/>
		<path class="st3" d="M123.5-87.7c-1.1,0.1-1.7,0.1-2.2,0.1C121.3-87.5,121.9-87.5,123.5-87.7z"/>
		<path class="st3" d="M234.8-71.2c0,0-0.2-0.1-0.5-0.3c-0.3-0.2-0.7-0.4-1.1-0.6c-0.8-0.4-1.6-0.8-1.6-0.8c1.5,0.9,2,1.2,2.7,1.8
			C234.4-71.3,233.9-71.8,234.8-71.2z"/>
		<path class="st3" d="M257.5-50.1c0.4,0.3,0.8,0.7,1.2,1.1l0.1-0.3C257.2-50.8,256-51.8,257.5-50.1z"/>
		<path class="st3" d="M236.7-68.1c0,0.3,0.5,0.6,1.3,1.1c0.4,0.2,0.8,0.5,1.3,0.8c0.5,0.3,1,0.6,1.5,1c-0.1-0.1-0.2-0.2-0.4-0.3
			c0.5,0,0.1-0.4-0.6-0.9C239.1-66.8,237.9-67.4,236.7-68.1z"/>
		<path class="st3" d="M241.3-64.8c0.6,0.4,1.3,0.9,1.9,1.3C243.5-63.5,242.4-64.1,241.3-64.8z"/>
		<path class="st3" d="M214.6-81.2c1,0.6,0.9-0.2,1.4,0.3c0.7,0-1.2-0.6-2.5-1c-0.6-0.2-1.2-0.3-1.1-0.2
			C212.5-82.1,213-81.8,214.6-81.2z"/>
		<path class="st3" d="M237.7-65.8l-0.5-0.9l-1.4-0.4L237.7-65.8z"/>
		<path class="st3" d="M221-75.9l3.5,1.9c0-0.1,0.5,0.1,1,0.3C223.3-74.8,220.9-76.1,221-75.9z"/>
		<path class="st3" d="M225.4-73.7c1.1,0.6,2.2,1.2,2.8,1.5C227.6-72.5,226.4-73.3,225.4-73.7z"/>
		<path class="st3" d="M233-68.6c0,0-0.2-0.2-0.5-0.4c-0.2-0.2-0.5-0.4-0.5-0.4l-2.4-1.4c0,0,0.8,0.5,1.7,1
			C232.2-69.2,233-68.6,233-68.6z"/>
		<path class="st3" d="M180.8-89.7l-4.3-0.6c-0.5,0.1,0.7,0.4,2.3,0.6C179.8-89.6,181.4-89.4,180.8-89.7z"/>
		<path class="st3" d="M193.1-85.3c-1.1-0.4-1.1-0.6-1.7-0.9l-0.3,0.6L193.1-85.3z"/>
		<path class="st3" d="M181-88.1c-0.5,0.1-6.2-0.6-0.9,0.3c0.2,0,1.4,0.1,2,0.1c0.3,0,0.5,0,0.4,0c-0.1,0-0.2-0.1-0.5-0.2
			C181.8-87.9,181.4-88,181-88.1z"/>
		<path class="st3" d="M116.7-88.2l1.1-0.3l-0.4-1L116.7-88.2z"/>
		<path class="st3" d="M65.7-64.1c4.4-2.5,0.6-1.2,4.7-3.4c0.5-0.4-0.4,0-1.2,0.5c-0.8,0.4-1.6,0.9-1.2,0.5
			C65.6-64.7,64.1-63.9,65.7-64.1z"/>
		<path class="st3" d="M68-66.5c0.4-0.3,0.8-0.6,1.2-1C68.5-67,68.2-66.7,68-66.5z"/>
		<path class="st3" d="M310.4,74.8c0,0,0-0.2,0.1-0.5c0.1-0.3,0.1-0.7,0.1-1.1c0.1-0.8,0.2-1.7,0.2-1.7l-0.4,2.1c0,0,0,0.3,0,0.6
			C310.4,74.5,310.4,74.8,310.4,74.8z"/>
		<path class="st3" d="M309.9,68.4l0.7-0.8l-0.6-2C310,66.4,310,67.8,309.9,68.4z"/>
		<path class="st3" d="M2.2,108L2,107.8c0,0.5,0.2,1.3,0.5,2.7L2.2,108z"/>
		<path class="st3" d="M19.5,147.9l-0.4-0.6l0.3,1.5L19.5,147.9z"/>
		<path class="st3" d="M43,175.8c-0.5-0.5-1.2-1-1.7-1.6c-0.6-0.6-1.2-1.1-1.7-1.7C41.9,174.8,42.8,176.6,43,175.8z"/>
	</g>
</g>
<g transform="translate(0.000000,1000.000000) scale(0.100000,-0.100000)">
	<path class="st4" d="M5424,9661.1c-32.9-186.2-121.8-757.8-118.8-760.9c4.6-4.6,125.7-26.8,144.8-26.8c10,0,16.9,28.4,37.5,159.4
		c13.8,87.4,27.6,161.7,30.6,164.7c3.1,3.1,66.7-4.6,141.8-16.9c75.9-13,137.9-22.2,139.5-20.7c8.4,7.7,23.8,131,17.6,134.9
		c-3.8,2.3-66.7,13.8-139.5,26.1c-72.8,11.5-133.3,22.2-135.6,23.8c-3.8,3.8,20.7,158.6,26.1,164c2.3,1.5,68.2-7.7,147.1-19.9
		c79.7-13,144.8-22.2,146.4-21.5c5.4,4.6,24.5,136.4,20.7,140.2c-2.3,2.3-94.2,19.2-205.4,36.8c-110.3,18.4-211.5,35.2-224.5,37.5
		C5430.1,9685.6,5427.8,9684.1,5424,9661.1z"/>
	<path class="st4" d="M4480,9652.7c-100.4-10.7-186.2-65.1-223-140.2c-17.6-36.8-19.9-48.3-16.9-97.3c4.6-67.4,23.8-107.3,72-149.4
		c42.1-37.5,86.6-55.2,194.6-78.2c135.6-28.4,168.6-49.8,174.7-114.2c3.1-34.5,1.5-40.6-19.2-61.3c-62.1-61.3-164.7-46-249,38.3
		c-20.7,20.7-39.8,37.5-42.9,37.5s-27.6-22.2-55.2-49.8l-49-49l31.4-36.8c65.9-78.2,141-116.5,239.8-122.6
		c144.1-10,280.4,65.1,311.1,170.9c15.3,54.4,11.5,128.7-10.7,179.3c-19.2,45.2-82.8,101.9-134.9,121.8
		c-22.2,8.4-79.7,22.2-128,31.4c-124.9,23.8-163.2,46-163.2,95.8c0,45.2,48.3,80.5,109.6,80.5c42.1,0,64.4-10,104.2-46.7l33.7-31.4
		l54.4,47.5c29.1,26.8,53.6,50.6,53.6,53.6c0,16.9-60.5,71.3-102.7,91.9C4607.2,9652.7,4552.7,9661.1,4480,9652.7z"/>
	<path class="st4" d="M4003.3,9530.1c-42.9-18.4-79.7-34.5-82-36.8c-2.3-1.5-10.7-80.5-20.7-175.5c-9.2-95-17.6-173.9-18.4-174.7
		c-1.5-1.5-62.8,47.5-136.4,108.8c-73.6,61.3-136.4,111.9-140.2,111.9c-9.2,0-159.4-62.1-166.3-69c-3.8-3.1,89.7-78.9,207.7-168.6
		l214.5-161.7l62.8-153.2c35.2-84.3,65.1-151.7,68.2-151c3.1,1.5,38.3,16.1,78.9,32.2l74.3,29.9l-11.5,27.6
		c-6.1,15.3-34.5,84.3-62.8,153.2l-52.1,125.7l36.8,253.6c39.1,271.3,39.8,280.4,31.4,280.4
		C4083.8,9562.3,4046.3,9547.7,4003.3,9530.1z"/>
	<path class="st4" d="M6218.6,9451.9c-116.5-25.3-218.4-105.7-271.3-213.8c-66.7-134.1-69.7-254.4-10-380.1
		c79.7-166.3,291.2-268.2,478.9-229.1c100.4,20.7,209.2,101.1,262.8,193.9c128.7,220.7,55.9,476.6-165.5,586.2
		C6410.1,9459.6,6317.4,9473.4,6218.6,9451.9z M6433.9,9272.6c94.2-46.7,139.5-123.4,132.6-226c-10.7-163.2-144.8-282.7-286.6-256.7
		c-84.3,15.3-147.9,61.3-185.4,133.3c-16.9,32.2-19.9,48.3-20.7,103.4c0,55.9,3.1,72,21.5,111.1c39.1,82.8,82,125.7,153.2,151
		C6305.9,9309.4,6371.1,9303.3,6433.9,9272.6z"/>
	<path class="st4" d="M3043.2,9082.6c0.8-21.5,151.7-907.2,155.5-911.1c6.1-6.9,151,95.8,151,107.3c0,5.4-6.9,46.7-15.3,92.7
		c-8.4,46-15.3,85.8-15.3,88.9c0,4.6,178.5,135.6,211.5,154.8c4.6,2.3,44.4-16.1,88.1-42.1c43.7-25.3,83.5-46.7,88.1-46.7
		c3.8,0,41.4,23,82,52.1l75.1,52.9l-21.5,13c-39.8,23.8-791.5,443.7-795.4,443.7C3044.8,9088,3043.2,9085.7,3043.2,9082.6z
		 M3342.1,8760c44.4-26.8,81.2-49.8,82-50.6c1.5-0.8-31.4-25.3-71.3-53.6c-40.6-28.4-75.9-49.8-78.2-47.5
		c-3.1,3.8-46.7,199.2-47.5,213.8C3227.1,8829.7,3242.5,8821.3,3342.1,8760z"/>
	<path class="st4" d="M6833.9,8780.7c-210.7-257.5-249.8-308.8-239.8-315.7c6.1-5.4,35.2-29.1,65.1-54.4
		c30.6-24.5,55.9-43.7,56.7-42.1c42.1,56.7,177.8,213.8,184.7,213.8c5.4,0,17.6-8.4,27.6-19.2l17.6-19.2l-18.4-168.6l-19.2-169.3
		l75.1-61.3c42.1-34.5,76.6-61.3,78.2-59.8c0.8,1.5,8.4,84.3,15.3,183.1c7.7,98.8,14.6,180.8,16.1,182.4c1.5,1.5,22.2-0.8,46-5.4
		c80.5-14.6,151,7.7,210.7,68.2c54.4,53.6,72.8,98.1,72.8,176.2c0,111.1-30.6,154-220.7,311.1c-58.2,48.3-108.8,87.4-111.1,87.4
		C7087.5,9087.2,6971.8,8949.3,6833.9,8780.7z M7187.9,8822.1c68.2-61.3,83.5-104.2,57.5-160.9c-27.6-57.5-96.5-78.9-154.8-49
		c-32.9,17.6-101.9,73.6-101.1,82.8c0.8,11.5,132.6,170.9,141,170.9C7135,8865.8,7161.1,8845.8,7187.9,8822.1z"/>
	<path class="st4" d="M2591.2,8527.8c-53.6-10-153.2-63.6-195.4-104.2c-21.5-19.9-81.2-88.1-133.3-150.2
		c-80.5-95.8-93.5-114.9-84.3-123.4c6.1-5.4,138.7-116.5,294.2-246c156.3-130.3,288.9-241.4,295.8-246.7
		c11.5-9.2,24.5,3.1,117.2,114.2c141,169.3,180.8,250.6,180.8,367c0,103.4-42.9,196.2-128.7,275.8
		C2834.1,8511,2712.2,8551.6,2591.2,8527.8z M2741.3,8342.4c53.6-26.8,110.3-80.5,137.2-129.5c19.2-34.5,23-49,23-94.2
		c-0.8-65.9-22.2-114.2-84.3-190l-43.7-51.3l-48.3,39.8c-26.8,22.2-110.3,92.7-186.2,155.5c-76.6,63.6-138.7,118.8-138.7,123.4
		c-0.8,5.4,27.6,38.3,62.8,74.3c48.3,49.8,72.8,68.2,105,81.2C2623.3,8373.1,2687.7,8370,2741.3,8342.4z"/>
	<path class="st4" d="M1995,7845.1c-10.7-13.8-72-137.2-69-140.2c6.9-6.1,705.7-364,707.2-362.4c1.5,1.5,19.9,35.2,41.4,75.1
		l38.3,73.6l-351.7,181.6c-193.9,99.6-353.2,181.6-354.8,181.6C2004.2,7854.3,1999.6,7849.7,1995,7845.1z"/>
	<path class="st4" d="M1914.6,7363.1c-69.7-11.5-137.9-66.7-177.8-144.8c-19.2-38.3-108-327.2-101.9-333.3
		c4.6-5.4,741.7-226,753.2-226c8.4,0,49.8,123.4,49.8,147.9c0,6.9-42.9,23.8-131.8,49.8c-72,22.2-133.3,41.4-134.9,43.7
		c-2.3,1.5,1.5,16.9,6.9,32.2l11.5,29.1l158.6,46c87.4,26.1,161.7,49.8,165.5,53.6c6.9,7.7,54.4,163.2,54.4,178.5
		c0,4.6-76.6-17.6-170.1-49c-93.5-31.4-172.4-56.7-175.5-56.7s-7.7,13-10.7,29.1c-7.7,42.9-37.5,101.9-65.9,130.3
		C2091.6,7348.6,1996.5,7376.9,1914.6,7363.1z M1995,7186.1c16.1-4.6,39.8-20.7,52.1-34.5c31.4-35.2,32.9-76.6,6.9-164l-15.3-50.6
		l-107.3,32.2c-59,18.4-108.8,34.5-110.3,36c-6.9,6.1,29.1,110.3,46.7,135.6c19.2,28.4,57.5,53.6,82.8,54.4
		C1958.2,7195.3,1978.2,7191.5,1995,7186.1z"/>
	<path class="st4" d="M1592,6604.6c-5.4-18.4-29.1-444.4-25.3-449c3.8-3.1,788.5-55.9,791.5-52.9c0.8,0,3.8,37.5,6.9,82l5.4,80.5
		l-167.8,10c-91.9,5.4-167.8,10.7-168.6,11.5c-1.5,1.5,1.5,64.4,6.9,141c4.6,76.6,6.9,141,4.6,143.3c-2.3,2.3-33.7,6.1-69,9.2
		l-65.1,4.6l-4.6-68.2c-3.1-37.5-7.7-101.9-10-144.1l-5.4-75.9l-83.5,3.8c-46,2.3-85.1,5.4-85.8,6.9c-1.5,1.5,1.5,69,6.9,148.7
		c5.4,80.5,8.4,147.1,6.9,148.7c-1.5,1.5-33.7,4.6-71.3,6.9C1609.6,6614.5,1595,6613,1592,6604.6z"/>
	<path class="st4" d="M7510.5,4841.4c-69-119.5-126.4-219.1-128-221.4c-2.3-5.4,686.6-393.9,690.4-389.3
		c3.1,3.1,237.5,405.3,250.6,429.9c5.4,10.7-3.1,18.4-49.8,43.7c-30.7,17.6-59.8,31.4-64.4,31.4s-44.4-63.6-89.7-141.8
		s-85.1-143.3-88.9-145.6c-8.4-6.1-175.5,87.4-175.5,98.1c0,3.8,34.5,66.7,76.6,139.5s76.6,134.1,76.6,136.4
		c0,4.6-105.7,66.7-114.9,66.7c-3.1,0-41.4-61.3-84.3-135.6c-43.7-75.1-79.7-137.2-80.5-138.7c-3.1-3.1-22.2,6.9-89.7,46l-51.3,29.1
		l84.3,145.6c46,79.7,83.5,147.9,83.5,152.5c0,6.9-77.4,54.4-108,65.9C7638.4,5057.5,7607.8,5010,7510.5,4841.4z"/>
	<path class="st4" d="M7303.6,4420.8c-46-6.9-85.8-24.5-130.3-56.7c-35.2-26.1-241.4-243.7-241.4-255.2
		c0-7.7,570.9-530.2,578.5-530.2c3.8,0,30.6,26.8,60.5,60.5l54.4,60.5l-103.4,93.5c-56.7,52.1-103.4,96.5-103.4,99.6
		c0,2.3,10,14.6,22.2,26.1l22.2,21.5l167-27.6l167.8-28.4l66.7,71.3c52.9,57.5,63.6,72,53.6,76.6c-7.7,3.1-88.9,14.6-181.6,25.3
		c-92.7,10.7-169.3,21.5-170.9,23c-1.5,1.5,1.5,15.3,6.1,31.4c15.3,45.2,12.3,117.2-6.9,160.9c-19.2,42.9-67.4,95.8-111.9,121.8
		C7416.2,4416.9,7351.1,4427.7,7303.6,4420.8z M7372.5,4239.2c29.1-22.2,53.6-62.1,53.6-89.7c0-31.4-25.3-76.6-71.3-126.4l-36-39.8
		l-25.3,19.9c-13,10.7-52.1,45.2-85.8,76.6l-61.3,57.5l46,47.5C7265.3,4259.1,7322,4276.7,7372.5,4239.2z"/>
	<path class="st4" d="M6746.5,3974.8c-34.5-22.2-65.1-42.1-67.4-45.2c-3.1-3.1,55.2-103.4,129.5-223.7
		c142.5-229.9,164.7-271.3,165.5-305c0-47.5-33.7-95-88.1-122.6c-42.1-22.2-88.9-19.9-125.7,3.8c-32.9,22.2-40.6,32.9-196.2,285
		c-62.1,101.1-117.2,190-122.6,196.9c-7.7,12.3-15.3,9.2-78.9-30.6c-45.2-27.6-69-47.5-66.7-53.6c10.7-27.6,287.3-466.6,311.1-495
		c56.7-64.4,147.9-95.8,238.3-82c108,17.6,229.1,105,272.8,197.7c17.6,38.3,20.7,54.4,20.7,113.4c0,62.1-3.1,73.6-24.5,114.9
		c-30.6,59.8-292.7,482-299.6,484.3C6811.6,4013.9,6781,3996.3,6746.5,3974.8z"/>
	<path class="st4" d="M5879.9,3544.9c-152.5-47.5-278.9-88.1-281.2-89.7c-2.3-3.1,32.9-137.2,37.5-142.5
		c0.8-0.8,47.5,12.3,103.4,29.1s102.7,29.9,103.4,28.4c0.8-0.8,40.6-136.4,88.9-301.1c47.5-164,88.9-301.1,91.2-304.2
		c3.8-4.6,151.7,36,160.1,42.9c0.8,1.5-38.3,137.2-86.6,301.9c-48.3,164.7-88.1,302.7-88.1,307.3c0,4.6,45.2,22.2,100.4,39.1
		c99.6,31.4,100.4,32.2,95,52.1c-12.3,52.9-36.8,124.1-40.6,123.4C6160.3,3631.5,6033.1,3592.4,5879.9,3544.9z"/>
	<path class="st4" d="M4257.7,3517.4c-9.2-15.3-172.4-769.3-167-773.9c6.9-6.9,147.1-34.5,151-29.9c2.3,2.3,73.6,315.7,73.6,323.4
		c0,1.5,64.4-10,142.5-25.3c97.3-19.9,143.3-26.1,144.8-19.9c14.6,49,27.6,121.8,22.2,126.4c-3.8,3.8-63.6,16.9-133.3,30.6
		c-69.7,13.8-130.3,26.1-134.9,27.6c-6.1,1.5-3.1,26.1,8.4,80.5c10,42.9,19.9,80.5,23,82.8c3.1,3.1,69-7.7,147.1-23.8
		c78.2-16.1,142.5-28.4,144.1-26.8c3.8,3.1,34.5,139.5,32.2,141C4704.5,3435.4,4260,3521.2,4257.7,3517.4z"/>
	<path class="st4" d="M5331.3,3427.7l-37.5-3.1l3.8-273.6c2.3-166.3,0.8-283.5-3.8-300.4c-10.7-39.8-34.5-69-69.7-85.1
		c-82.8-37.5-174.7,1.5-195.4,83.5c-3.8,15.3-9.2,149.4-12.3,296.5c-3.1,147.9-6.1,269-7.7,270.5c-0.8,0.8-39.1,0-83.5-3.1l-82-5.4
		l4.6-246c5.4-301.1,8.4-348.6,26.8-396.9c57.5-152.5,268.2-213,448.3-128c61.3,29.1,118.8,100.4,137.9,171.6
		c6.9,26.1,6.1,541-0.8,592.3l-4.6,32.2l-43.7-1.5C5388,3430.8,5351.9,3429.2,5331.3,3427.7z"/>
</g>
<g>
	<path class="st3" d="M659.8,395.6L541.9,288.5c0.6,14.7-3.4,29.3-11.6,41.5l16.2,74.7l57.5,52.2c5.7,5.1,14.3,4.6,19.5-0.9l9.1-10
		l36.6,32.5l18.3-20.7l-36.4-32.3l9.5-10.4C665.8,409.4,665.4,400.7,659.8,395.6C659.8,395.6,659.8,395.6,659.8,395.6L659.8,395.6z"
		/>
	<path class="st3" d="M507.4,351.5c-22.4,12.9-50,12.2-71.8-1.7l33.8,155.6c0.5,2.1,1.4,4.1,2.7,5.7l38.7,48.1
		c4.9,5.9,13.7,6.7,19.6,1.8c2.2-1.8,3.8-4.3,4.5-7l15.3-59.9c0.5-2.1,0.6-4.3,0.1-6.3L519,343.1
		C515.5,346.3,511.6,349.1,507.4,351.5L507.4,351.5z"/>
	<path class="st3" d="M500.5,339.5c26.4-15.2,35.5-49,20.3-75.5c-12.6-21.8-38.4-32.4-62.7-25.6l-7.8-13.5l-23.9,13.8l7.8,13.5
		c-21.8,21.4-22.1,56.4-0.7,78.1C451.1,348.4,478.7,352.1,500.5,339.5z M466,279.7c6.6-3.8,15.1-1.6,18.9,5.1
		c3.8,6.6,1.6,15.1-5.1,18.9c-6.6,3.8-15.1,1.6-18.9-5.1C457.1,292,459.4,283.5,466,279.7z"/>
</g>
</svg>
