<svg clip-rule="evenodd" fill-rule="evenodd" stroke-linecap="round" stroke-linejoin="round" stroke-miterlimit="1.5" viewBox="0 0 26042 26042" xmlns="http://www.w3.org/2000/svg"><path d="m15265.6 248.763c7060.75 1227.28 11796.8 7956.12 10569.5 15016.9-1227.28 7060.75-7956.12 11796.8-15016.9 10569.5-7060.75-1227.28-11796.8-7956.12-10569.5-15016.9 1227.28-7060.75 7956.12-11796.8 15016.9-10569.5z" fill="#1da64a" stroke="#5a9545" stroke-width="17.38"/><g fill="#fff"><path d="m14107.6 1144.78c-111.725 631.367-413.116 2569.64-402.725 2580.03 15.588 15.591 426.109 90.937 491.063 90.937 33.779 0 57.162-96.133 127.312-540.429 46.771-296.196 93.538-548.225 103.93-558.617 10.391-10.396 226.045 15.588 480.67 57.159 257.225 44.17 467.68 75.35 472.88 70.154 28.579-25.984 80.541-444.296 59.758-457.288-12.992-7.796-226.046-46.767-472.879-88.342-246.829-38.97-452.088-75.345-459.884-80.541-12.991-12.992 70.15-537.834 88.338-556.021 7.796-5.196 231.242 25.983 498.858 67.554 270.217 44.171 491.067 75.35 496.263 72.75 18.187-15.587 83.141-462.483 70.15-475.475-7.792-7.796-319.579-64.954-696.321-124.712-374.146-62.359-717.108-119.521-761.279-127.317-75.35-12.987-83.142-7.792-96.134 70.154z"/><path d="m10906.6 1173.36c-340.366 36.375-631.366 220.85-756.079 475.475-59.762 124.717-67.554 163.688-57.162 329.975 15.587 228.642 80.546 363.75 244.233 506.655 142.9 127.312 293.6 187.07 659.95 265.016 459.883 96.134 571.608 168.884 592.392 387.138 10.391 116.916 5.195 137.704-64.954 207.854-210.459 207.858-558.617 155.896-844.421-129.908-70.155-70.155-135.109-127.313-145.505-127.313-10.391 0-93.533 75.346-187.07 168.883l-166.284 166.288 106.525 124.712c223.446 265.021 478.071 394.93 813.242 415.717 488.467 33.775 950.95-220.85 1054.88-579.404 51.967-184.475 38.975-436.5-36.375-607.983-64.954-153.296-280.608-345.563-457.287-413.117-75.346-28.579-270.213-75.35-433.9-106.529-423.513-80.542-553.425-155.892-553.425-324.775 0-153.296 163.691-272.817 371.545-272.817 142.905 0 218.255 33.779 353.359 158.492l114.325 106.529 184.471-161.092c98.733-90.937 181.875-171.479 181.875-181.875 0-57.158-205.259-241.633-348.159-311.787-194.866-96.134-379.341-124.713-626.175-96.134z"/><path d="m9290.5 1589.08c-145.5 62.358-270.217 116.921-278.008 124.717-7.796 5.196-36.375 272.812-70.155 594.991-31.179 322.179-59.758 589.796-62.358 592.392-5.196 5.2-213.054-161.088-462.483-368.946s-462.484-379.342-475.475-379.342c-31.175 0-540.429 210.459-563.813 233.842-12.991 10.392 303.992 267.617 704.117 571.608l727.504 548.225 213.054 519.646c119.517 285.804 220.85 514.446 231.242 511.85 10.392-5.2 129.912-54.562 267.617-109.125l252.029-101.333-38.975-93.533c-20.788-51.967-116.921-285.809-213.054-519.646l-176.68-426.109 124.713-860.012c132.513-919.771 135.108-950.95 106.529-950.95-12.991 2.6-140.304 51.967-285.804 111.725z"/><path d="m16802 1854.09c-394.929 85.741-740.491 358.558-919.77 724.904-226.046 454.692-236.438 862.612-33.775 1288.72 270.212 563.812 987.325 909.375 1623.89 776.866 340.367-70.15 709.313-342.966 891.192-657.35 436.5-748.287 189.666-1616.09-561.217-1987.64-350.762-171.484-665.146-218.254-1000.32-145.504zm730.1 607.987c319.584 158.492 472.88 418.313 449.492 766.475-36.375 553.421-491.062 958.742-971.733 870.404-285.804-51.966-501.459-207.858-628.771-452.091-57.158-109.125-67.554-163.688-70.15-350.759 0-189.671 10.392-244.233 72.75-376.746 132.508-280.604 278.008-426.108 519.642-511.845 194.866-70.155 415.716-49.367 628.77 54.562z"/><path d="m6034.92 3106.44c2.596 72.749 514.446 3076.29 527.437 3089.28 20.788 23.383 511.85-324.775 511.85-363.75 0-18.188-23.383-158.492-51.966-314.383-28.58-155.896-51.963-291-51.963-301.396 0-15.588 605.388-459.884 717.108-524.842 15.592-7.792 150.696 54.563 298.796 142.904 148.1 85.742 283.208 158.492 298.796 158.492 12.992 0 140.304-77.946 278.008-176.679l254.63-179.28-72.75-44.166c-135.109-80.546-2683.97-1504.37-2696.96-1504.37-7.791 0-12.987 7.792-12.987 18.187zm1013.3 1093.85c150.696 90.938 275.412 168.884 278.012 171.484 5.196 2.596-106.529 85.741-241.637 181.875-137.704 96.133-257.225 168.883-265.017 161.091-10.396-12.991-158.491-675.537-161.091-724.904 0-25.983 51.966 2.596 389.733 210.454z"/><path d="m18888.3 4130.14c-714.508 873.001-847.016 1047.08-813.241 1070.47 20.787 18.188 119.516 98.734 220.85 184.471 103.929 83.146 189.671 148.1 192.266 142.904 142.905-192.266 602.788-724.904 626.171-724.904 18.188 0 59.759 28.579 93.538 64.954l59.758 64.959-62.358 571.608-64.954 574.208 254.625 207.854c142.904 116.921 259.825 207.859 265.02 202.663 2.596-5.196 28.579-285.804 51.963-620.975 25.983-335.171 49.366-613.179 54.562-618.375s75.35 2.596 155.896 18.187c272.813 49.367 511.846-25.983 714.508-231.241 184.475-181.875 246.834-332.575 246.834-597.592 0-376.742-103.929-522.242-748.288-1054.88-197.466-163.688-368.95-296.196-376.746-296.196-10.391 2.596-402.72 470.279-870.404 1041.89v.001zm1200.38-140.305c231.241 207.859 283.208 353.359 194.866 545.625-93.533 194.867-327.375 267.617-524.842 166.288-111.72-59.758-345.562-249.429-342.962-280.608 2.596-38.975 449.492-579.405 478.071-579.405 15.592 0 103.929 67.555 194.867 148.1z"/><path d="m4501.96 4987.54c-181.875 33.775-519.641 215.65-662.546 353.358-72.749 67.554-275.412 298.796-452.087 509.25-272.817 324.779-316.983 389.733-285.808 418.313 20.787 18.187 470.279 394.933 997.72 834.029 530.038 441.7 979.53 818.441 1002.91 836.629 38.971 31.179 83.142-10.392 397.529-387.133 478.071-574.209 613.179-849.621 613.179-1244.55 0-350.758-145.5-665.145-436.5-935.358-350.762-327.379-763.879-465.083-1174.4-384.537zm509.255 628.771c181.874 90.937 374.141 272.812 465.079 439.095 64.958 116.921 77.95 166.288 77.95 319.584-2.6 223.446-75.35 387.133-285.805 644.358l-148.1 174.079-163.687-135.104c-90.938-75.35-374.146-314.387-631.371-527.442-259.821-215.65-470.275-402.725-470.275-418.312-2.6-18.188 93.534-129.913 213.054-252.029 163.688-168.884 246.83-231.242 355.955-275.409 187.07-72.75 405.325-62.358 587.199 31.18z"/><path d="m2480.55 7302.58c-36.375 46.767-244.229 465.079-233.837 475.471 23.383 20.788 2392.96 1234.16 2398.16 1228.96 5.196-5.2 67.554-119.521 140.304-254.629l129.913-249.43-1192.59-615.775c-657.35-337.77-1197.78-615.779-1202.98-615.779-7.796 0-23.383 15.588-38.975 31.179z"/><path d="m2207.74 8936.83c-236.438 38.975-467.68 226.046-602.788 491.063-64.954 129.912-366.35 1109.44-345.562 1130.23 15.587 18.188 2515.08 766.475 2554.05 766.475 28.579 0 168.883-418.312 168.883-501.458 0-23.384-145.5-80.546-446.896-168.884-244.233-75.35-452.091-140.304-457.287-148.1-7.792-5.195 5.196-57.158 23.383-109.125l38.975-98.733 537.834-155.892c296.195-88.337 548.225-168.883 561.216-181.875 23.383-25.983 184.471-553.42 184.471-605.387 0-15.588-259.821 59.762-576.804 166.287-316.983 106.53-584.6 192.267-594.992 192.267-10.396 0-25.983-44.167-36.375-98.729-25.983-145.5-127.312-345.567-223.45-441.7-184.471-187.071-506.65-283.204-784.662-236.438zm272.812 600.192c54.563 15.588 135.109 70.15 176.679 116.917 106.53 119.521 111.725 259.825 23.388 556.021l-51.967 171.483-363.75-109.125c-200.062-62.358-368.95-116.921-374.146-122.117-23.383-20.787 98.734-374.146 158.492-459.887 64.958-96.134 194.867-181.875 280.608-184.471 25.984 0 93.538 12.987 150.696 31.179z"/><path d="m1113.89 11509.1c-18.188 62.354-98.734 1506.97-85.742 1522.56 12.992 10.391 2673.57 189.666 2683.96 179.275 2.601 0 12.992-127.313 23.384-278.009l18.187-272.812-569.008-33.779c-311.788-18.188-569.013-36.375-571.608-38.975-5.196-5.196 5.195-218.25 23.383-478.071 15.587-259.821 23.383-478.071 15.587-485.867-7.791-7.796-114.32-20.787-233.837-31.179l-220.85-15.592-15.588 231.246c-10.395 127.313-25.983 345.563-33.779 488.463l-18.187 257.225-283.204-12.992c-155.896-7.796-288.405-18.187-291.005-23.383-5.195-5.196 5.2-233.842 23.388-504.054 18.187-272.813 28.579-498.859 23.383-504.055-5.196-5.2-114.325-15.591-241.637-23.387-187.071-10.392-236.438-5.196-246.829 23.387z"/><path d="m21182.5 17487.6c-233.842 405.321-428.709 743.092-433.904 750.884-7.796 18.187 2328 1335.49 2340.99 1319.9 10.396-10.392 805.45-1374.46 849.621-1457.6 18.188-36.375-10.396-62.359-168.883-148.1-103.929-59.759-202.663-106.525-218.254-106.525-15.588 0-150.696 215.65-303.992 480.67-153.296 265.017-288.4 485.867-301.392 493.663-28.583 20.783-594.991-296.2-594.991-332.575 0-12.992 116.916-226.046 259.821-472.875 142.9-246.829 259.82-454.688 259.82-462.483 0-15.592-358.554-226.046-389.733-226.046-10.392 0-140.304 207.858-285.804 459.887-148.1 254.625-270.213 465.079-272.813 470.275-10.391 10.396-75.35-23.383-303.991-155.891l-174.084-98.734 285.809-493.662c155.891-270.213 283.204-501.454 283.204-517.046 0-23.383-262.421-184.475-366.35-223.446-31.179-12.992-135.109 148.096-465.079 719.708z"/><path d="m20481 18914c-155.896 23.383-291 83.146-441.7 192.271-119.517 88.337-818.438 826.233-818.438 865.208 0 25.979 1935.67 1797.97 1961.66 1797.97 12.988 0 103.93-90.938 205.259-205.258l184.475-205.259-350.763-316.983c-192.266-176.679-350.758-327.375-350.758-337.771 0-7.792 33.775-49.367 75.346-88.337l75.35-72.75 566.412 93.533 569.013 96.137 226.041-241.637c179.28-194.867 215.655-244.233 181.88-259.821-25.984-10.392-301.396-49.367-615.78-85.742-314.387-36.375-574.208-72.75-579.404-77.945-5.196-5.196 5.196-51.967 20.784-106.53 51.966-153.296 41.575-397.525-23.384-545.625-64.954-145.5-228.641-324.779-379.337-413.116-124.717-75.35-345.567-111.725-506.654-88.342zm233.837 615.779c98.733 75.35 181.879 210.459 181.879 303.992 0 106.529-85.741 259.825-241.637 428.708l-122.117 135.109-85.742-67.555c-44.166-36.375-176.679-153.295-291-259.825l-207.858-194.866 155.896-161.088c246.829-252.029 439.1-311.787 610.579-184.475z"/><path d="m18592.1 20426.2c-116.921 75.35-220.85 142.9-228.642 153.296-10.395 10.391 187.071 350.758 439.096 758.679 483.271 779.466 558.621 919.77 561.217 1034.09 0 161.092-114.321 322.179-298.796 415.717-142.9 75.35-301.392 67.554-426.108-12.992-111.721-75.346-137.705-111.725-665.142-966.537-210.458-342.967-397.529-644.359-415.717-667.742-25.983-41.575-51.966-31.179-267.616 103.925-153.296 93.538-233.842 161.092-226.046 181.879 36.375 93.534 974.333 1582.32 1054.88 1678.45 192.267 218.25 501.454 324.779 808.046 278.009 366.35-59.759 776.867-355.955 924.966-670.342 59.759-129.908 70.155-184.471 70.155-384.533 0-210.459-10.396-249.43-83.146-389.734-103.929-202.662-992.521-1634.28-1015.9-1642.08-10.392-2.596-114.321 57.163-231.242 129.913z"/><path d="m15653.5 21883.8c-517.046 161.087-945.754 298.791-953.55 303.991-7.792 10.392 111.725 465.079 127.312 483.267 2.6 2.6 161.092-41.571 350.763-98.733 189.671-57.159 348.162-101.33 350.758-96.134 2.6 2.6 137.708 462.484 301.396 1021.1 161.087 556.021 301.391 1021.1 309.187 1031.5 12.992 15.592 514.446-122.117 543.029-145.5 2.596-5.196-129.912-465.083-293.6-1023.7-163.687-558.617-298.795-1026.3-298.795-1041.89 0-15.588 153.296-75.346 340.366-132.509 337.771-106.525 340.367-109.125 322.179-176.679-41.57-179.279-124.712-420.912-137.704-418.312-10.391 0-441.7 132.508-961.341 293.6z"/><path d="m10153.1 21977.3c-31.179 51.967-584.6 2608.62-566.412 2624.2 23.383 23.383 498.858 116.92 511.85 101.329 7.796-7.792 249.429-1070.47 249.429-1096.45 0-5.2 218.25 33.775 483.271 85.737 329.975 67.555 485.867 88.342 491.062 67.555 49.367-166.284 93.538-413.117 75.35-428.705-12.991-12.991-215.654-57.162-452.091-103.929-236.438-46.766-441.696-88.341-457.288-93.537-20.783-5.196-10.391-88.338 28.579-272.813 33.78-145.5 67.555-272.812 77.95-280.608 10.392-10.392 233.838 25.983 498.859 80.546 265.016 54.562 483.266 96.133 488.462 90.937 12.992-10.391 116.921-472.875 109.129-478.075-23.387-18.187-1530.35-309.187-1538.15-296.196z"/><path d="m13793.2 22281.3-127.312 10.396 12.992 927.563c7.795 563.816 2.599 961.341-12.992 1018.5-36.375 135.108-116.921 233.837-236.438 288.4-280.608 127.317-592.396-5.196-662.545-283.204-12.992-51.963-31.18-506.654-41.571-1005.51-10.396-501.454-20.788-911.975-25.984-917.171-2.6-2.6-132.508 0-283.208 10.392l-278.008 18.187 15.591 834.03c18.188 1021.1 28.58 1182.19 90.938 1345.88 194.867 517.046 909.375 722.304 1519.96 433.904 207.859-98.733 402.725-340.367 467.679-582.004 23.384-88.338 20.788-1834.34-2.595-2008.42l-15.592-109.125-148.1 5.196c-80.542 2.6-202.658 7.796-272.813 12.991z"/><path d="m9577.4 5637.47c-1690.16 796.313-3149.13 2322.85-3942.66 4110.43-149.959 337.029-149.959 340.333-96.848 446.067 28.117 59.476 87.475 237.903 134.338 403.113 46.862 161.906 131.213 459.284 187.448 657.536l106.221 360.158 824.772 578.236 821.649 581.539-253.055 267.64-249.932 264.337v495.63l3.125 495.63 271.8 561.714 271.8 561.715 609.207 122.255c334.283 69.388 640.448 132.168 681.062 142.081l68.731 16.521v1467.07 1463.76l265.552 687.274c143.71 379.983 281.173 710.403 306.166 733.533 40.613 42.954 706.055 307.29 774.786 307.29 15.621 0 28.117-284.161 28.117-710.403v-707.099l1124.69-905.351v-865.701l549.849-581.54 549.848-584.844 118.718-621.189c65.607-343.637 128.089-680.666 137.462-746.75l21.869-125.56-556.097-6.608-552.973-9.913-406.138-720.316-409.262-717.012h-968.483-968.483l-265.552-565.018c-146.834-310.595-278.048-571.627-293.669-581.54-12.496-9.912-206.193 171.819-428.007 406.417l-406.138 426.242 6.248-591.452 3.124-591.452-274.924-290.77-271.8-287.465 18.745-403.113c9.372-221.381 21.869-406.417 28.117-416.329 9.373-6.609 437.38-75.997 955.987-155.298l937.241-142.081 690.435-436.154 687.311-439.459 412.386-723.62 409.262-723.62 346.78-128.864c193.696-72.693 381.145-142.081 418.634-151.994 59.359-19.825 93.724-99.126 199.945-455.979 90.6-300.683 118.717-436.155 93.724-452.676-18.744-13.217-390.517-85.909-821.648-161.906l-790.407-142.081-349.904-244.511c-193.697-138.776-353.028-264.336-353.028-280.857 0-59.475-106.22-29.738-406.138 112.343z" fill-rule="nonzero"/><path d="m15888.2 6070.32-515.483 277.553-556.097 3.304h-552.972l-274.924 578.235c-228.063 485.718-265.552 584.844-224.938 611.277 24.993 16.521 212.441 89.214 412.386 161.906l365.524 128.864 537.352-142.081 540.476-145.384 462.373 145.384c453 145.385 1371.5 366.767 1652.67 403.113 137.462 16.521 156.207 9.913 521.731-247.815 206.194-148.689 387.394-284.161 396.766-307.291 49.986-85.909-715.428-799.617-1296.52-1209.34-365.524-257.727-843.517-538.585-909.124-538.585-24.993 0-274.924 128.864-559.221 280.858z" fill-rule="nonzero"/><path d="m13835.6 9133.32-409.262 439.459 137.462 1021c74.979 561.714 140.586 1024.3 143.71 1027.61 6.248 3.304 443.628 201.556 971.607 439.459l962.235 436.154 1099.7-290.77 415.51 294.074 418.635 294.074v578.236 578.235l546.724 1156.47 546.725 1156.47v601.365 604.669l365.524 386.592c203.069 214.773 378.021 389.895 390.517 389.895 40.614 0 490.49-799.617 665.442-1179.6 359.276-776.487 571.717-1496.8 724.8-2455.02 78.104-502.238 81.228-1975.91 0-2507.89-124.965-839.267-356.152-1625.67-702.931-2392.24-171.828-379.983-215.566-452.676-271.8-452.676-37.49 0-440.504 132.168-896.628 294.074l-824.773 290.77-718.552-125.56c-393.641-69.388-762.29-135.472-818.524-145.384-90.6-16.521-134.338-72.693-371.773-449.372l-268.676-426.242h-846.641-846.642l-412.386 436.155z" fill-rule="nonzero"/></g></svg>