<svg width="100%" height="100%" viewBox="0 0 5000 5000" version="1.1" xmlns="http://www.w3.org/2000/svg" xmlns:xlink="http://www.w3.org/1999/xlink" xml:space="preserve" xmlns:serif="http://www.serif.com/" style="fill-rule:evenodd;clip-rule:evenodd;stroke-linecap:round;stroke-linejoin:round;stroke-miterlimit:1.5;">

  <path d="M2930.94,47.761c1355.64,235.634 2264.94,1527.55 2029.31,2883.19c-235.634,1355.64 -1527.55,2264.94 -2883.19,2029.31c-1355.64,-235.633 -2264.94,-1527.55 -2029.31,-2883.19c235.633,-1355.64 1527.55,-2264.94 2883.19,-2029.31l0,0Z" style="fill:#1da64a;stroke:#5a9545;stroke-width:3.34px;"/>

  <g>
    <path d="M2706.23,218.106c-21.451,121.218 -79.316,493.355 -77.321,495.35c2.993,2.994 81.811,17.46 94.282,17.46c6.485,0 10.974,-18.457 24.443,-103.759c8.979,-56.867 17.959,-105.256 19.954,-107.251c1.995,-1.996 43.399,2.993 92.285,10.974c49.386,8.481 89.792,14.467 90.79,13.469c5.487,-4.988 15.464,-85.302 11.474,-87.797c-2.495,-1.496 -43.4,-8.979 -90.791,-16.96c-47.389,-7.482 -86.797,-14.466 -88.294,-15.464c-2.495,-2.494 13.468,-103.261 16.959,-106.752c1.498,-0.998 44.398,4.988 95.779,12.969c51.879,8.481 94.281,14.467 95.278,13.968c3.492,-2.993 15.963,-88.794 13.469,-91.288c-1.496,-1.496 -61.357,-12.471 -133.689,-23.944c-71.834,-11.973 -137.68,-22.948 -146.161,-24.445c-14.467,-2.492 -15.963,-1.495 -18.457,13.47l0,0.001l0,-0.001l0,0Z" style="fill:#fff;"/>

    <path d="M2091.65,223.593c-65.348,6.984 -121.219,42.403 -145.163,91.289c-11.474,23.944 -12.97,31.427 -10.975,63.353c2.992,43.898 15.464,69.838 46.892,97.274c27.435,24.444 56.369,35.917 126.706,50.882c88.295,18.457 109.746,32.425 113.736,74.328c1.995,22.447 0.997,26.439 -12.471,39.907c-40.408,39.907 -107.251,29.931 -162.124,-24.942c-13.469,-13.469 -25.94,-24.443 -27.936,-24.443c-1.995,0 -17.958,14.466 -35.916,32.425l-31.926,31.925l20.452,23.945c42.9,50.882 91.787,75.824 156.138,79.815c93.783,6.485 182.576,-42.402 202.531,-111.242c9.977,-35.419 7.483,-83.806 -6.984,-116.73c-12.47,-29.431 -53.875,-66.346 -87.796,-79.315c-14.466,-5.487 -51.88,-14.467 -83.307,-20.453c-81.312,-15.464 -106.253,-29.931 -106.253,-62.355c0,-29.432 31.427,-52.379 71.333,-52.379c27.437,0 41.904,6.486 67.844,30.429l21.949,20.453l35.418,-30.929c18.956,-17.459 34.919,-32.922 34.919,-34.918c-0.001,-10.975 -39.409,-46.392 -66.845,-59.862c-37.413,-18.457 -72.831,-23.944 -120.222,-18.457l0,0l0,0Z" style="fill:#fff;"/>
    <path d="M1781.37,303.41c-27.935,11.972 -51.881,22.447 -53.376,23.944c-1.497,0.998 -6.984,52.378 -13.469,114.235c-5.987,61.856 -11.474,113.238 -11.973,113.736c-0.997,0.998 -40.905,-30.928 -88.794,-70.836c-47.889,-39.907 -88.794,-72.831 -91.288,-72.831c-5.986,0 -103.759,40.407 -108.249,44.896c-2.494,1.995 58.365,51.381 135.186,109.745l139.676,105.257l40.905,99.768c22.947,54.873 42.402,98.771 44.398,98.273c1.995,-0.999 24.942,-10.476 51.38,-20.952l48.388,-19.455l-7.483,-17.958c-3.991,-9.977 -22.448,-54.874 -40.905,-99.769l-33.922,-81.811l23.945,-165.116c25.442,-176.591 25.94,-182.577 20.453,-182.577c-2.494,0.499 -26.938,9.978 -54.872,21.451l0,0l0,0Z" style="fill:#fff;"/>
    <path d="M3223.52,354.289c-75.824,16.462 -142.171,68.841 -176.591,139.177c-43.4,87.299 -45.395,165.617 -6.484,247.426c51.879,108.248 189.56,174.594 311.776,149.153c65.348,-13.468 136.184,-65.847 171.104,-126.207c83.805,-143.666 36.415,-310.28 -107.75,-381.614c-67.344,-32.925 -127.704,-41.904 -192.054,-27.937l0,0.001l-0.002,0l0.001,0.001Zm140.174,116.73c61.359,30.43 90.79,80.314 86.3,147.159c-6.984,106.253 -94.281,184.072 -186.567,167.112c-54.872,-9.977 -96.277,-39.907 -120.72,-86.799c-10.975,-20.951 -12.971,-31.427 -13.469,-67.343c0,-36.417 1.995,-46.891 13.968,-72.334c25.441,-53.874 53.375,-81.81 99.767,-98.271c37.414,-13.469 79.815,-9.478 120.72,10.475l0.001,0.001Z" style="fill:#fff;"/>
    <path d="M1156.32,594.734c0.499,13.968 98.771,590.629 101.265,593.121c3.991,4.49 98.272,-62.354 98.272,-69.838c0,-3.492 -4.489,-30.429 -9.977,-60.359c-5.487,-29.931 -9.976,-55.87 -9.976,-57.866c0,-2.993 116.23,-88.295 137.68,-100.766c2.993,-1.496 28.933,10.476 57.367,27.436c28.435,16.462 54.374,30.43 57.367,30.43c2.495,0 26.937,-14.965 53.376,-33.922l48.887,-34.42l-13.967,-8.48c-25.941,-15.464 -515.303,-288.829 -517.801,-288.829c-1.496,0 -2.493,1.496 -2.493,3.492l0.001,0l-0.001,0.001Zm194.548,210.014c28.933,17.459 52.877,32.424 53.376,32.924c0.998,0.498 -20.452,16.461 -46.392,34.918c-26.438,18.457 -49.385,32.425 -50.882,30.929c-1.995,-2.494 -30.429,-129.699 -30.928,-139.177c0,-4.989 9.977,0.498 74.826,40.405l0,0.001l0,0Z" style="fill:#fff;"/>
    <path d="M3624.09,791.275c-137.181,167.611 -162.621,201.034 -156.136,205.525c3.991,3.492 22.946,18.956 42.401,35.417c19.954,15.963 36.416,28.434 36.914,27.437c27.437,-36.914 115.732,-139.178 120.222,-139.178c3.492,0 11.473,5.488 17.958,12.471l11.473,12.472l-11.973,109.745l-12.47,110.245l48.887,39.906c27.436,22.449 49.884,39.908 50.882,38.911c0.498,-0.998 5.487,-54.873 9.977,-119.224c4.988,-64.351 9.477,-117.726 10.475,-118.724c0.998,-0.997 14.467,0.498 29.931,3.492c52.378,9.478 98.272,-4.989 137.181,-44.397c35.418,-34.919 47.39,-63.853 47.39,-114.734c0,-72.333 -19.953,-100.267 -143.666,-202.531c-37.913,-31.427 -70.837,-56.868 -72.334,-56.868c-1.994,0.498 -77.319,90.291 -167.112,200.037l0,-0.001l0,0l0,-0.001Zm230.467,-26.937c44.397,39.908 54.374,67.843 37.413,104.757c-17.958,37.413 -62.854,51.38 -100.767,31.925c-21.449,-11.472 -66.345,-47.888 -65.846,-53.874c0.498,-7.483 86.299,-111.242 91.786,-111.242c2.994,0 19.954,12.97 37.414,28.434l0,0Z" style="fill:#fff;"/>
    <path d="M862.002,955.893c-34.919,6.485 -99.768,41.403 -127.205,67.843c-13.968,12.969 -52.877,57.366 -86.798,97.772c-52.379,62.356 -60.859,74.827 -54.874,80.314c3.992,3.492 90.292,75.825 191.557,160.128c101.763,84.804 188.064,157.136 192.553,160.628c7.482,5.986 15.963,-1.995 76.323,-74.327c91.787,-110.245 117.727,-163.123 117.727,-238.945c0,-67.344 -27.935,-127.704 -83.806,-179.584c-67.343,-62.854 -146.659,-89.293 -225.476,-73.829l0.001,0l-0.002,-0.001l0,0.001Zm97.774,120.72c34.919,17.459 71.832,52.379 89.292,84.304c12.472,22.448 14.967,31.926 14.967,61.358c-0.5,42.9 -14.467,74.327 -54.874,123.712l-28.433,33.423l-31.428,-25.94c-17.459,-14.466 -71.833,-60.36 -121.219,-101.265c-49.884,-41.404 -90.29,-77.321 -90.29,-80.313c-0.499,-3.492 17.958,-24.943 40.905,-48.388c31.427,-32.425 47.39,-44.397 68.341,-52.877c35.916,-13.968 77.82,-11.973 112.738,5.986l0,0l0.001,0Z" style="fill:#fff;"/>
    <path d="M473.905,1400.37c-6.983,8.979 -46.891,89.292 -44.896,91.288c4.49,3.991 459.434,236.95 460.433,235.951c0.997,-0.998 12.97,-22.946 26.938,-48.887l24.942,-47.888l-228.971,-118.226c-126.207,-64.85 -229.967,-118.225 -230.966,-118.225c-1.496,0 -4.489,2.992 -7.483,5.985l0.002,0.001l0.001,0l0,0.001Z" style="fill:#fff;"/>
    <path d="M421.526,1714.13c-45.394,7.483 -89.792,43.4 -115.731,94.282c-12.471,24.942 -70.337,213.004 -66.346,216.998c2.993,3.492 482.881,147.158 490.365,147.158c5.487,0 32.424,-80.312 32.424,-96.276c0,-4.49 -27.935,-15.465 -85.801,-32.425c-46.891,-14.467 -86.799,-26.937 -87.797,-28.434c-1.496,-0.998 0.998,-10.975 4.49,-20.952l7.483,-18.956l103.261,-29.93c56.867,-16.961 105.256,-32.425 107.75,-34.92c4.49,-4.988 35.417,-106.253 35.417,-116.23c0,-2.993 -49.884,11.474 -110.743,31.927c-60.859,20.452 -112.239,36.913 -114.234,36.913c-1.996,0 -4.989,-8.48 -6.984,-18.955c-4.989,-27.935 -24.444,-66.347 -42.901,-84.804c-35.418,-35.917 -97.274,-54.373 -150.651,-45.395l0.001,0l0,-0.001l-0.003,0Zm52.378,115.234c10.476,2.992 25.941,13.468 33.921,22.447c20.454,22.948 21.451,49.885 4.492,106.752l-9.978,32.925l-69.838,-20.952c-38.411,-11.973 -70.836,-22.447 -71.834,-23.446c-4.489,-3.99 18.957,-71.833 30.43,-88.295c12.471,-18.458 37.413,-34.919 53.874,-35.417c4.99,0 17.959,2.493 28.933,5.985l0,0.001Z" style="fill:#fff;"/>
    <path d="M211.513,2208c-3.492,11.971 -18.956,289.329 -16.461,292.322c2.494,1.995 513.307,36.414 515.303,34.419c0.499,0 2.494,-24.442 4.489,-53.376l3.492,-52.378l-109.247,-6.485c-59.861,-3.492 -109.247,-6.984 -109.745,-7.483c-0.998,-0.998 0.997,-41.903 4.489,-91.787c2.993,-49.884 4.49,-91.787 2.993,-93.283c-1.496,-1.497 -21.948,-3.991 -44.895,-5.987l-42.402,-2.993l-2.993,44.397c-1.995,24.444 -4.988,66.347 -6.485,93.783l-3.492,49.385l-54.373,-2.494c-29.931,-1.497 -55.373,-3.492 -55.872,-4.49c-0.997,-0.997 0.998,-44.896 4.49,-96.774c3.492,-52.379 5.488,-95.779 4.49,-96.776c-0.998,-0.999 -21.949,-2.993 -46.393,-4.491c-35.916,-1.995 -45.394,-0.997 -47.389,4.491l-0.001,0l0.002,0Z" style="fill:#fff;"/>
    <path d="M4064.56,3355.83c-44.895,77.818 -82.309,142.668 -83.306,144.165c-1.498,3.491 446.962,256.406 449.456,253.412c1.996,-1.995 154.641,-263.887 163.121,-279.85c3.492,-6.984 -1.996,-11.972 -32.424,-28.434c-19.954,-11.474 -38.91,-20.452 -41.903,-20.452c-2.993,0 -28.933,41.403 -58.365,92.285c-29.432,50.882 -55.372,93.284 -57.866,94.781c-5.487,3.991 -114.235,-56.868 -114.235,-63.852c0,-2.495 22.448,-43.4 49.885,-90.79c27.436,-47.39 49.884,-87.298 49.884,-88.793c0,-2.994 -68.84,-43.4 -74.827,-43.4c-1.995,0 -26.938,39.907 -54.872,88.295c-28.435,48.887 -51.88,89.293 -52.378,90.29c-1.995,1.996 -14.467,-4.489 -58.364,-29.93l-33.424,-18.956l54.873,-94.78c29.931,-51.88 54.374,-96.277 54.374,-99.27c0,-4.489 -50.383,-35.418 -70.337,-42.9c-5.986,-2.494 -25.94,28.434 -89.292,138.18l0,-0.001l0,0l0,0Z" style="fill:#fff;"/>
    <path d="M3929.88,3629.69c-29.931,4.489 -55.87,15.963 -84.803,36.915c-22.947,16.96 -157.136,158.632 -157.136,166.114c0,4.988 371.638,345.2 376.626,345.2c2.495,0 19.954,-17.459 39.409,-39.408l35.418,-39.409l-67.345,-60.858c-36.913,-33.921 -67.343,-62.854 -67.343,-64.85c0,-1.497 6.484,-9.478 14.466,-16.96l14.467,-13.968l108.747,17.958l109.248,18.458l43.398,-46.393c34.42,-37.413 41.404,-46.891 34.92,-49.884c-4.989,-1.995 -57.867,-9.479 -118.226,-16.462c-60.361,-6.984 -110.244,-13.968 -111.242,-14.965c-0.997,-0.998 0.998,-9.977 3.99,-20.453c9.978,-29.432 7.983,-76.323 -4.489,-104.757c-12.471,-27.935 -43.898,-62.356 -72.831,-79.315c-23.945,-14.467 -66.347,-21.451 -97.274,-16.962l-0.001,-0.001l0.001,0l0,0Zm44.895,118.225c18.956,14.467 34.92,40.408 34.92,58.366c0,20.452 -16.462,49.884 -46.393,82.308l-23.446,25.941l-16.462,-12.97c-8.48,-6.984 -33.921,-29.432 -55.87,-49.885l-39.907,-37.414l29.93,-30.927c47.391,-48.388 84.305,-59.862 117.228,-35.419l0,0Z" style="fill:#fff;"/>
    <path d="M3567.22,3920.03c-22.449,14.466 -42.402,27.435 -43.898,29.431c-1.996,1.995 35.916,67.344 84.303,145.662c92.786,149.652 107.253,176.59 107.751,198.54c0,30.929 -21.949,61.856 -57.367,79.815c-27.436,14.467 -57.866,12.97 -81.81,-2.494c-21.45,-14.466 -26.439,-21.451 -127.703,-185.569c-40.407,-65.848 -76.324,-123.713 -79.815,-128.203c-4.989,-7.982 -9.977,-5.986 -51.381,19.953c-29.432,17.959 -44.896,30.929 -43.399,34.92c6.983,17.958 187.066,303.796 202.531,322.252c36.914,41.903 96.276,62.356 155.139,53.376c70.337,-11.473 149.154,-68.341 177.588,-128.701c11.473,-24.941 13.469,-35.417 13.469,-73.828c0,-40.407 -1.996,-47.889 -15.963,-74.827c-19.954,-38.91 -190.558,-313.772 -195.047,-315.269c-1.995,-0.499 -21.949,10.974 -44.398,24.942l-0.001,0.001l0,-0.001l0.001,0Z" style="fill:#fff;"/>
    <path d="M3003.03,4199.88c-99.269,30.928 -181.579,57.366 -183.076,58.365c-1.496,1.995 21.451,89.292 24.444,92.784c0.499,0.499 30.928,-7.981 67.345,-18.956c36.415,-10.974 66.844,-19.455 67.342,-18.457c0.499,0.499 26.44,88.794 57.867,196.045c30.927,106.752 57.865,196.046 59.361,198.043c2.495,2.993 98.771,-23.446 104.259,-27.936c0.498,-0.998 -24.943,-89.292 -56.37,-196.543c-31.427,-107.251 -57.367,-197.044 -57.367,-200.037c0,-2.993 29.432,-14.466 65.349,-25.441c64.85,-20.452 65.348,-20.951 61.856,-33.921c-7.981,-34.42 -23.944,-80.813 -26.439,-80.314c-1.995,0 -84.804,25.441 -184.572,56.37l0,-0.002l0.001,0Z" style="fill:#fff;"/>
    <path d="M1947,4217.82c-5.986,9.978 -112.239,500.839 -108.747,503.829c4.489,4.49 95.777,22.448 98.272,19.454c1.496,-1.496 47.889,-205.522 47.889,-210.51c0,-0.999 41.903,6.484 92.785,16.46c63.353,12.97 93.284,16.961 94.28,12.97c9.479,-31.925 17.959,-79.315 14.467,-82.308c-2.494,-2.494 -41.404,-10.974 -86.798,-19.954c-45.395,-8.979 -84.803,-16.961 -87.797,-17.959c-3.99,-0.997 -1.995,-16.959 5.487,-52.378c6.486,-27.934 12.97,-52.378 14.966,-53.874c1.995,-1.996 44.895,4.988 95.777,15.464c50.882,10.476 92.785,18.457 93.783,17.459c2.494,-1.995 22.447,-90.789 20.951,-91.787c-4.49,-3.492 -293.818,-59.362 -295.315,-56.868l0,0.001l0,-0.001l0,0.002Z" style="fill:#fff;"/>
    <path d="M2645.86,4276.18l-24.443,1.996l2.494,178.086c1.497,108.249 0.499,184.572 -2.494,195.546c-6.984,25.941 -22.448,44.896 -45.394,55.371c-53.875,24.445 -113.737,-0.997 -127.206,-54.373c-2.494,-9.976 -5.986,-97.274 -7.981,-193.052c-1.996,-96.277 -3.991,-175.093 -4.989,-176.091c-0.499,-0.499 -25.44,0 -54.374,1.995l-53.376,3.491l2.994,160.129c3.492,196.046 5.487,226.973 17.459,258.401c37.413,99.27 174.595,138.678 291.823,83.307c39.908,-18.956 77.321,-65.348 89.792,-111.741c4.49,-16.96 3.991,-352.183 -0.498,-385.603l-2.994,-20.952l-28.434,0.997c-15.463,0.5 -38.909,1.497 -52.379,2.495l0,-0.001l0,0l0,-0.001Z" style="fill:#fff;"/>
  </g>
  <g>
    <path d="M1019.98,2596.61l39.999,-3.333c0,0 44.996,-2.354 39.999,63.332c-4.996,65.687 18.197,46.692 30,49.999c11.803,3.308 42.073,-19.697 46.666,-43.332c4.593,-23.635 2.682,-38.757 19.999,-29.999c17.318,8.756 28.376,44.08 36.667,73.331c8.29,29.251 30.643,136.734 56.665,149.997c26.022,13.264 178.734,11.69 199.997,36.667c21.263,24.975 132.436,138.774 149.997,146.664c17.561,7.889 49.787,6.635 56.665,29.999c6.879,23.364 -27.72,87.642 -9.999,109.998c17.721,22.355 93.323,233.392 169.997,243.328c89.985,11.66 89.508,101.93 113.331,136.664c26.048,37.979 3.334,339.993 3.334,339.993c0,0 40.851,36.271 126.664,46.666c27.475,3.329 45.483,-121.027 83.483,-136.066c54.854,-21.708 92.042,-13.378 121.438,-82.979c17.89,-42.36 2.382,-94.028 26.43,-137.138c17.608,-31.566 106.118,-48.925 130.938,-76.293c36.035,-39.732 32.778,-88.745 45.02,-131.404c15.578,-54.286 29.501,-100.237 36.089,-126.892c14.95,-60.501 -26.665,-113.557 -190.855,-126.767c-74.569,-5.999 -85.157,-91.25 -150.734,-136.637c-78.416,-54.273 -278.646,-147.42 -322.706,-103.008c-33.952,34.224 -102.285,63.193 -129.132,37.981c-33.924,-31.858 -69.448,-20.085 -85.198,-36.94c-18.345,-19.631 -51.579,-234.47 -138.745,-132.313c-44.761,52.458 -101.3,-41.042 -73.115,-125.336c5.077,-15.187 172.972,64.04 250.434,2.082c54.894,-43.907 16.486,-220.861 73.005,-286.353c34.731,-40.243 177.425,-119.656 223.507,-142.314c118.4,-58.218 34.57,-121.911 91.767,-135.663c90.343,-21.72 279.462,-52.729 -57.004,-296.183c-141.596,-102.455 -187.068,-0.549 -200.167,61.769c-24.696,117.478 -424.854,149.502 -81.142,-195.568c109.73,-110.164 -86.103,-46.199 -237.826,38.682c-68.845,38.514 -167.955,9.939 -251.373,7.642c-25.187,-0.694 -37.792,34.155 -68.947,75.899c-138.318,185.324 -242.419,776.47 -175.144,833.825l0,-0.003l-0.002,0.003l-0.002,0Z" style="fill:#fff;"/>
    <path d="M2613.28,1006.64c-7.095,-45.494 -690.814,52.921 -686.653,119.997c0,0 -55.099,203.841 129.998,96.666c203.403,-117.776 37.409,350.042 146.664,409.992c92.322,50.658 142.562,92.385 153.33,-13.333c10.073,-98.896 192.669,-137.267 294.075,-242.793c51.282,-53.363 -20.836,-110.827 23.944,-183.279c45.86,-74.2 -52.154,-128.24 -61.357,-187.25l0,-0.001l-0.001,0.001Z" style="fill:#fff;"/>
    <path d="M2629.95,1473.31c0,0 -48.324,75.192 40.338,89.811c13.057,2.153 24.199,35.129 42.994,36.854c139.03,12.756 124.821,-134.69 76.665,-159.997c-39.911,-20.974 -38.164,43.173 -54.979,42.446c-49.874,-2.156 -103.083,-38.551 -105.018,-9.113l0,-0.001Z" style="fill:#fff;"/>
    <path d="M2946.33,1698.43c38.829,141.542 -49.96,63.34 -67.255,105.328c-22.861,34.317 37.55,102.759 40.866,62.866c71.879,-74.245 34.127,118.202 146.663,-33.332c45.962,-61.891 -148.176,-236.569 -120.274,-134.862l0,0Z" style="fill:#fff;"/>
    <path d="M3309.94,1236.64c0,0 -286.266,481.914 -117.139,385.802c80.181,-45.568 -31.076,193.242 103.184,42.315c43.113,-72.471 95.945,-31.797 27.766,22.697c-68.441,34.792 43.46,113.858 -67.308,96.244c-78.721,-12.517 -302.297,199.23 -214.859,234.533c75.548,30.503 57.249,94.007 -41.637,91.726c-73.518,-12.874 -108.948,231.331 99.998,83.332c64.517,-45.698 84.096,-102.165 121.949,-109.898c74.569,-15.233 63.914,133.638 148.381,144.47c68.479,-15.332 38.8,-177.547 176.328,-37.905c0,0 284.082,120.607 -6.666,133.331c-224.511,9.826 -251.126,-42.367 -251.126,-42.367c-96.887,-100.037 -346.152,36.187 -375.53,172.365c0,0 -250.837,604.258 163.33,513.321c216.413,-47.516 245.395,-50.226 278.731,127.179c49.448,263.162 -7.964,272.599 -38.735,326.147c-45.33,78.884 42.455,286.074 46.667,316.659c187.878,-142.53 328.433,-317.047 446.658,-506.658c66.042,-115.457 87.8,-193.258 109.998,-253.33l46.666,-173.33c20.89,-72.096 23.03,-110.413 23.333,-113.331c60.608,-583.496 -154.486,-1072.48 -679.99,-1453.31l0,0.002l0,0.001l0.001,0.003Z" style="fill:#fff;"/>
    <path d="M1309.97,1589.97c0,0 109.934,126.02 203.33,-29.999c93.396,-156.02 57.721,92.294 219.995,-46.666c119.158,-102.04 174.708,7.304 159.997,20c-42.985,37.095 140.876,318.589 119.997,-96.666c-8.054,-160.185 -37.409,39.359 -149.996,-273.328c-19.673,-54.634 -314.22,184.119 -273.328,156.664c-1.655,6.073 -39.257,127.069 -116.665,93.332c-75.022,54.426 -126.133,114.036 -163.33,176.662l0,0.001l0,0Z" style="fill:#fff;"/>
  </g>
</svg>
