<?xml version="1.0" encoding="UTF-8" standalone="no"?><!DOCTYPE svg PUBLIC "-//W3C//DTD SVG 1.1//EN" "http://www.w3.org/Graphics/SVG/1.1/DTD/svg11.dtd"><svg width="100%" height="100%" viewBox="0 0 6250 6250" version="1.1" xmlns="http://www.w3.org/2000/svg" xmlns:xlink="http://www.w3.org/1999/xlink" xml:space="preserve" xmlns:serif="http://www.serif.com/" style="fill-rule:evenodd;clip-rule:evenodd;stroke-linecap:round;stroke-linejoin:round;stroke-miterlimit:1.5;"><g><path d="M3663.75,59.703c1694.58,294.546 2831.23,1909.47 2536.69,3604.05c-294.546,1694.58 -1909.47,2831.24 -3604.05,2536.69c-1694.58,-294.546 -2831.24,-1909.47 -2536.69,-3604.05c294.546,-1694.58 1909.47,-2831.24 3604.05,-2536.69Z" style="fill:#1da64a;stroke:#5a9545;stroke-width:4.17px;"/><g><g><path d="M3385.82,274.747c-26.814,151.528 -99.148,616.714 -96.654,619.208c3.741,3.742 102.266,21.825 117.855,21.825c8.107,0 13.719,-23.072 30.555,-129.703c11.225,-71.087 22.449,-131.574 24.943,-134.068c2.494,-2.495 54.251,3.741 115.361,13.718c61.734,10.601 112.243,18.084 113.491,16.837c6.859,-6.236 19.33,-106.631 14.342,-109.749c-3.118,-1.871 -54.251,-11.224 -113.491,-21.202c-59.239,-9.353 -108.501,-18.083 -110.372,-19.33c-3.118,-3.118 16.836,-129.08 21.201,-133.445c1.871,-1.247 55.498,6.236 119.726,16.213c64.852,10.601 117.856,18.084 119.103,17.46c4.365,-3.741 19.954,-110.996 16.836,-114.114c-1.87,-1.871 -76.699,-15.589 -167.117,-29.931c-89.795,-14.966 -172.106,-28.685 -182.707,-30.556c-18.084,-3.117 -19.954,-1.87 -23.072,16.837Z" style="fill:#fff;"/><path d="M2617.58,281.606c-81.688,8.73 -151.528,53.004 -181.459,114.114c-14.343,29.932 -16.213,39.285 -13.719,79.194c3.741,54.874 19.331,87.3 58.616,121.597c34.296,30.555 70.464,44.897 158.388,63.604c110.372,23.072 137.186,40.532 142.174,92.913c2.494,28.06 1.247,33.049 -15.589,49.885c-50.51,49.886 -134.068,37.415 -202.661,-31.178c-16.837,-16.837 -32.426,-30.555 -34.921,-30.555c-2.494,0 -22.448,18.083 -44.897,40.532l-39.908,39.909l25.566,29.931c53.627,63.605 114.737,94.783 195.178,99.772c117.232,8.106 228.228,-53.004 253.171,-139.057c12.472,-44.274 9.354,-104.76 -8.73,-145.916c-15.589,-36.791 -67.346,-82.935 -109.749,-99.148c-18.083,-6.859 -64.851,-18.084 -104.136,-25.567c-101.643,-19.33 -132.822,-37.414 -132.822,-77.946c0,-36.791 39.286,-65.476 89.171,-65.476c34.297,0 52.381,8.107 84.806,38.038l27.438,25.567l44.273,-38.662c23.696,-21.825 43.65,-41.155 43.65,-43.65c0,-13.718 -49.262,-57.992 -83.558,-74.829c-46.768,-23.072 -91.042,-29.931 -150.282,-23.072Z" style="fill:#fff;"/><path d="M2229.72,381.378c-34.92,14.966 -64.852,28.061 -66.722,29.932c-1.871,1.247 -8.73,65.475 -16.837,142.798c-7.483,77.323 -14.342,141.551 -14.966,142.174c-1.247,1.248 -51.133,-38.661 -110.996,-88.547c-59.863,-49.886 -110.996,-91.042 -114.114,-91.042c-7.482,0 -129.703,50.51 -135.315,56.122c-3.118,2.494 72.958,64.228 168.988,137.186l174.601,131.574l51.133,124.715c28.684,68.593 53.004,123.467 55.498,122.844c2.494,-1.248 31.179,-13.095 64.228,-26.19l60.487,-24.32l-9.354,-22.448c-4.989,-12.472 -28.061,-68.594 -51.133,-124.715l-42.403,-102.266l29.931,-206.403c31.803,-220.745 32.426,-228.228 25.567,-228.228c-3.118,0.624 -33.673,12.472 -68.593,26.814Z" style="fill:#fff;"/><path d="M4032.47,444.982c-94.783,20.578 -177.718,86.054 -220.745,173.977c-54.251,109.126 -56.745,207.027 -8.106,309.293c64.851,135.315 236.958,218.25 389.733,186.448c81.688,-16.836 170.235,-82.312 213.886,-157.764c104.76,-179.589 45.52,-387.862 -134.692,-477.033c-84.183,-41.156 -159.635,-52.381 -240.076,-34.921Zm175.224,145.917c76.7,38.038 113.491,100.395 107.878,183.954c-8.73,132.821 -117.855,230.098 -233.216,208.897c-68.593,-12.472 -120.35,-49.886 -150.905,-108.502c-13.718,-26.19 -16.213,-39.285 -16.836,-84.182c0,-45.521 2.494,-58.616 17.46,-90.419c31.802,-67.345 66.722,-102.266 124.714,-122.843c46.768,-16.837 99.772,-11.848 150.905,13.095Z" style="fill:#fff;"/><path d="M1448.38,745.545c0.623,17.46 123.467,738.31 126.585,741.428c4.989,5.612 122.844,-77.946 122.844,-87.3c0,-4.365 -5.612,-38.038 -12.472,-75.452c-6.859,-37.415 -12.471,-69.84 -12.471,-72.335c0,-3.741 145.293,-110.372 172.106,-125.962c3.742,-1.87 36.167,13.095 71.711,34.297c35.544,20.578 67.97,38.038 71.711,38.038c3.118,0 33.673,-18.707 66.722,-42.403l61.111,-43.027l-17.46,-10.6c-32.426,-19.331 -644.152,-361.049 -647.27,-361.049c-1.87,0 -3.117,1.87 -3.117,4.365Zm243.193,262.524c36.167,21.825 66.099,40.532 66.723,41.156c1.247,0.623 -25.567,20.578 -57.993,43.65c-33.049,23.072 -61.734,40.532 -63.604,38.662c-2.495,-3.118 -38.038,-162.129 -38.662,-173.977c0,-6.236 12.472,0.623 93.536,50.509Z" style="fill:#fff;"/><path d="M4533.2,991.233c-171.482,209.52 -203.284,251.3 -195.178,256.912c4.989,4.365 28.684,23.696 53.004,44.273c24.943,19.955 45.521,35.544 46.144,34.297c34.297,-46.144 144.669,-173.977 150.281,-173.977c4.365,0 14.342,6.859 22.449,15.589l14.342,15.59l-14.966,137.186l-15.589,137.81l61.11,49.885c34.297,28.061 62.358,49.886 63.605,48.639c0.623,-1.247 6.859,-68.593 12.471,-149.034c6.236,-80.441 11.848,-147.163 13.095,-148.41c1.247,-1.247 18.084,0.623 37.415,4.365c65.475,11.848 122.843,-6.236 171.482,-55.498c44.274,-43.65 59.24,-79.818 59.24,-143.422c0,-90.418 -24.943,-125.338 -179.589,-253.171c-47.392,-39.285 -88.548,-71.087 -90.419,-71.087c-2.494,0.623 -96.653,112.867 -208.897,250.053Zm288.091,-33.673c55.498,49.886 67.97,84.806 46.768,130.95c-22.448,46.768 -78.57,64.228 -125.962,39.909c-26.813,-14.342 -82.935,-59.863 -82.311,-67.346c0.623,-9.354 107.878,-139.057 114.737,-139.057c3.742,0 24.943,16.213 46.768,35.544Z" style="fill:#fff;"/><path d="M1080.47,1197.01c-43.65,8.106 -124.714,51.756 -159.011,84.806c-17.46,16.213 -66.099,71.711 -108.501,122.22c-65.476,77.947 -76.076,93.536 -68.594,100.395c4.989,4.365 112.867,94.784 239.453,200.167c127.209,106.008 235.087,196.426 240.699,200.791c9.353,7.483 19.954,-2.494 95.407,-92.912c114.737,-137.81 147.163,-203.909 147.163,-298.692c0,-84.182 -34.92,-159.635 -104.76,-224.486c-84.183,-78.571 -183.331,-111.62 -281.856,-92.289Zm122.221,150.905c43.65,21.825 89.794,65.475 111.619,105.383c15.59,28.061 18.708,39.909 18.708,76.7c-0.624,53.627 -18.084,92.912 -68.593,154.646l-35.544,41.779l-39.285,-32.425c-21.825,-18.084 -89.795,-75.453 -151.529,-126.586c-62.357,-51.756 -112.866,-96.654 -112.866,-100.395c-0.624,-4.365 22.448,-31.179 51.133,-60.487c39.285,-40.532 59.239,-55.498 85.429,-66.098c44.897,-17.46 97.278,-14.966 140.928,7.483Z" style="fill:#fff;"/><path d="M595.333,1752.62c-8.73,11.224 -58.615,111.619 -56.121,114.113c5.612,4.989 574.311,296.198 575.558,294.951c1.247,-1.248 16.213,-28.685 33.673,-61.111l31.179,-59.863l-286.221,-147.786c-157.764,-81.065 -287.467,-147.787 -288.714,-147.787c-1.871,0 -5.612,3.741 -9.354,7.483Z" style="fill:#fff;"/><path d="M529.858,2144.84c-56.745,9.354 -112.243,54.251 -144.669,117.855c-15.589,31.179 -87.924,266.266 -82.935,271.255c3.741,4.365 603.619,183.954 612.973,183.954c6.859,0 40.532,-100.395 40.532,-120.35c0,-5.612 -34.92,-19.331 -107.255,-40.532c-58.616,-18.084 -108.502,-33.673 -109.749,-35.544c-1.87,-1.247 1.247,-13.718 5.612,-26.19l9.354,-23.696l129.08,-37.414c71.087,-21.201 131.574,-40.532 134.692,-43.65c5.612,-6.236 44.273,-132.821 44.273,-145.293c0,-3.741 -62.357,14.343 -138.433,39.909c-76.076,25.567 -140.304,46.144 -142.798,46.144c-2.495,0 -6.236,-10.6 -8.73,-23.695c-6.236,-34.92 -30.555,-82.936 -53.628,-106.008c-44.273,-44.897 -121.596,-67.969 -188.319,-56.745Zm65.475,144.046c13.095,3.741 32.426,16.836 42.403,28.06c25.567,28.685 26.814,62.358 5.613,133.445l-12.472,41.156l-87.3,-26.19c-48.015,-14.966 -88.548,-28.061 -89.795,-29.308c-5.612,-4.989 23.696,-89.795 38.038,-110.373c15.59,-23.072 46.768,-43.65 67.346,-44.273c6.236,0 22.449,3.117 36.167,7.483Z" style="fill:#fff;"/><path d="M267.334,2762.18c-4.365,14.965 -23.696,361.672 -20.578,365.414c3.118,2.494 641.657,45.52 644.151,43.026c0.624,0 3.118,-30.555 5.612,-66.722l4.365,-65.475l-136.562,-8.107c-74.829,-4.365 -136.563,-8.73 -137.186,-9.354c-1.247,-1.247 1.247,-52.38 5.612,-114.737c3.741,-62.357 5.612,-114.737 3.741,-116.608c-1.87,-1.871 -27.437,-4.989 -56.121,-7.483l-53.004,-3.742l-3.741,55.499c-2.495,30.555 -6.236,82.935 -8.107,117.231l-4.365,61.734l-67.969,-3.118c-37.415,-1.871 -69.217,-4.365 -69.841,-5.612c-1.247,-1.247 1.248,-56.122 5.613,-120.973c4.365,-65.475 6.859,-119.726 5.612,-120.973c-1.247,-1.248 -27.438,-3.742 -57.993,-5.613c-44.897,-2.494 -56.745,-1.247 -59.239,5.613Z" style="fill:#fff;"/><path d="M5083.81,4197.02c-56.122,97.277 -102.89,178.342 -104.137,180.212c-1.871,4.365 558.721,320.517 561.839,316.775c2.495,-2.494 193.308,-329.87 203.909,-349.824c4.365,-8.73 -2.495,-14.966 -40.532,-35.544c-24.943,-14.342 -48.639,-25.566 -52.381,-25.566c-3.741,0 -36.167,51.756 -72.958,115.361c-36.791,63.604 -69.216,116.608 -72.334,118.479c-6.86,4.988 -142.798,-71.088 -142.798,-79.818c0,-3.118 28.06,-54.251 62.357,-113.49c34.296,-59.239 62.357,-109.125 62.357,-110.996c0,-3.742 -86.053,-54.251 -93.536,-54.251c-2.494,0 -33.673,49.886 -68.593,110.373c-35.544,61.11 -64.851,111.619 -65.475,112.866c-2.494,2.495 -18.084,-5.612 -72.958,-37.414l-41.78,-23.696l68.594,-118.479c37.414,-64.851 67.969,-120.349 67.969,-124.091c0,-5.612 -62.981,-44.274 -87.924,-53.627c-7.483,-3.118 -32.426,35.543 -111.619,172.73Z" style="fill:#fff;"/><path d="M4915.45,4539.36c-37.415,5.612 -69.84,19.955 -106.008,46.145c-28.684,21.201 -196.425,198.296 -196.425,207.65c0,6.235 464.562,431.512 470.798,431.512c3.117,0 24.943,-21.825 49.262,-49.262l44.274,-49.262l-84.183,-76.076c-46.144,-42.403 -84.182,-78.57 -84.182,-81.065c0,-1.87 8.106,-11.848 18.083,-21.201l18.084,-17.46l135.939,22.448l136.563,23.073l54.25,-57.993c43.027,-46.768 51.757,-58.616 43.651,-62.357c-6.236,-2.494 -72.335,-11.848 -147.787,-20.578c-75.453,-8.73 -137.81,-17.46 -139.057,-18.707c-1.247,-1.247 1.247,-12.472 4.988,-25.567c12.472,-36.791 9.978,-95.406 -5.612,-130.95c-15.589,-34.92 -54.874,-77.947 -91.041,-99.148c-29.932,-18.084 -82.936,-26.814 -121.597,-21.202Zm56.121,147.787c23.696,18.084 43.651,50.51 43.651,72.958c0,25.567 -20.578,62.358 -57.993,102.89l-29.308,32.426l-20.578,-16.213c-10.6,-8.73 -42.403,-36.791 -69.84,-62.358l-49.886,-46.768l37.415,-38.661c59.239,-60.487 105.384,-74.829 146.539,-44.274Z" style="fill:#fff;"/><path d="M4462.11,4902.28c-28.061,18.084 -53.004,34.296 -54.874,36.791c-2.495,2.494 44.897,84.182 105.383,182.083c115.985,187.072 134.069,220.745 134.692,248.182c0,38.662 -27.437,77.323 -71.711,99.772c-34.296,18.084 -72.334,16.213 -102.266,-3.118c-26.813,-18.083 -33.049,-26.814 -159.634,-231.969c-50.51,-82.312 -95.407,-154.646 -99.772,-160.258c-6.236,-9.978 -12.472,-7.483 -64.228,24.942c-36.791,22.449 -56.122,38.662 -54.251,43.651c8.73,22.448 233.84,379.756 253.171,402.828c46.144,52.38 120.349,77.947 193.931,66.722c87.924,-14.342 186.448,-85.429 221.992,-160.882c14.342,-31.178 16.837,-44.273 16.837,-92.288c0,-50.51 -2.495,-59.863 -19.955,-93.536c-24.943,-48.639 -238.205,-392.228 -243.817,-394.099c-2.494,-0.623 -27.437,13.719 -55.498,31.179Z" style="fill:#fff;"/><path d="M3756.85,5252.11c-124.091,38.661 -226.981,71.71 -228.852,72.958c-1.87,2.494 26.814,111.619 30.555,115.984c0.624,0.624 38.662,-9.977 84.183,-23.696c45.521,-13.718 83.559,-24.319 84.182,-23.072c0.624,0.624 33.05,110.996 72.335,245.064c38.661,133.445 72.334,245.065 74.205,247.559c3.118,3.742 123.467,-29.308 130.327,-34.92c0.623,-1.247 -31.179,-111.62 -70.464,-245.688c-39.285,-134.068 -71.711,-246.311 -71.711,-250.053c0,-3.741 36.791,-18.083 81.688,-31.802c81.065,-25.566 81.688,-26.19 77.323,-42.403c-9.977,-43.027 -29.931,-101.019 -33.049,-100.395c-2.494,0 -106.008,31.802 -230.722,70.464Z" style="fill:#fff;"/><path d="M2436.74,5274.56c-7.483,12.472 -140.304,626.068 -135.939,629.809c5.612,5.612 119.726,28.061 122.844,24.319c1.871,-1.87 59.863,-256.912 59.863,-263.147c0,-1.248 52.38,8.106 115.985,20.577c79.194,16.213 116.608,21.202 117.855,16.213c11.848,-39.908 22.449,-99.148 18.084,-102.889c-3.118,-3.118 -51.757,-13.719 -108.502,-24.943c-56.745,-11.224 -106.007,-21.202 -109.749,-22.449c-4.988,-1.247 -2.494,-21.201 6.859,-65.475c8.107,-34.92 16.213,-65.475 18.708,-67.346c2.494,-2.494 56.121,6.236 119.726,19.331c63.604,13.095 115.984,23.072 117.231,21.825c3.118,-2.494 28.061,-113.49 26.191,-114.738c-5.613,-4.365 -367.285,-74.205 -369.156,-71.087Z" style="fill:#fff;"/><path d="M3310.37,5347.52l-30.555,2.495l3.118,222.615c1.871,135.316 0.624,230.722 -3.118,244.441c-8.73,32.426 -28.061,56.121 -56.745,69.216c-67.346,30.556 -142.175,-1.247 -159.011,-67.969c-3.118,-12.471 -7.483,-121.597 -9.977,-241.323c-2.495,-120.349 -4.989,-218.874 -6.236,-220.121c-0.624,-0.624 -31.802,0 -67.97,2.494l-66.722,4.365l3.742,200.167c4.365,245.064 6.859,283.726 21.825,323.011c46.768,124.091 218.25,173.353 364.79,104.137c49.886,-23.696 96.654,-81.688 112.243,-139.681c5.612,-21.201 4.989,-440.242 -0.623,-482.022l-3.742,-26.19l-35.544,1.247c-19.33,0.624 -48.638,1.871 -65.475,3.118Z" style="fill:#fff;"/></g><g><path d="M3026.69,1258.28c-89.167,6.667 -159.584,15.417 -184.584,22.083c-16.25,4.584 -34.583,8.334 -40.416,8.334c-17.5,0 -134.584,30 -129.167,33.333c2.5,1.667 -6.25,4.167 -19.583,5.833c-33.75,3.75 -92.084,18.75 -110.834,28.334c-9.166,4.583 -17.083,7.083 -18.333,5.833c-2.5,-2.083 -59.167,17.5 -66.25,22.917c-2.5,2.083 -5.833,2.5 -7.083,1.25c-1.25,-1.25 -14.584,1.666 -29.167,6.25c-15,5 -29.167,8.75 -32.083,7.916c-2.917,-0.833 -6.25,1.25 -7.5,4.584c-1.25,4.166 0,5 5,3.333c3.75,-1.667 6.666,-0.833 6.666,1.25c0,2.083 -3.75,5 -8.333,6.25c-4.583,1.25 -8.333,4.167 -8.333,6.25c0,2.083 2.5,2.917 5.416,1.667c4.584,-1.667 8.75,11.666 17.5,53.333c18.334,88.75 21.667,99.167 39.584,116.667c13.333,13.75 18.333,15.833 34.166,15.833c20,0 52.917,-17.5 62.5,-33.333c9.167,-14.584 31.25,-25.834 59.584,-29.167c37.083,-4.583 42.083,-2.5 45.416,17.5c2.917,19.167 15.834,32.917 45.417,50c22.083,12.917 24.167,20.417 11.25,42.083c-4.583,7.5 -9.167,22.084 -10.417,32.5c-3.333,25.417 4.167,38.334 25,42.917c9.167,2.083 17.5,4.583 18.334,5.417c1.25,0.833 -2.917,6.666 -8.75,12.916c-25.834,27.5 -27.084,46.667 -3.334,60c9.167,5.417 16.667,11.667 16.667,14.167c0,4.167 -11.667,27.5 -39.167,78.75c-6.666,12.917 -8.75,23.75 -8.75,47.917c0.417,37.5 10.834,61.25 44.167,97.5c28.333,30.833 88.333,75.833 112.083,83.75c31.25,10 62.917,12.083 80,5c29.167,-12.5 55.417,-67.5 61.667,-130.834c5.833,-59.166 9.583,-70.416 25.417,-73.75c7.083,-1.25 19.583,-2.5 27.5,-2.5c17.083,0 41.25,-9.583 55,-22.083c12.916,-12.083 25.416,-39.167 25.416,-56.25c0,-9.583 3.334,-17.083 11.667,-24.583c22.5,-21.25 105.833,-52.5 155.417,-57.917c34.166,-3.75 46.666,-10 55.833,-29.167c9.583,-20.416 6.25,-45.416 -7.917,-59.583c-10,-9.583 -14.583,-10.833 -57.5,-13.333c-50.833,-2.5 -59.583,-5 -65.833,-16.667c-10.417,-19.167 -5.417,-22.5 39.167,-28.75c30.833,-4.583 67.083,-20 81.25,-35c12.5,-13.333 29.583,-71.25 32.5,-109.583c2.083,-29.167 1.25,-36.25 -6.667,-52.5c-9.167,-18.75 -16.667,-23.75 -54.167,-34.584c-4.166,-1.25 -5,-7.5 -2.916,-27.916c7.5,-72.084 7.5,-75.417 -0.834,-88.75c-7.5,-11.667 -11.25,-13.334 -34.166,-15.417c-25.834,-2.917 -201.667,-2.917 -237.5,0Z" style="fill:#fff;fill-rule:nonzero;"/><path d="M2343.36,1437.86c-3.333,1.667 -14.583,7.917 -25,14.167c-10.416,6.25 -35,15.833 -55,21.667c-39.583,11.25 -56.666,19.166 -77.083,34.166c-7.083,5.417 -17.917,11.667 -23.75,14.167c-16.667,6.25 -92.083,56.25 -124.167,82.5c-16.25,12.917 -37.083,29.583 -46.666,36.667c-9.584,7.083 -19.584,15.833 -22.917,19.583c-5,6.25 -4.583,7.083 1.25,7.083c4.583,0 6.667,3.75 6.667,11.25c0,14.167 17.5,43.75 31.25,52.917c6.25,4.167 18.75,10 27.916,13.333c9.167,2.917 22.084,10.417 29.167,16.25c7.083,5.834 17.5,10.417 24.583,10.417c26.667,0 61.25,-27.083 77.084,-60.417c10.833,-22.916 24.583,-27.916 65.416,-24.583c54.167,4.167 66.667,-3.75 77.5,-50.417c3.75,-16.25 8.75,-24.583 24.167,-39.166c28.333,-25.834 38.75,-41.667 38.75,-57.5c0,-12.5 -18.333,-83.75 -22.917,-87.917c-0.833,-1.25 0,-5.417 2.5,-9.583c4.167,-8.334 2.084,-9.167 -8.75,-4.584Z" style="fill:#fff;fill-rule:nonzero;"/><path d="M4113.36,1530.36l13.334,8.334l-33.75,32.083c-47.084,45 -60.417,75.417 -64.584,144.583c-1.25,22.084 -4.583,42.084 -8.75,50c-14.166,27.917 -56.25,86.25 -72.5,101.25c-26.666,24.167 -56.666,66.25 -66.666,92.5c-6.667,17.5 -8.334,30 -7.084,50.417c2.084,31.667 11.25,53.333 33.334,76.25c15,15.833 16.25,16.25 37.916,14.583c12.917,-1.25 32.917,-6.666 46.25,-13.333c13.334,-6.667 25,-10.417 26.667,-9.167c1.25,1.667 2.083,17.917 1.667,37.084c-0.417,27.5 0.833,36.666 7.5,47.5c13.333,22.083 44.166,25.416 77.083,8.75c21.25,-11.25 28.333,-22.5 30.417,-47.5c1.666,-22.5 2.5,-23.334 23.75,-37.5c25,-16.667 35.416,-35 38.333,-68.75c2.917,-28.334 -4.167,-43.334 -27.917,-62.084c-9.166,-7.083 -16.666,-15 -16.666,-17.083c0,-1.667 5.416,-6.25 11.666,-9.583c15,-7.5 21.667,-22.5 21.667,-47.5c0,-42.5 19.583,-88.334 37.917,-88.334c9.166,0 1.25,51.667 -17.5,113.334c-7.084,22.916 -7.5,30.416 -3.75,44.583c5.416,20.833 26.25,45.417 44.583,52.917c30,12.916 74.583,3.333 97.083,-20.417c14.167,-15.417 20.834,-14.167 20.834,2.917c0,15.833 -8.334,23.75 -39.167,37.916c-20,9.584 -31.667,27.917 -31.667,50c0,22.084 -5.416,27.084 -29.583,27.084c-40,0 -52.917,15 -47.917,56.25c2.917,25.833 -1.666,41.25 -14.166,47.916c-5,2.5 -41.25,9.584 -80.417,15.417c-55.833,7.917 -80.417,10 -111.25,7.917c-50.833,-3.334 -60,1.666 -79.167,42.083c-28.333,59.583 -57.083,91.667 -127.5,141.667c-23.333,16.666 -47.083,35.833 -53.333,42.916c-21.25,25.417 -10.417,54.167 29.167,77.5c20.416,12.084 30.833,27.917 30.833,47.084c0,15.416 -1.667,15.833 -64.583,18.333c-79.584,3.333 -81.25,5.833 -81.25,112.083c0.416,83.75 0.833,86.667 25.416,96.25c21.667,9.167 158.334,-0.833 173.75,-12.5c22.5,-16.666 27.084,-27.916 30,-69.166c2.5,-37.917 3.334,-40 18.334,-57.5c22.083,-25.834 80.416,-73.75 95.833,-78.334c7.083,-2.083 20.833,-5 30.417,-6.25c16.25,-2.5 17.916,-1.666 25.833,11.667c12.083,19.167 34.583,39.167 66.25,58.333c35,21.25 36.25,27.5 13.75,70.834c-9.583,18.75 -17.083,38.333 -17.083,44.166c0,15.834 15.416,37.5 31.25,44.167c12.916,5.417 16.25,5 30,-0.417c25.416,-10.833 33.333,-20.833 36.666,-46.25c2.5,-22.5 3.334,-23.333 27.084,-37.916c27.916,-17.917 37.5,-31.25 37.5,-55c0,-21.667 -13.75,-37.5 -59.584,-70c-60.833,-42.5 -95.416,-81.25 -82.916,-93.75c5.416,-5.417 20.833,5.833 41.666,30.416c7.917,9.584 35.417,31.667 61.25,50c27.5,19.167 48.75,37.5 52.084,44.167c2.916,6.667 5.833,29.583 7.083,51.25c0.833,23.75 4.167,44.583 7.917,52.5c13.75,27.917 51.666,35.833 72.5,15c10.416,-10.417 12.083,-15.833 14.583,-49.167c1.25,-20.416 2.917,-40 3.333,-43.333c0.417,-3.333 5.834,-6.667 12.084,-7.5c17.5,-2.083 21.666,10.417 18.75,59.167c-3.334,65.416 8.333,77.083 71.25,71.25c17.083,-1.667 55,-2.917 83.75,-2.5c62.916,0 64.583,1.25 61.666,40c-1.25,18.333 -5.833,32.916 -17.5,54.166c-8.333,15.834 -17.5,30.417 -20,32.084c-7.916,5 -145.833,3.75 -161.666,-1.25c-7.917,-2.917 -19.584,-10 -26.667,-16.25c-14.583,-13.334 -38.333,-18.75 -66.667,-14.167c-27.916,4.167 -42.083,17.5 -47.916,45.417c-2.5,12.5 -6.25,23.75 -8.334,25c-4.583,2.916 -46.666,-6.25 -52.916,-11.25c-2.917,-2.5 -5.417,-9.584 -5.417,-16.25c0,-15 -7.5,-31.667 -16.25,-35.417c-3.75,-1.25 -24.583,-3.333 -46.25,-4.583c-21.667,-0.834 -43.75,-2.5 -48.333,-3.334c-10.834,-2.5 -22.5,-21.25 -32.917,-51.666c-10.417,-32.084 -15,-33.334 -116.667,-30.834c-77.916,1.667 -106.25,5.417 -106.25,14.167c0,7.917 -23.333,17.917 -59.166,25c-57.917,12.083 -94.167,31.25 -122.5,65.417c-30.834,36.666 -40,57.916 -42.084,96.666c-2.5,42.084 -6.666,50.834 -27.916,61.667c-10,4.583 -25.834,17.5 -35,28.75c-9.584,10.833 -25.834,30.417 -36.25,42.917c-40,47.5 -43.75,60.833 -47.917,168.75c-5.833,149.166 3.333,217.5 36.667,263.333c120.833,169.167 124.166,172.083 205,171.667c74.583,0 105.416,-4.584 128.333,-20c33.75,-21.667 83.333,-46.25 94.583,-46.25c5.834,0 15.834,2.5 22.084,5.833c6.25,3.333 31.666,12.5 56.666,20.833c25.417,8.334 49.167,18.334 53.334,22.084c16.25,15 20.833,44.166 15.416,106.666c-5.833,70.834 -3.333,83.334 22.917,105c10,8.334 21.25,22.084 24.583,30.417c10.834,27.083 20.834,89.167 21.25,132.083l0.417,41.667l-23.75,47.917c-52.5,105.416 -57.917,150.416 -32.917,268.75c4.584,20.416 10.417,55.416 12.917,77.083c4.167,36.25 29.583,147.5 34.583,152.917c1.25,1.25 6.667,-0.834 12.084,-4.584c5,-3.75 12.083,-6.666 15,-6.666c2.916,0 22.916,-11.667 43.75,-25.834c26.666,-17.916 65.833,-53.333 127.5,-113.75c121.666,-119.583 206.25,-216.666 239.583,-274.166c6.25,-10.834 22.5,-30.417 36.25,-43.334c13.333,-12.916 25.833,-27.5 27.083,-32.083c1.667,-5 7.5,-14.167 12.917,-20.833c5.417,-6.667 9.167,-14.167 7.917,-17.084c-0.834,-2.916 5.416,-13.75 14.166,-24.583c9.167,-10.833 22.084,-29.583 29.167,-42.083c7.083,-12.084 17.083,-25 22.5,-28.334c13.333,-8.75 16.25,-32.083 8.333,-60.416c-11.25,-38.334 -7.083,-71.667 15.417,-117.917c22.083,-45.417 35.833,-62.917 61.667,-79.583c22.916,-14.167 26.25,-14.584 21.25,-1.25c-2.084,5.833 -2.5,10.416 -0.834,10.416c4.167,0 55.417,-157.916 71.667,-220.833c6.667,-26.25 14.167,-54.583 16.667,-62.5c9.583,-32.917 9.166,-33.333 -35.417,-33.333c-73.333,0 -87.083,-11.667 -115.417,-95.834c-5.833,-17.083 -17.5,-47.083 -25.833,-66.666c-8.75,-19.584 -18.75,-42.917 -22.5,-51.667c-3.75,-9.167 -15,-30.417 -24.583,-47.5c-9.584,-16.667 -19.584,-37.5 -22.5,-45.833c-2.5,-8.334 -15,-29.584 -27.5,-46.667c-32.5,-45.417 -49.167,-79.167 -45.417,-92.917c2.083,-9.583 5,-11.25 17.083,-11.25c12.084,0 19.167,4.167 43.334,27.917c37.083,36.25 45.416,54.167 52.916,118.333c6.667,58.75 11.25,70 31.25,80c12.5,5.834 17.5,12.917 30.834,41.667c8.333,18.75 22.083,48.333 30,65.417c24.583,54.166 41.25,65 90,60.833c16.666,-1.667 32.916,-4.583 35.833,-6.25c2.917,-2.083 7.917,-13.75 10.833,-25.833c2.917,-12.5 9.167,-36.667 13.75,-53.75c19.584,-73.75 20.834,-256.25 2.917,-410.834c-37.083,-321.666 -167.917,-648.333 -362.5,-907.5c-59.167,-78.75 -101.25,-127.083 -172.5,-198.75c-74.583,-74.166 -137.083,-127.916 -224.167,-192.5c-38.333,-28.333 -54.583,-42.5 -52.916,-46.666c1.666,-4.167 0,-6.25 -5.834,-6.25c-5,0 -24.166,-9.167 -43.333,-20.834c-19.167,-11.25 -36.25,-20.833 -38.75,-20.833c-2.083,0 2.083,3.75 9.583,8.333Zm538.334,939.584c4.583,8.75 4.583,14.166 0,33.75c-8.75,36.666 -0.417,46.25 55.833,61.666c6.667,1.667 7.083,3.334 2.917,8.334c-8.334,9.583 -31.667,15 -47.084,10.416c-7.5,-2.083 -22.083,-10.416 -32.083,-18.333c-23.75,-19.167 -40.833,-19.583 -59.167,-1.667c-10.833,10.834 -15.416,12.5 -26.25,10.417c-17.916,-3.75 -22.083,-9.167 -13.75,-18.333c10,-10.834 8.75,-23.334 -3.333,-34.584c-5.417,-5.416 -10.417,-12.083 -10.417,-14.166c0,-6.667 37.5,-16.667 56.667,-15c18.75,1.25 32.917,-4.584 53.75,-22.084c15.417,-12.916 16.25,-12.916 22.917,-0.416Z" style="fill:#fff;fill-rule:nonzero;"/><path d="M2343.78,1681.2c-7.5,2.083 -28.75,15.416 -46.667,29.166c-32.5,25 -32.5,25 -52.5,22.084c-30,-5 -34.583,-3.334 -60.416,22.083c-12.917,13.333 -32.084,31.667 -42.917,41.667c-11.25,10.416 -23.75,27.916 -30,41.25c-13.75,29.583 -10.417,43.75 14.583,61.25c15.417,10.833 21.667,12.5 54.584,14.166c44.583,2.084 62.5,-4.583 97.083,-36.666c25,-23.334 32.917,-26.25 44.167,-18.334c6.25,4.167 8.75,11.667 10,32.5c1.666,29.584 10.416,43.334 32.5,52.5c6.666,2.917 12.916,7.917 14.166,11.25c5,12.084 -5.833,17.917 -33.333,17.917c-35.833,0 -50.417,12.5 -67.917,58.75c-20.416,53.75 -16.666,67.917 19.584,72.5c31.25,4.167 52.083,13.333 64.583,29.167c10.833,13.333 23.75,19.583 23.75,10.833c0,-2.083 5.833,-4.583 12.5,-5.417c12.5,-2.083 19.167,2.084 31.25,19.584c5.417,7.916 6.667,7.916 17.5,2.083c14.583,-8.333 29.167,-34.167 32.917,-58.333c1.666,-10.417 7.083,-27.5 12.5,-38.334c5.416,-10.833 10,-24.166 10,-29.166c0,-5.417 1.25,-13.75 2.5,-19.167c2.5,-7.917 4.583,-9.167 16.25,-6.667c37.916,7.084 71.25,-35 62.916,-79.166c-1.666,-7.917 -9.166,-22.084 -17.083,-32.084c-18.333,-23.333 -31.25,-56.666 -31.25,-82.083c0,-11.25 -2.5,-23.333 -5.417,-27.5c-8.333,-11.25 -37.5,-15.833 -65,-10.417c-42.916,8.75 -40,10.417 -40.416,-29.583c-0.417,-19.583 -2.917,-40 -5.417,-45.417c-9.167,-16.666 -49.583,-27.916 -75,-20.416Z" style="fill:#fff;fill-rule:nonzero;"/><path d="M1810.86,1789.95c-39.166,37.5 -132.083,141.25 -162.083,180.416l-25.833,33.75l11.666,11.25c6.25,5.834 15,10.834 20,10.834c4.584,0 22.084,11.25 38.334,25c36.666,30.833 54.166,36.666 90.416,30.416c37.917,-6.666 65,-24.583 76.25,-51.25c5,-11.25 8.75,-23.75 8.75,-28.333c0,-10 6.667,-15.833 21.667,-19.583c39.167,-10 38.75,-70.834 -1.667,-132.084c-15.416,-24.166 -21.666,-37.5 -23.333,-52.083c-2.083,-22.5 -5.833,-28.333 -18.333,-31.667c-6.667,-2.083 -15,3.75 -35.834,23.334Z" style="fill:#fff;fill-rule:nonzero;"/><path d="M1945.44,1787.45c-29.167,22.5 -39.584,39.583 -39.584,64.166c0,16.667 2.084,22.917 13.334,35.417c7.5,8.333 19.583,17.917 27.083,21.25c10,4.167 13.75,8.333 13.75,15.417c0,12.083 17.083,33.75 33.75,42.083c14.167,7.5 37.083,7.917 51.25,1.25c5.833,-2.5 14.583,-12.917 19.583,-22.917c8.334,-17.083 8.334,-21.25 5,-80.416c-3.333,-54.584 -5,-63.334 -12.083,-68.75c-10.833,-8.334 -45,-18.75 -70.417,-21.25c-19.166,-2.084 -22.5,-0.834 -41.666,13.75Z" style="fill:#fff;fill-rule:nonzero;"/><path d="M3470.44,1784.11c-4.584,1.667 -12.917,11.667 -19.167,21.667c-8.75,15.417 -13.333,18.75 -27.083,21.25c-19.167,3.333 -62.917,-2.5 -88.334,-11.25c-23.333,-8.333 -43.333,-4.583 -58.75,10.833c-12.5,12.084 -13.333,15.834 -21.666,73.75c-4.584,32.5 -4.167,35.834 3.333,45.834c4.583,6.25 22.917,18.75 40.417,27.916c17.5,9.167 40.416,24.584 50.833,34.584c24.583,23.333 37.917,28.333 56.25,20.416c22.5,-9.166 40,-26.666 53.75,-52.5c7.5,-13.75 25.833,-36.25 43.333,-53.333c31.25,-30 44.167,-50.833 44.167,-70.417c0,-33.333 -50.833,-78.75 -77.083,-68.75Z" style="fill:#fff;fill-rule:nonzero;"/><path d="M2153.78,1965.78c-20.417,7.5 -49.583,15 -64.583,16.667c-57.5,5.833 -67.917,11.666 -97.5,50.416c-26.667,35.417 -38.75,43.334 -67.084,43.334c-29.583,0 -45,6.666 -70,30.416c-20,19.584 -39.583,27.917 -65.416,27.917c-26.25,0 -180.834,-28.333 -195,-35.417c-7.5,-3.75 -14.167,-6.25 -15,-5.833c-0.417,0.833 -15,-5.417 -17.5,1.667c-3.334,10.416 -17.917,26.25 -52.084,84.583c-138.75,235.833 -219.583,478.75 -252.083,759.167c-7.917,67.5 -10.833,269.166 -4.167,307.5l3.75,22.5l17.084,-2.5c46.25,-6.25 65.833,-7.5 75.833,-5c15.833,4.166 26.25,32.083 30.417,79.166c3.75,44.584 16.25,75.417 40.416,98.75c16.25,15.834 37.5,18.334 50.834,6.667c17.5,-15.833 23.333,-75.417 10.833,-107.083c-8.333,-20.834 -5.417,-30 9.583,-28.334c7.5,0.834 13.75,5.834 19.167,14.584c7.5,13.333 22.917,72.916 34.167,134.583c10,55.417 38.333,117.5 61.666,135c28.75,22.083 84.167,28.333 195,21.667c59.584,-3.75 61.25,-3.334 83.334,6.666c28.333,13.334 59.583,41.25 93.333,84.167c32.5,41.25 58.75,67.083 74.167,72.917c6.666,2.5 24.583,4.583 40,4.583c31.666,0 45.416,7.083 56.666,29.167c11.25,21.666 7.917,44.166 -13.333,89.166c-16.25,34.584 -19.583,46.25 -20,65.417c0,24.583 4.583,33.75 39.583,80.833c8.334,11.25 22.5,33.75 31.25,50c25.417,46.667 67.084,107.5 93.75,136.25c30,32.917 85.417,80 117.5,100.834c15.417,9.583 27.084,20.833 32.084,30.833c12.083,23.75 28.333,78.75 33.75,115.417c10.833,68.75 3.333,397.916 -9.167,397.916c-2.083,0 -2.5,2.084 -0.833,5c2.083,3.334 0.833,3.75 -4.167,2.084c-3.75,-1.667 -6.25,-1.25 -5,0.833c4.167,6.667 65.833,30.417 81.25,31.25c8.333,0.833 28.333,5.417 44.167,10.417c16.25,5 40.833,10.416 55,11.666l25.833,2.084l12.5,-26.667c7.917,-16.667 18.75,-31.667 29.167,-40c12.916,-10.417 17.083,-17.5 21.25,-35c5.833,-25.417 12.916,-32.5 32.083,-32.5c7.917,0 20,-2.5 27.5,-5.833c25.833,-10.834 34.583,-30 27.083,-58.75c-5,-18.334 -2.916,-32.917 5.834,-45c5,-6.667 6.25,-6.667 23.333,1.666c23.75,12.084 43.75,8.334 55.417,-10c7.5,-11.666 7.916,-17.5 5.833,-49.166l-2.5,-36.25l17.917,-5.834c25,-8.333 33.75,-25 35,-64.583c0.833,-42.083 9.166,-51.25 57.5,-62.5c31.666,-7.083 59.166,-25 86.25,-55c35.833,-39.583 45.416,-67.917 45.416,-133.75c0,-20.417 2.084,-42.083 4.584,-48.75c2.083,-6.25 15,-22.917 28.333,-36.667c27.5,-28.75 27.917,-30 31.667,-100.416c2.083,-40.417 1.666,-53.334 -3.75,-65.834c-13.75,-32.5 -36.667,-52.5 -75.417,-65c-13.75,-4.583 -48.75,-16.666 -77.917,-26.666c-41.25,-14.584 -67.5,-20.834 -114.583,-27.5c-34.167,-4.584 -68.75,-11.667 -77.5,-15.417c-16.25,-7.083 -17.083,-8.75 -21.667,-42.917c-6.25,-49.166 -25.416,-76.666 -66.666,-97.083c-18.334,-9.167 -77.917,-26.667 -123.75,-35.833c-23.75,-5 -35,-14.584 -37.917,-31.25c-3.333,-20 -17.5,-39.584 -33.75,-46.25c-7.083,-2.917 -40.833,-6.667 -74.583,-8.334l-61.667,-3.333l-15,-15.833c-15.833,-16.667 -34.583,-23.334 -52.917,-18.75c-5.416,1.25 -22.5,15 -38.333,30c-32.5,31.666 -82.083,72.5 -87.917,72.5c-2.083,0 -9.583,-8.334 -17.083,-18.75c-20.417,-29.167 -34.583,-35.834 -69.583,-33.334c-15.834,1.667 -31.667,0.834 -34.167,-1.25c-3.333,-2.083 -6.25,-17.5 -7.917,-36.666c-2.916,-40 -11.25,-68.334 -23.75,-80c-5,-4.584 -18.333,-10.834 -30,-13.75c-37.083,-8.75 -40.833,-10.834 -37.916,-23.75c7.916,-32.084 7.5,-49.584 -0.834,-65.834c-12.083,-23.333 -20,-28.75 -41.25,-27.916c-43.333,1.666 -67.5,17.5 -102.916,66.666c-15.834,22.5 -25.834,28.75 -40,24.167c-12.917,-4.167 -16.667,-27.917 -16.667,-112.917c0,-74.166 0.417,-80.416 8.75,-90.833c12.5,-15.833 45.833,-24.167 96.667,-23.75c104.166,0.833 142.083,13.75 175.416,60.417c3.75,5.833 10.417,8.333 20.417,8.333c28.333,0 40.417,-22.083 40.417,-74.583c0,-30.834 19.583,-121.667 31.25,-143.75c3.333,-6.667 17.083,-24.167 30.416,-38.334c13.334,-14.583 25.417,-29.583 27.084,-33.75c2.083,-5.833 -5.417,-75.416 -10.417,-99.166c-0.833,-2.5 12.083,-8.75 27.917,-14.167c35,-10.833 49.166,-17.917 87.916,-44.167c42.5,-28.75 55.834,-45.833 69.167,-90.416l11.25,-37.084l26.25,-2.916c14.583,-1.667 37.5,-7.5 51.25,-12.917c13.75,-5.417 35.417,-12.5 48.333,-16.25c27.5,-7.5 56.667,-27.917 60,-41.25c3.75,-14.167 -4.583,-31.667 -17.5,-36.667c-6.666,-2.5 -25.416,-5.833 -42.5,-7.916c-32.5,-3.75 -37.916,-7.084 -37.916,-25.417c0,-6.25 -5.834,-22.083 -12.5,-35c-7.084,-13.333 -12.084,-25 -11.25,-25.833c4.166,-3.75 55.833,-10 89.583,-10.417c43.75,-0.417 52.917,3.333 63.333,27.917c9.584,22.083 21.667,30.833 48.75,34.166c41.667,4.584 72.084,-16.666 72.084,-50.416c0,-22.084 -20.417,-57.5 -52.084,-90c-17.916,-18.334 -21.25,-24.584 -18.75,-31.25c5,-12.084 5,-53.75 0,-67.084c-2.5,-6.25 -11.666,-20 -20.416,-30.416c-8.75,-10.417 -23.334,-30.834 -32.917,-45c-25.833,-37.917 -58.333,-75.834 -72.917,-85c-16.25,-9.584 -38.333,-10 -65.833,-1.25c-26.667,8.75 -39.167,5.416 -60,-17.084c-13.333,-14.583 -17.917,-17.5 -23.75,-14.166c-9.583,5.416 -27.917,0.416 -33.75,-9.167c-6.25,-10 -18.75,-10 -54.167,0c-30,8.333 -45,19.167 -56.25,40c-10.416,20.417 -13.333,37.917 -17.5,120.417c-2.5,43.333 -5.833,80.833 -7.5,83.75c-1.666,2.916 -11.25,11.666 -21.666,19.583c-24.584,18.333 -30,30.833 -33.75,76.25c-3.75,42.083 -10,60.417 -20.417,60.417c-10.417,0 -23.75,-33.75 -30.833,-78.75c-3.334,-20.834 -10,-45.834 -14.167,-55.834c-14.167,-32.083 -47.083,-48.75 -102.917,-52.5l-37.5,-2.5l-1.25,-14.583c-3.75,-39.167 21.25,-103.75 48.75,-124.583c33.334,-25.417 50.834,-44.584 62.917,-68.334c6.667,-13.75 12.5,-28.333 12.5,-32.5c0,-3.75 5,-12.5 11.667,-19.583c9.583,-10.417 15.833,-12.5 40.416,-15.417c16.25,-1.666 34.584,-5.833 40.834,-9.583c18.333,-10.833 37.916,-54.583 39.583,-88.75c1.667,-25.833 0.833,-29.167 -8.75,-38.75c-14.583,-14.583 -33.333,-13.75 -80,3.75Z" style="fill:#fff;fill-rule:nonzero;"/><path d="M3666.28,2063.7c-40,24.583 -47.917,33.333 -47.917,53.75c0,21.25 7.917,30.416 39.584,45.416c19.583,9.584 28.333,16.25 31.666,24.584c5,13.333 -2.916,20.833 -12.916,12.083c-13.75,-11.667 -22.084,-11.25 -52.917,4.167c-42.917,21.25 -44.583,24.583 -46.25,93.333c-1.25,61.25 1.667,73.333 20,82.083c17.083,7.917 32.917,1.667 61.25,-25l27.083,-25.416l-0.833,16.666c-1.25,26.25 -0.417,30.417 8.333,39.167c17.917,17.917 62.5,8.333 106.25,-22.917c34.584,-24.583 51.25,-45 54.584,-67.083c3.75,-26.25 -0.834,-40 -27.917,-80.833c-13.333,-20.417 -35.417,-59.167 -48.333,-86.25c-26.667,-53.75 -51.25,-84.584 -68.334,-84.584c-5.416,0.417 -25,9.584 -43.333,20.834Z" style="fill:#fff;fill-rule:nonzero;"/></g></g></g></svg>