<?xml version="1.0" encoding="UTF-8" standalone="no"?><!DOCTYPE svg PUBLIC "-//W3C//DTD SVG 1.1//EN" "http://www.w3.org/Graphics/SVG/1.1/DTD/svg11.dtd"><svg width="100%" height="100%" viewBox="0 0 26042 26042" version="1.1" xmlns="http://www.w3.org/2000/svg" xmlns:xlink="http://www.w3.org/1999/xlink" xml:space="preserve" xmlns:serif="http://www.serif.com/" style="fill-rule:evenodd;clip-rule:evenodd;stroke-linejoin:round;stroke-miterlimit:2;"><g><path d="M14095.2,1135.99c-111.725,631.358 -413.112,2569.61 -402.72,2580c15.587,15.591 426.104,90.937 491.058,90.937c33.779,0 57.158,-96.133 127.308,-540.421c46.771,-296.191 93.538,-548.221 103.929,-558.612c10.392,-10.396 226.042,15.587 480.663,57.158c257.225,44.171 467.675,75.35 472.875,70.154c28.579,-25.983 80.541,-444.291 59.758,-457.283c-12.992,-7.796 -226.042,-46.767 -472.875,-88.338c-246.825,-38.97 -452.079,-75.345 -459.875,-80.541c-12.992,-12.992 70.146,-537.83 88.333,-556.013c7.8,-5.196 231.242,25.979 498.855,67.55c270.212,44.171 491.058,75.35 496.254,72.75c18.187,-15.587 83.141,-462.475 70.15,-475.467c-7.792,-7.795 -319.575,-64.954 -696.313,-124.712c-374.141,-62.358 -717.096,-119.521 -761.266,-127.317c-75.35,-12.983 -83.142,-7.791 -96.134,70.154l0,0.005Z" style="fill:#fff;"/><path d="M10894.2,1164.57c-340.362,36.375 -631.358,220.85 -756.071,475.471c-59.762,124.712 -67.554,163.683 -57.162,329.971c15.587,228.637 80.546,363.745 244.233,506.645c142.896,127.313 293.596,187.071 659.942,265.013c459.875,96.133 571.6,168.883 592.383,387.133c10.392,116.917 5.196,137.704 -64.954,207.854c-210.458,207.855 -558.608,155.892 -844.408,-129.908c-70.155,-70.154 -135.109,-127.312 -145.505,-127.312c-10.391,0 -93.533,75.345 -187.066,168.883l-166.284,166.283l106.525,124.713c223.442,265.016 478.063,394.925 813.23,415.712c488.462,33.775 950.937,-220.85 1054.87,-579.396c51.967,-184.475 38.975,-436.495 -36.375,-607.979c-64.95,-153.291 -280.604,-345.558 -457.279,-413.108c-75.346,-28.579 -270.212,-75.35 -433.896,-106.529c-423.508,-80.542 -553.416,-155.892 -553.416,-324.771c0,-153.296 163.687,-272.813 371.537,-272.813c142.904,0 218.254,33.78 353.358,158.488l114.321,106.529l184.471,-161.092c98.729,-90.933 181.871,-171.475 181.871,-181.87c0,-57.159 -205.254,-241.63 -348.154,-311.784c-194.863,-96.133 -379.338,-124.712 -626.167,-96.133Z" style="fill:#fff;"/><path d="M9278.17,1580.29c-145.5,62.354 -270.217,116.916 -278.004,124.712c-7.796,5.196 -36.375,272.808 -70.155,594.983c-31.179,322.175 -59.758,589.792 -62.358,592.388c-5.196,5.2 -213.05,-161.088 -462.479,-368.942c-249.425,-207.854 -462.475,-379.337 -475.467,-379.337c-31.175,0 -540.421,210.454 -563.808,233.837c-12.988,10.392 303.992,267.617 704.108,571.6l727.496,548.221l213.05,519.637c119.517,285.8 220.85,514.442 231.242,511.846c10.391,-5.2 129.908,-54.562 267.612,-109.125l252.025,-101.333l-38.975,-93.529c-20.787,-51.967 -116.916,-285.809 -213.05,-519.642l-176.679,-426.104l124.713,-860c132.512,-919.758 135.108,-950.938 106.529,-950.938c-12.992,2.6 -140.304,51.967 -285.8,111.725Z" style="fill:#fff;"/><path d="M16789.5,1845.29c-394.925,85.741 -740.484,358.554 -919.759,724.896c-226.046,454.687 -236.437,862.6 -33.775,1288.7c270.209,563.804 987.313,909.362 1623.87,776.854c340.362,-70.146 709.304,-342.958 891.183,-657.342c436.492,-748.275 189.663,-1616.07 -561.212,-1987.61c-350.754,-171.484 -665.138,-218.25 -1000.3,-145.504l0,0.004Zm730.087,607.979c319.583,158.492 472.875,418.308 449.488,766.467c-36.375,553.412 -491.055,958.729 -971.721,870.391c-285.8,-51.962 -501.454,-207.854 -628.763,-452.083c-57.158,-109.125 -67.554,-163.688 -70.15,-350.754c0,-189.671 10.392,-244.229 72.75,-376.742c132.509,-280.6 278.005,-426.104 519.634,-511.838c194.866,-70.154 415.712,-49.366 628.762,54.559Z" style="fill:#fff;"/><path d="M6022.62,3097.62c2.6,72.75 514.442,3076.25 527.433,3089.24c20.788,23.383 511.842,-324.771 511.842,-363.746c0,-18.188 -23.383,-158.488 -51.967,-314.379c-28.579,-155.892 -51.958,-290.996 -51.958,-301.392c0,-15.588 605.379,-459.879 717.096,-524.833c15.592,-7.792 150.696,54.562 298.792,142.9c148.1,85.741 283.204,158.491 298.791,158.491c12.996,0 140.304,-77.946 278.009,-176.679l254.625,-179.275l-72.75,-44.167c-135.109,-80.545 -2683.93,-1504.35 -2696.93,-1504.35c-7.792,0.001 -12.988,7.792 -12.988,18.188Zm1013.29,1093.84c150.695,90.937 275.408,168.883 278.008,171.483c5.196,2.596 -106.525,85.737 -241.633,181.871c-137.7,96.133 -257.221,168.883 -265.013,161.091c-10.396,-12.991 -158.488,-675.529 -161.087,-724.896c0,-25.983 51.962,2.596 389.725,210.45Z" style="fill:#fff;"/><path d="M18875.8,4121.31c-714.5,872.991 -847.004,1047.07 -813.229,1070.46c20.788,18.187 119.513,98.733 220.846,184.466c103.929,83.146 189.671,148.1 192.262,142.905c142.905,-192.263 602.784,-724.896 626.167,-724.896c18.188,0 59.758,28.579 93.533,64.954l59.759,64.958l-62.359,571.6l-64.95,574.2l254.621,207.85c142.9,116.921 259.821,207.859 265.017,202.663c2.596,-5.196 28.579,-285.8 51.963,-620.967c25.983,-335.167 49.362,-613.171 54.558,-618.367c5.2,-5.195 75.35,2.596 155.896,18.188c272.808,49.367 511.841,-25.983 714.5,-231.242c184.47,-181.871 246.829,-332.571 246.829,-597.583c0,-376.738 -103.925,-522.233 -748.279,-1054.87c-197.463,-163.683 -368.946,-296.191 -376.742,-296.191c-10.388,2.595 -402.713,470.275 -870.392,1041.88l0,-0.009Zm1200.37,-140.3c231.237,207.855 283.204,353.355 194.862,545.617c-93.533,194.863 -327.37,267.613 -524.837,166.283c-111.717,-59.754 -345.554,-249.425 -342.954,-280.604c2.596,-38.971 449.483,-579.396 478.062,-579.396c15.592,0 103.929,67.555 194.867,148.1Z" style="fill:#fff;"/><path d="M4489.67,4978.71c-181.875,33.775 -519.634,215.646 -662.538,353.355c-72.75,67.55 -275.408,298.791 -452.083,509.241c-272.813,324.775 -316.979,389.729 -285.804,418.309c20.787,18.187 470.275,394.929 997.708,834.016c530.029,441.696 979.517,818.434 1002.9,836.621c38.971,31.175 83.141,-10.392 397.525,-387.129c478.066,-574.204 613.171,-849.613 613.171,-1244.53c0,-350.755 -145.496,-665.138 -436.496,-935.346c-350.754,-327.375 -763.867,-465.079 -1174.38,-384.534l0.005,0Zm509.246,628.763c181.875,90.933 374.137,272.808 465.074,439.087c64.959,116.921 77.951,166.288 77.951,319.58c-2.6,223.445 -75.35,387.129 -285.805,644.35l-148.095,174.079l-163.688,-135.104c-90.933,-75.35 -374.137,-314.384 -631.362,-527.434c-259.817,-215.65 -470.267,-402.721 -470.267,-418.308c-2.6,-18.188 93.533,-129.913 213.05,-252.025c163.687,-168.883 246.829,-231.238 355.95,-275.404c187.066,-72.75 405.321,-62.359 587.191,31.179Z" style="fill:#fff;"/><path d="M2468.3,7293.71c-36.375,46.767 -244.229,465.075 -233.838,475.467c23.384,20.788 2392.93,1234.14 2398.13,1228.94c5.196,-5.2 67.555,-119.517 140.305,-254.625l129.912,-249.425l-1192.58,-615.767c-657.342,-337.767 -1197.77,-615.771 -1202.97,-615.771c-7.795,0 -23.383,15.588 -38.975,31.175l0.009,0.004Z" style="fill:#fff;"/><path d="M2195.49,8927.96c-236.434,38.975 -467.675,226.046 -602.78,491.059c-64.954,129.908 -366.345,1109.42 -345.558,1130.22c15.588,18.188 2515.05,766.463 2554.02,766.463c28.579,0 168.879,-418.304 168.879,-501.45c0,-23.383 -145.496,-80.546 -446.888,-168.883c-244.229,-75.35 -452.087,-140.3 -457.283,-148.096c-7.792,-5.196 5.196,-57.159 23.383,-109.125l38.975,-98.734l537.83,-155.887c296.187,-88.338 548.216,-168.883 561.208,-181.875c23.383,-25.984 184.467,-553.413 184.467,-605.379c0,-15.588 -259.817,59.762 -576.796,166.287c-316.979,106.525 -584.592,192.263 -594.984,192.263c-10.395,0 -25.983,-44.167 -36.375,-98.73c-25.983,-145.495 -127.312,-345.562 -223.445,-441.691c-184.471,-187.071 -506.646,-283.2 -784.655,-236.438l0.005,0Zm272.808,600.184c54.562,15.587 135.108,70.15 176.675,116.916c106.529,119.521 111.725,259.821 23.392,556.013l-51.967,171.483l-363.746,-109.125c-200.062,-62.358 -368.946,-116.916 -374.142,-122.116c-23.383,-20.784 98.734,-374.138 158.488,-459.88c64.958,-96.133 194.867,-181.87 280.604,-184.466c25.988,0 93.538,12.983 150.696,31.175Z" style="fill:#fff;"/><path d="M1101.65,11500.2c-18.188,62.354 -98.729,1506.95 -85.737,1522.54c12.991,10.392 2673.53,189.663 2683.93,179.271c2.6,0 12.991,-127.308 23.383,-278.004l18.187,-272.808l-569.004,-33.779c-311.783,-18.188 -569.004,-36.375 -571.6,-38.975c-5.196,-5.196 5.196,-218.246 23.383,-478.063c15.588,-259.821 23.384,-478.067 15.588,-485.862c-7.792,-7.796 -114.317,-20.788 -233.833,-31.18l-220.846,-15.591l-15.592,231.241c-10.392,127.313 -25.979,345.559 -33.775,488.459l-18.187,257.221l-283.2,-12.992c-155.896,-7.796 -288.405,-18.188 -291.005,-23.383c-5.191,-5.196 5.2,-233.838 23.388,-504.046c18.187,-272.809 28.579,-498.854 23.383,-504.05c-5.196,-5.2 -114.321,-15.588 -241.633,-23.388c-187.067,-10.391 -236.433,-5.196 -246.825,23.388Z" style="fill:#fff;"/><path d="M21170,17478.6c-233.837,405.313 -428.704,743.079 -433.896,750.875c-7.8,18.184 2327.97,1335.47 2340.96,1319.88c10.395,-10.391 805.437,-1374.44 849.608,-1457.58c18.187,-36.375 -10.396,-62.358 -168.879,-148.1c-103.929,-59.758 -202.663,-106.52 -218.25,-106.52c-15.588,0 -150.696,215.645 -303.988,480.662c-153.296,265.013 -288.4,485.863 -301.391,493.658c-28.58,20.784 -594.984,-296.195 -594.984,-332.57c0,-12.992 116.917,-226.046 259.821,-472.871c142.896,-246.825 259.817,-454.684 259.817,-462.475c0,-15.592 -358.55,-226.046 -389.729,-226.046c-10.392,0 -140.305,207.858 -285.8,459.883c-148.1,254.621 -270.213,465.071 -272.809,470.267c-10.391,10.396 -75.35,-23.383 -303.987,-155.888l-174.084,-98.733l285.805,-493.654c155.891,-270.213 283.2,-501.45 283.2,-517.042c0,-23.383 -262.417,-184.471 -366.346,-223.442c-31.175,-12.991 -135.104,148.096 -465.071,719.7l0.004,-0.004Z" style="fill:#fff;"/><path d="M20468.5,18905c-155.892,23.383 -290.996,83.146 -441.692,192.271c-119.516,88.333 -818.429,826.221 -818.429,865.196c0,25.979 1935.65,1797.95 1961.63,1797.95c12.992,0 103.93,-90.938 205.259,-205.255l184.471,-205.258l-350.759,-316.975c-192.262,-176.679 -350.754,-327.371 -350.754,-337.767c0,-7.796 33.775,-49.366 75.346,-88.337l75.35,-72.75l566.404,93.533l569.009,96.134l226.037,-241.634c179.275,-194.862 215.65,-244.229 181.875,-259.816c-25.983,-10.392 -301.392,-49.367 -615.771,-85.742c-314.383,-36.375 -574.2,-72.75 -579.396,-77.942c-5.195,-5.196 5.196,-51.967 20.784,-106.529c51.966,-153.296 41.575,-397.521 -23.384,-545.621c-64.954,-145.496 -228.637,-324.775 -379.333,-413.108c-124.717,-75.35 -345.563,-111.725 -506.646,-88.342l-0.004,-0.004Zm233.833,615.771c98.734,75.35 181.88,210.458 181.88,303.991c0,106.525 -85.742,259.821 -241.634,428.7l-122.117,135.109l-85.741,-67.554c-44.167,-36.375 -176.675,-153.292 -290.996,-259.821l-207.854,-194.867l155.891,-161.083c246.83,-252.025 439.096,-311.784 610.571,-184.475Z" style="fill:#fff;"/><path d="M18579.6,20417.2c-116.921,75.345 -220.846,142.895 -228.637,153.291c-10.396,10.392 187.066,350.754 439.087,758.671c483.267,779.454 558.617,919.758 561.213,1034.08c0,161.092 -114.321,322.175 -298.792,415.713c-142.9,75.35 -301.392,67.554 -426.104,-12.992c-111.721,-75.346 -137.704,-111.725 -665.134,-966.525c-210.454,-342.963 -397.525,-644.35 -415.712,-667.733c-25.983,-41.575 -51.963,-31.18 -267.613,103.925c-153.291,93.537 -233.837,161.087 -226.041,181.875c36.375,93.533 974.321,1582.3 1054.87,1678.43c192.263,218.246 501.446,324.775 808.034,278.004c366.345,-59.758 776.858,-355.95 924.954,-670.333c59.758,-129.905 70.154,-184.467 70.154,-384.525c0,-210.459 -10.396,-249.43 -83.142,-389.73c-103.929,-202.662 -992.508,-1634.26 -1015.89,-1642.06c-10.392,-2.596 -114.321,57.162 -231.242,129.912l-0.004,0.005Z" style="fill:#fff;"/><path d="M15641.1,21874.8c-517.037,161.088 -945.741,298.787 -953.537,303.988c-7.792,10.391 111.725,465.075 127.312,483.262c2.6,2.6 161.088,-41.571 350.759,-98.733c189.666,-57.159 348.154,-101.329 350.75,-96.134c2.6,2.6 137.708,462.48 301.395,1021.09c161.084,556.012 301.384,1021.09 309.18,1031.49c12.995,15.592 514.441,-122.116 543.025,-145.5c2.595,-5.196 -129.913,-465.075 -293.596,-1023.68c-163.688,-558.613 -298.792,-1026.29 -298.792,-1041.88c0,-15.588 153.292,-75.346 340.363,-132.509c337.766,-106.52 340.362,-109.12 322.175,-176.675c-41.571,-179.275 -124.713,-420.908 -137.705,-418.308c-10.391,0 -441.695,132.508 -961.329,293.596Z" style="fill:#fff;"/><path d="M10140.8,21968.2c-31.179,51.967 -584.592,2608.59 -566.404,2624.17c23.383,23.383 498.85,116.916 511.842,101.325c7.795,-7.792 249.429,-1070.45 249.429,-1096.43c0,-5.2 218.246,33.775 483.262,85.734c329.971,67.554 485.863,88.341 491.054,67.554c49.367,-166.279 93.538,-413.108 75.35,-428.696c-12.991,-12.992 -215.65,-57.162 -452.083,-103.929c-236.437,-46.767 -441.692,-88.342 -457.283,-93.538c-20.784,-5.195 -10.392,-88.333 28.579,-272.808c33.779,-145.496 67.554,-272.808 77.95,-280.604c10.392,-10.392 233.833,25.983 498.85,80.546c265.012,54.562 483.262,96.129 488.458,90.933c12.992,-10.388 116.917,-472.867 109.125,-478.067c-23.387,-18.187 -1530.33,-309.183 -1538.13,-296.191l0,0.008Z" style="fill:#fff;"/><path d="M13780.8,22272.2l-127.313,10.396l12.992,927.55c7.796,563.808 2.6,961.329 -12.992,1018.49c-36.375,135.109 -116.916,233.834 -236.433,288.396c-280.604,127.317 -592.388,-5.196 -662.538,-283.2c-12.991,-51.962 -31.179,-506.646 -41.57,-1005.5c-10.396,-501.45 -20.788,-911.962 -25.984,-917.158c-2.6,-2.6 -132.504,0 -283.204,10.392l-278.004,18.183l15.592,834.021c18.187,1021.09 28.579,1182.17 90.937,1345.86c194.863,517.042 909.363,722.296 1519.94,433.9c207.858,-98.733 402.72,-340.362 467.675,-581.996c23.383,-88.337 20.787,-1834.32 -2.596,-2008.39l-15.592,-109.125l-148.096,5.195c-80.541,2.6 -202.658,7.796 -272.812,12.992l0,-0.004Z" style="fill:#fff;"/></g><g><path d="M5312.5,13524.3l208.333,-17.359c0,0 234.359,-12.262 208.334,329.859c-26.025,342.125 94.775,243.191 156.25,260.416c61.475,17.23 219.133,-102.591 243.054,-225.691c23.925,-123.104 13.971,-201.863 104.167,-156.25c90.2,45.608 147.791,229.591 190.975,381.941c43.179,152.355 159.604,712.171 295.137,781.25c135.533,69.084 930.921,60.888 1041.67,190.975c110.746,130.084 689.783,722.796 781.25,763.888c91.466,41.092 259.312,34.558 295.137,156.25c35.825,121.692 -144.379,456.479 -52.083,572.916c92.3,116.438 486.067,1215.61 885.417,1267.36c468.683,60.729 466.2,530.892 590.279,711.804c135.666,197.808 17.362,1770.83 17.362,1770.83c0,0 212.771,188.913 659.721,243.055c143.104,17.337 236.896,-630.363 434.817,-708.688c285.704,-113.067 479.396,-69.679 632.5,-432.192c93.179,-220.629 12.408,-489.737 137.658,-714.275c91.708,-164.412 552.708,-254.825 681.983,-397.366c187.684,-206.942 170.717,-462.225 234.48,-684.413c81.137,-282.741 153.654,-522.075 187.966,-660.904c77.871,-315.117 -138.879,-591.454 -994.054,-660.258c-388.387,-31.246 -443.533,-475.267 -785.087,-711.663c-408.425,-282.679 -1451.31,-767.829 -1680.79,-536.512c-176.838,178.254 -532.746,329.137 -672.575,197.821c-176.692,-165.93 -361.717,-104.609 -443.75,-192.4c-95.546,-102.246 -268.646,-1221.22 -722.642,-689.142c-233.137,273.229 -527.616,-213.763 -380.816,-652.8c26.445,-79.1 900.912,333.546 1304.37,10.842c285.909,-228.684 85.863,-1150.34 380.238,-1491.45c180.892,-209.604 924.108,-623.217 1164.12,-741.234c616.679,-303.22 180.058,-634.966 477.962,-706.591c470.546,-113.125 1455.56,-274.634 -296.9,-1542.65c-737.496,-533.625 -974.333,-2.858 -1042.56,321.721c-128.625,611.879 -2212.82,778.675 -422.621,-1018.6c571.525,-573.783 -448.459,-240.625 -1238.7,201.471c-358.571,200.6 -874.783,51.766 -1309.26,39.804c-131.183,-3.613 -196.837,177.896 -359.108,395.317c-720.421,965.245 -1262.62,4044.18 -912.225,4342.92l0,-0.016Z" style="fill:#fff;"/><path d="M13611.1,5243.04c-36.954,-236.95 -3598.06,275.637 -3576.39,625c0,0 -286.979,1061.69 677.084,503.475c1059.41,-613.425 194.841,1823.17 763.891,2135.42c480.855,263.846 742.525,481.18 798.609,-69.445c52.466,-515.092 1003.5,-714.946 1531.67,-1264.57c267.096,-277.942 -108.525,-577.238 124.708,-954.6c238.858,-386.463 -271.642,-667.93 -319.575,-975.275Z" style="fill:#fff;"/><path d="M13697.9,7673.62c0,0 -251.692,391.633 210.1,467.771c68.004,11.212 126.037,182.967 223.929,191.95c724.129,66.442 650.125,-701.521 399.304,-833.333c-207.871,-109.242 -198.775,224.866 -286.354,221.079c-259.767,-11.229 -536.9,-200.788 -546.979,-47.467Z" style="fill:#fff;"/><path d="M15399.3,9357.62c0,0 -139.125,-212.042 -285.817,8.15c-119.071,178.738 -224.421,686.212 94.846,356.433c374.379,-386.7 177.75,615.65 763.887,-173.608c239.392,-322.354 -714.266,-1421.54 -694.441,-885.417c14.237,385.009 303.379,723.53 121.525,694.442Z" style="fill:#fff;"/><path d="M17239.6,6440.96c0,0 -1920.07,2698.66 -486.112,2135.42c149.196,-58.6 78.967,908.054 413.429,94.396c144.446,-351.4 200.446,-1399.9 466.842,-1094.63c55.5,63.605 -234.092,320.68 -194.9,561.084c43.087,264.308 70.929,550.983 -127.325,651.762c-356.475,181.213 130.358,640.021 -54.571,551.284c-562.013,-269.688 -2088.36,808.454 -1415.08,1171.55c462.104,249.208 366.795,579.967 -216.863,477.75c-382.912,-67.058 -567.446,1204.87 520.833,434.029c336.03,-238.017 344.005,-648.121 541.163,-688.396c388.387,-79.341 739.892,248.042 617.833,678.459c-112.333,396.145 417.796,412.029 290.867,-89.18c-29.8,-117.67 236.512,-253.604 118.008,-324.237c-194.05,-115.658 -363.791,-914.325 758.517,405.992c0,0 1479.62,628.17 -34.721,694.445c-1514.35,66.271 -1440.97,-416.666 -1440.97,-416.666c-1051.63,27.962 -1669.91,384.479 -1822.92,1093.75c0,0 -1306.47,3147.24 850.691,2673.61c1127.17,-247.483 1278.12,-261.6 1451.75,662.404c257.546,1370.66 -41.479,1419.81 -201.746,1698.71c-236.1,410.866 221.121,1490 243.059,1649.3c978.55,-742.359 1710.62,-1651.32 2326.39,-2638.89c-253.15,-648.337 -19.35,-1068.04 572.917,-1319.45l243.054,-902.775c-279.275,-217.541 -203.088,-411.983 121.529,-590.279c315.675,-3039.1 -804.629,-5585.92 -3541.67,-7569.46l0,0.012Z" style="fill:#fff;"/><path d="M6822.92,8281.25c0,0 572.583,656.367 1059.03,-156.25c486.446,-812.617 300.637,480.708 1145.83,-243.054c620.629,-531.467 909.954,38.042 833.334,104.167c-223.884,193.208 733.745,1659.35 624.999,-503.476c-41.95,-834.312 -194.845,204.996 -781.249,-1423.61c-102.463,-284.558 -1636.59,958.971 -1423.61,815.971c-8.617,31.629 -204.463,661.833 -607.638,486.113c-390.75,283.475 -656.954,593.949 -850.695,920.137Z" style="fill:#fff;"/></g></svg>